<?xml version="1.0" encoding="utf-8"?>
<svg xmlns="http://www.w3.org/2000/svg" version="1.1" viewBox="0 0 1730 1216">
	<title>Illustration of the crime scene.</title>
	<path clip-rule="evenodd" d="m320 9c6.1 0.5 12.3 2.9 14 8 1.5 2.7 0 7.1 1 11 1.9 7.6 5.8 16.9 8 24 0.3 3.3 0.7 6.7 1 10 1.7 5.5 6.2 13.1 8 18 2.7 7.5 0.8 12.9 3 21 3.1 11.7 8.8 26.6 13 38 1.7 4.7 3 10.3 4 14v11c1.8 6.3 6.4 14.6 9 20 1 7.3 2 14.7 3 22 0.9 2.8 4.1 5.4 5 8 2.5 6.8-0.7 8.5 8 9 16-16.8 36.1-30 55-44 3.7-2.8 6.1-7.3 9-11 5.2-6.8 13.8-11 21-16 6-6.3 12-12.7 18-19 5.4-5.4 11.7-8.3 18-13 3.9-2.9 6-8 9-12 3.1-4.1 7.7-5 12-8 4-4.7 8-9.3 12-14 3.5-2.6 7.6-3.4 11-6 3.7-4 7.3-8 11-12 4-2.7 8.3-3.3 12-6l15-15c6.7-5 13.4-9 19-15 4.7-0.2 8.5 0 11 2l2 2c-0.6 1.8-0.2 1-1 2-2.2 2.5-5.1 2.1-8 4-6.3 4.1-10.9 11.9-17 16-3.1 2.1-6.9 1.9-10 4l-56 56c-6.5 4.5-12.6 7.3-19 12-1 1.7-2 3.3-3 5-1.6 1.8-4.2 2.4-6 4-5 5.3-10 10.7-15 16-15.9 11.5-30.9 23.6-45 37-11.1 10.5-21.5 19.6-34 29-2 1.5-2.4 3.9-4 6-1.2 1.5-17.7 14.6-19 15-3-0.7-6-1.3-9-2-8.1-13-9.6-28.8-16-44-5.8-13.7-13.4-30.3-17-45v-13c-1.4-5.2-5.4-12.9-7-18-0.3-5-0.7-10-1-15-4.9-13.2-10.7-30.1-15-45-0.7-5.7-1.3-11.3-2-17-3.5-9.8-10.5-19.6-11-32 1.3-0.7 2.1-1.1 3-2z" fill-rule="evenodd"/>
	<path clip-rule="evenodd" d="m988 136c5.3 0.7 14.1 5.1 16 9 1.3 2.7-0.5 5.8 1 8 1.7 2.5 5.4 2.3 8 4l8 8c0.4 9.1-2 12.2-11 12l-9-9c-0.3-2.3-0.7-4.7-1-7-3.3-1-6.7-2-10-3-3-1.9-4.5-6.4-7-9 0.3-3.3 0.7-6.7 1-10 1.5-0.9 2.9-1.8 4-3z" fill-rule="evenodd"/>
	<path clip-rule="evenodd" d="m1067 175c-4.8 0.1-9.5-0.3-13-1-0.6-1.6-0.8-2.4-1-5-0.8-1.1-0.7-1.7-1-5-8.1 0.8-7.3 5.4-16 6-1-3.3-1.9-4.1-2-9 8.8-4.6 14.7-7.8 19-17 2-0.3 4-0.7 6-1 2.2 2.1 3.7 1.7 5 5 3.2 4.3 0.5 9.8 0 18h2c3.1 2 9.8 0.2 15 0 2.2 3.5 3.7 4 4 10-8.2 5.5-13.3 16.3-25 18-1-0.8-0.3-0.4-2-1-0.7-2-1-4.7-1-8 2.7-1.6 7.5-4 9-7 0.8-1.1 0.6-0.9 1-3z" fill-rule="evenodd"/>
	<path clip-rule="evenodd" d="m289 147c1.7 0.3 3.3 0.7 5 1 0.6 4.6-0.5 9.9 3 12 3.1-3.2 7-5.7 10-9 6.4-0.4 9.2 0.5 15 2 4.2 6.3 8.7 10.4 9 21-4.6 4.5-5.2 7.1-15 7-1.7-2.7-2.5-2.5-3-7 3-1.9 5.8-4.4 7-8-2.2-1.2-4.5-4.3-9-3-2.5 0.7-4.7 4.9-7 6-12.7 6.2-19.3-6.2-20-16 1.7-1.8 3.4-4.2 5-6z" fill-rule="evenodd"/>
	<path clip-rule="evenodd" d="m298 176c2 0.3 4 0.7 6 1 1.1 5.2 3.1 10.4 8 12 5.2 4.6 13.3 3 23 5 2.2 3.3 7.2 10.8 0 13-5.1 1.6-13.8-3.9-18-5h-15c-4.3-6.8-8.8-11.6-9-23 1.5-0.8 3.7-1.9 5-3z" fill-rule="evenodd"/>
	<path clip-rule="evenodd" d="m1047 192c6.9 2.5 13 4.4 13 14-2.1 1.1-1.8 1.4-5 2v1l-1-1c-6.1-1.5-10-6.2-10-14 1.3-0.7 2.1-1.1 3-2z" fill-rule="evenodd"/>
	<path clip-rule="evenodd" d="m1031 193h5c2.9 5 6.4 8.6 7 16-0.8 1-0.4 0.3-1 2h-2c-2.3 1.5-4.3 0.6-7 0-2.6-4.7-8-10.7-4-16l2-2z" fill-rule="evenodd"/>
	<path clip-rule="evenodd" d="m1077 239c-0.4-9.5-1.2-22.9 1-34 16.2-9.8 10.7 11.6 12 22h5c2.6-2.4 4.3-1.8 8-1 1.4 2.5 1.9 3.5 2 8-9.9 6.4-13.1 5.6-28 5z" fill-rule="evenodd"/>
	<path clip-rule="evenodd" d="m1052 213c9.5 0 14.4 4.7 14 15-0.8 1-0.4 0.3-1 2h-2c-2.5 1.7-5.3 0.6-8 0-3.3-5.2-6.6-10.2-3-17z" fill-rule="evenodd"/>
	<path clip-rule="evenodd" d="m316 252c-0.1-5.2-1.4-6.7-3-10 0.7-0.3 1.3-0.7 2-1 1.7-1.3 3.1-1.6 6-2 8.2 6 18.8 7.7 30 8 1.4 2.5 1.9 3.5 2 8-0.8 1-0.4 0.3-1 2-3.3 0.8-3.9 1.6-8 2-6-4.8-17.9-7-28-7z" fill-rule="evenodd"/>
	<path clip-rule="evenodd" d="m1074 241c3 0.7 6 1.3 9 2 2.5 2.3 2.7 7.5 6 9h10c5.6 2.1 10 8.8 10 17-2.5 1.4-3.5 1.9-8 2-1.9-2-13-11.4-15-12-2.3 0.3-4.7 0.7-7 1-5.6-1.8-8.2-8.3-9-15l4-4z" fill-rule="evenodd"/>
	<path clip-rule="evenodd" d="m303 243h7c0.9 3.2 4.1 7.4 3 9-3.9 3.3-9.4 4.1-15 3v-5c2.1-1.7 3.6-4.6 5-7z" fill-rule="evenodd"/>
	<path clip-rule="evenodd" d="m1234 281c-6.7 0.6-13.7 7-17 1-1.4-2.2-1.5-9.3-2-12h-3c-2.9 5-5 9.8-13 10-0.5-1.5-0.7-1.7-1-4 7-8 6-25 21-25 1.7 2 3.3 4 5 6 3.3 9-3.2 13.8 9 14 3.8-3 12.9-2.1 18-1 1.2 2.3 1.6 2.3 2 6-5.4 6.8-7.6 21.5-19 22-3-3.1-4.7-2.7-5-9 3.2-1.9 4.6-3.1 5-8z" fill-rule="evenodd"/>
	<path clip-rule="evenodd" d="m1118 258c8.4 0.6 16.1 3.4 16 13-5.7 3.6-16.2 4.4-19-3-1.8-2.6-0.6-6.2 0-9 2.1-0.4 1.9-0.2 3-1z" fill-rule="evenodd"/>
	<path clip-rule="evenodd" d="m317 264c10.2 0 9.7 6 17 8 10.7 2.9 20.6-13.3 24 6 0.6 1 0.1 1.9 0 5-2.1 1.3-2.3 2.1-5 3-4.3 2.7-14.6-1.9-19-3-4.3 0.3-8.7 0.7-13 1l-17-11v-5c2.9-1.6 5.7-2.1 11-2l2-2z" fill-rule="evenodd"/>
	<path clip-rule="evenodd" d="m1148 270c7.8 0.6 16.7 3.7 18 11-1.4 1.3-6.3 4.5-7 6-3.9 8 4 11.7-8 12-4.3-3.3-9.9-3.3-12-9-2.4-4.4 5.9-16.8 9-20z" fill-rule="evenodd"/>
	<path clip-rule="evenodd" d="m1199 287c8.2-0.3 13.4 1.6 14 9 0.9 1.3 0.9 2.5 1 5-3.1 1.9-3.4 2.9-9 3-4.3-5.9-10-6-8-16 1.8-0.6 1-0.2 2-1z" fill-rule="evenodd"/>
	<path clip-rule="evenodd" d="m1187 300c3.8 0 6.3 0.4 9 1 1.8 3.8 3.5 5.7 4 11-0.7 0.8-1.3 2.2-2 3-1.7 1.1-4.9 1.1-8 1-3.3-4.6-7.9-4.9-9-12 0.8-1 0.4-0.3 1-2h2c0.8-0.7 2.2-1.3 3-2z" fill-rule="evenodd"/>
	<path clip-rule="evenodd" d="m1228 301c2.3 0.2 2.8 0.2 4 1 6.4 1.8 10.8 6.8 11 15-3.3 2.2-3.2 3.7-9 4-1-0.8-2.7-1.4-4-2-3.1-4.7-5.8-6.9-6-15 1.5-0.9 2.9-1.8 4-3z" fill-rule="evenodd"/>
	<path clip-rule="evenodd" d="m1211 313c6.2 0.3 13.3 4.1 15 9 3.1 4.7-1.7 7.6-4 10-4.6-1.1-6.3-2.7-12-3-1.2 3.9-3.5 6.2-8 7-5.2-5.2-8.2-5.7-8-17h2c2.6-1.5 5.2 0.4 9 1 2-2.3 4-4.7 6-7z" fill-rule="evenodd"/>
	<path clip-rule="evenodd" d="m1254 329c2.7 0 4.6 0 6 1 6 1.7 10.8 7.3 11 15-3.1 1.9-3.4 2.9-9 3-1-0.8-0.3-0.4-2-1-3.9-5.5-10.1-10.1-6-18z" fill-rule="evenodd"/>
	<path clip-rule="evenodd" d="m1241 336c6.4 2.1 14.1 6.3 14 18-2.7 1.7-2.5 2.5-7 3-5.2-5.2-10.6-6.6-11-17 0.8-1 0.4-0.3 1-2 1.3-0.7 2.1-1.1 3-2z" fill-rule="evenodd"/>
	<path clip-rule="evenodd" d="m1267 392c0.1 4.3-0.4 7.9-1 11-1.7 0.6-3.2 0.9-6 1-4.4-7.1-3.1-22.4-3-34 0.8-1 0.4-0.3 1-2 1.6-0.6 2.4-0.8 5-1 5.8 9 9.8 0.9 19 0l2 2c-0.6 1.8-0.2 1-1 2-2.1 5.2-6.7 5.3-8 12 4 3.7 7.1 8.2 11 12-0.3 2.3-0.7 4.7-1 7h-6c-2.5-4.3-5.7-9.3-12-10z" fill-rule="evenodd"/>
	<path clip-rule="evenodd" d="m535 437c5.8-0.2 9.2 0.2 11 4 1.2 1.8 1.1 5.7 1 9-3.7 2.1-8.9 5.3-13 7-8 3.2-18.3 0.7-22 8-2.1 2.9-1.3 3.5-1 8 3.4 2.2 4.9 4.2 10 5 2.2-1.5 28.1-9.8 31-10 4 4 6.4 4.9 5 12-7.5 4.5-38.7 11.2-46 6-11.2-3.6-13-18.9-10-31 3.7-2.3 6.9-6.2 11-8 7.5-3.4 17.3-4.7 23-10z" fill-rule="evenodd"/>
	<path clip-rule="evenodd" d="m195 0h6c1.7 2 3.3 4 5 6 1.9 4.9 0.2 8.8 2 13 1.3 3.1 4.8 6.9 6 10 0.3 3.3 0.7 6.7 1 10 1.6 4.4 5.6 10.4 7 15v11c0.8 2.2 4.2 4.7 5 7v6c0.7 2.1 3.3 5.1 4 7 0.3 3.7 0.7 7.3 1 11 4.5 11.9 12.3 24.5 16 37v14c2.7 5.7 5.3 11.3 8 17 0.3 4.7 0.7 9.3 1 14 1.7 5.8 6.1 12.4 8 18l3 18c1 2.6 4.1 5.2 5 8 3.1 9.6 1.7 16.9 4 23 0.9 2.4 4 4.8 5 7 0.7 5 1.3 10 2 15 2.4 8.1 7.7 18.1 10 26v417c0 12.8-0.6 28.3 2 38 2.3 8.8-0.9 21.3 1 29-0.3 8.7-0.7 17.3-1 26 2.1 9.5 1 23.8 1 35 0 21.4 0.3 44.4 0 63-0.4 19.9 4.2 62.2-9 67-3.4 3.1-8.1 1.3-14 1-3.5-4.8-6.7-3.9-12-7l-8-8c-8.4-5.7-18.4-7.4-27-13-17.7-11.6-37.9-21.8-56-33-13.7-8.5-29.9-12.8-43-22-9.9-6.9-40.6-17.2-41-31 2.9-1.6 5.7-2.1 11-2 9.8 7.8 21.2 11.9 32 19 20.6 13.5 43.3 25.3 65 38 10.5 6.1 23.1 6.5 33 13 11.9 7.8 37.3 28.6 53 30 1.6-2.9 2.1-5.7 2-11 4.9-7.9-1.2-32.9 1-44 2.4-12.2-1.2-41.2 0-64 1.8-34.5 0.8-82.4-2-117-0.4-4.8 2.8-25.4 0-38-1.3-6.1-2.6-19.4-1-27 1.4-6.5 1.6-23 0-30v-17c0-14.6 0.6-32.5-2-44-1-4.4 2-9 2-15 0-8.7-0.7-18.1-2-24-1-4.3 2.4-9.4 3-13 0.5-3.4-3.3-8.7-4-11-3.4-10.7 1.1-35.2 3-42 2.4-8.7-0.7-23.2-2-29-1.3-5.6 2.9-15.2 3-22 0.5-23.6 3.3-47-1-65-2.4-10 3.8-17.7 3-25-1.3-11.1-7.3-21.5-10-31-0.3-4.3-0.7-8.7-1-13-0.9-1.8-4.3-3.7-5-6 0.3-2.7 0.7-5.3 1-8-1.3-6.8-5.3-14.6-7-21v-9c-1.3-4.4-5.6-8.1-7-12v-8c-1.1-3.7-4.8-6.7-6-10v-6c-2.2-7.1-6.4-16.9-9-24-0.3-3-0.7-6-1-9-2.6-7.3-7.5-17.6-10-26-3.8-12.4-2.6-23.6-7-35-3-7.9-8.7-17-12-25-1.9-4.5-0.2-8.7-2-14-0.8-2.4-4.2-5.6-5-8v-8c-0.6-2.2-3.3-5.1-4-7v-6c-2.4-8-7.8-15.6-9-24l5-5zm134 288c6.9 2.3 26.3 3.2 29 10 1.7 2.5 0.6 5.3 0 8-3.1 0.9-3 1.6-7 2-4.4 2.1-10.2-3.3-16-4l-1 1 1 1c2.8 3.9 9.7 9 14 11 9.1 4.1 14.7-1.2 15 12-2.8 1.5-5 2-10 2-2.9-2.1-6.1-1.2-10-3l-4-4c-3.3-0.3-6.7-0.7-10-1-7.4-4.7-9.3-23.6-6-32 1.5-0.8 3.7-1.9 5-3zm9 39c13.1 5.6 10.7 19.6 17 23v-2c2.4-3.3 1.4-5.4 4-9 1.8 0.6 1 0.2 2 1 4.9 1.6 6.2 5.2 6 12-3.3 3.4-6.7 6.6-10 10-5 0.3-5 0.3-10 0-2.8-3.6-7.3-5.2-11-8-3.5-2.7-4.9-7.8-8-11-0.3-6.7-0.4-5.6 1-12 2.5-1.1 6.8-2.3 9-4zm-1 16v-2l1-1h3c0.3 1.7 0.7 3.3 1 5-3.2-0.6-2.9-0.9-5-2zm13 101c0.3 3.3 0.7 6.7 1 10h4c2-1.9 3.8-2 8-2v2c1.9 2.8 0.7 8 0 11-3.3 2-4.7 3.6-10 4-3.9-3-9.7-3.3-14-6-3.9-2.5-5.8-6.8-9-10-0.5-5-1.8-8.5 1-12 1-0.8 0.3-0.4 2-1 6.4-4.1 12.5 3.2 16 2 2.2-2.3 3.4-5.1 4-9-2.3-1.2-2.3-1.6-6-2-2.3 1.8-9 3.1-12 1-5.6-1.7-7.3-5.2-7-13 1.7-1.7 1.5-2.8 4-4 1.3-0.9 2.5-0.9 5-1 5.8 8.2 22.9 2 27 12 1.8 2.5 2.6 7.3 3 11-4.1 5.5-2.6 8.3-13 8-1.2-0.8-1.7-0.8-4-1zm-11 3 2 2v2c-3.2-0.6-2.9-0.9-5-2v-2h3z" fill-rule="evenodd"/>
	<path clip-rule="evenodd" d="m550 522c-9.3 0.5-17.5 6.2-23 2-1.6-1.8-3.1-5.2-1-8 1.9-2.6 7.6-1.7 11-3 3.5-1.3 11.5-2.7 15-5 4.1-2.7 2.4-5.7 10-6 8.4 12.4 5.3 13.3 3 30 1.5 0.5 1.7 0.7 4 1 2-3.5 2.4-4.8 8-5 3.8 3.4 5.9 2.3 6 10-5.2 5.7-6 7.4-18 7-4.9 4-11.9 7.6-20 8-2.7-2.8-4.2-2.9-5-8 4.7-4.4 9.5-15 10-23z" fill-rule="evenodd"/>
	<path clip-rule="evenodd" d="m344 539c-0.4-2.1-0.2-1.9-1-3-6.1-6.1-15.7-6.8-16-19 2.5-1.4 3.5-1.9 8-2 5.4 7.6 20.8 8.6 24 15 2.2 3.4 0.9 21.3 0 25-2.5 1.4-3.5 1.9-8 2-4.8-4.4-20.6-6.3-23-11-1-1.4-1-3.3-1-6 1.7-1.7 1.5-2.8 4-4 4-2.4 8.3 2.1 13 3z" fill-rule="evenodd"/>
	<path clip-rule="evenodd" d="m1333 507c-0.8 1.9-1.4 2.7-2 5h4c0.6-2.4 1.1-3.1 2-5h-4zm-208-276c15.6 0.2 34.7 3.6 53 2 13.1-1.2 25-2.8 36 0 5.2 1.3 14.4-0.2 18-1 4 0.3 8 0.7 12 1 13.3 0.3 29-2.5 39 0 10.2 2.6 17.1-4.5 28-2 14.1 3.2 35.9-0.5 52 1 2.9 4.3 7.4 7.4 9 13v30c0 26.5-2 50.6-2 75 0 6.6 1 11.8 2 16v49 21c-4.5 18.7-2 46.9-2 69 0 38.7-2.1 77.6 0 114 1.7 29.9-4.3 66.6 2 93 2.6 10.9-0.5 25.3-7 28-5.6 4.9-26.4 2-36 2h-88c-9.4 0-27.2 2.4-33-2-4.9-5.2-4.1-21.2-4-31 3.1-1.9 3.4-2.9 9-3 1 0.8 0.3 0.4 2 1 1.2 7.3 3 8.5 12 8 6.3 4 32.2-1.7 40 0 4.8 1 7.5 6.5 12 8 3.8 1.2 11.9 1.9 15 0 5.8-2.2 8.1-8.2 15-10 3.9-1 21.4 1 28 1 0.9-1.5 1.8-2.9 3-4-0.7-15.7-1.3-31.3-2-47-1.9-6.5-6.7-6.3-7-16 2.5-3.1 2.6-5.5 7-7 2.1-1.6 6.7-1.5 9-3 2.2-3.3 1.1-12.9 1-18 1.2-1.8 1.1-5.7 1-9-5.4-3.2-13.2-4.3-20-7-1.9-4.1-1.5-5.5-1-11 7.4-4.2 9.5-6.5 9-19-1.2-1.8-1.1-5.7-1-9l-1-1c-8.7 0.3-17.3 0.8-21-4-3.6-5.1 1.3-12.7-1-21-1.3-2.7-2.7-5.3-4-8-8.3-0.9-21.4-4.6-32-2-5.7 1.4-10.9 6.5-16 3-3.7-5.7 1-17.4 0-24h-2c-11.6-7-48.2 5.7-53-7-2.7-3.4-2.4-9-2-13 2.5-1.4 3.5-1.9 8-2 6.1 6.1 23 4 35 4 33 0 62.3-1.8 89-2 0.3-1 0.7-2 1-3 3.6-5.8-0.2-19.2 1-27 1.9-12.8-0.3-30.4-3-41-1.8-6.9 2-12.2 1-18-1-0.3-2-0.7-3-1-4-3.1-22.9-5.3-29-2-4.3 2.3-3.6 5.4-11 6-0.3-1-0.7-2-1-3-3.6-5.6-2.2-24.9-1-30 10.6-6 22.5-3.1 37-1 1.6 0.2 4.1 1.7 7 1s7.3-3.3 10-4c4.8-1.3 7.2 0.9 10-2 7-9.2-2.6-25.3-1-33 0.3-1.4 2.6-5.4 3-7 1.4-6.1-0.9-18.3-2-23-1.5-6.1 1.1-12.4 2-16-0.3-12-0.7-24-1-36-1.9-0.7-3.9-1-7-1-1.9 1.1-7.6-1.6-14 0-15.5 3.9-36.8-0.4-57 0-24 0.5-67.1-0.9-93-1-22.1-0.1-48.8 2.9-69-1-1.3-2.8-1.9-4.4-2-9 1-0.3 2-0.7 3-1 2-1.4 6-1.6 8-3zm-120 2c13.9-0.2 24.9-1.1 38 2 1.3 2.8 1.9 4.4 2 9-13.5 7.9-27.8 3.5-45 3-1.7 3.3-2.1 7.3-2 13 5.8 7.4-0.1 14.4 1 21 4.2 24.1 1.5 58.2 1 84 22.1 5.5 55.3 2 81 2 61.9 0 110-4.8 166-1 1.3 1.8 2 1.7 3 4 4.7 5.7 3.6 29.4-2 32h-6c-2.1-3.8-2.8-5-9-5-9.8 6.8-20.6-3.5-35 0-15.7 3.8-45.8 2-70 2h-108c-1.9 3.1-2.9 3.4-3 9 5.8 7.3 0.2 16.3 0 27-0.2 17-0.8 31.1-1 52 1.8 1.3 1.7 2 4 3 6.5 4.9 19.1-0.4 27 1 19 3.5 44.2 1 65 1h28c6.2-1.9 6.1-8.5 13-10 1 0.8 0.3 0.4 2 1 2.2 8.3 2.1 11.5 0 20-1.8 1.1-3.6 2.5-5 4-45.3 0-93.6 1.2-132 1l-1 1c-1.8 15.8-1 35.6-1 53 0 11-0.9 24.7 1 34 0.6 2.9-0.7 6.6-1 8v34c0 26 1 47.5 1 74 0.7 0.3 1.3 0.7 2 1 4.4 3.3 26.4 3 36 3 29.9 0 61.7-0.6 90-1 2.1-6.7 1.8-11 11-11 0.3 0.7 0.7 1.3 1 2 4.6 5.8 0.8 27.8-1 35-1.8 1.1-3.6 2.5-5 4-13.7 0.3-27.3 0.7-41 1-9.2-2.1-23.5-3.7-35-2-12.9 1.9-35.2 2.7-48 0-11.9-2.5-25.5 5.1-36-3-3.3-2.5-2.1-12.3-2-18-4.6-7.6 1.4-23.4-1-33-0.8-3.3-3.2-8.4-2-14 0.3-1.3 1.6-5.1 1-8-1-4.7-4-12.4-2-20 0.5-1.8 2-3 2-6s-1.5-4.2-2-6v-60c0-127.5 0.1-215.4 0-333 5.6-3.1 14.9-5.8 20-10zm187 238c2.8 0.3 4.4 0.7 6 2 1 1.4 1 3.3 1 6-3.6 1.8-9.4 2.9-11 7-2.3 3.5-0.9 16.2-1 19-2.9 1.6-5.7 2.1-11 2-4.1-6.4-3.3-11-3-21-4.4-2.3-7.8-3.1-8-10 0.8-1 0.4-0.3 1-2 3.8-0.9 23-1.1 26-3zm-56 42h21c15.1 2.7 54.1-5.1 72 2 6.8 11.1 6.7 41.8-5 46-3.2 2.4-12.9 3-19 2-17.1-2.7-44.8 0.1-68 0-4.2-7-9.2-36.9-4-45 0.9-2.7 1.7-2.9 3-5zm24 12c1 0.3 2 0.7 3 1 1.3 6.4 0.8 15.6 0 22-3.5 0.9-9.2 3.6-13 1-2.3-0.7-2.2-1-4-2-1.4-6.8-1.5-17.6 1-23 4.1-0.1 10.5-0.6 13 1zm25-1c0.3 1 0.7 2 1 3 0.8 1 0.4 0.2 1 2-1.2 1.1-2.1 2.5-3 4-2.3-0.2-2.8-0.2-4-1-2.6-1.2-3.1-2-4-5 0.9-0.9 1.3-1.7 2-3h7zm33 2c2.5 6 2 15.7 1 23l-1 1c-7.9 0.1-9.7-1.2-14-4-0.9-3.3-3.6-8.3-1-12-0.1-6.8 1-6.8 4-10 5.2 0 7.8 0.6 11 2zm54 39c0-10.5 4.4-11.4 5-21-2.7-2.5-4.6-5.1-5-10h2c7.9-5.3 24.3 1.4 30 3 2.1 4.4 3.1 7.7 3 15-2.6 2.8-3.5 7-6 10-1.4 1.7-4.4 2.4-6 4-7.9 0.1-16.5-0.2-23-1zm-86-22c0.3 0.7 0.7 1.3 1 2 0.8 0.6 0.3 0 0 1-0.7 2.3-1 2.2-2 4-4.5-0.1-4.7 0.4-6-3-1-2.3-0.2-1.6 1-4h6zm106 1 1 1c0 4.9-0.6 7-2 10-0.7 0.3-1.3 0.7-2 1-1.5-3.3-2.1-6.5-2-12h5z" fill-rule="evenodd"/>
	<path clip-rule="evenodd" d="m567 556c23-0.6 36.5 6.8 37 28-8.5 9.1-11.7 18.2-30 18-4.8-4.6-12.2-7.4-16-13-1.5-2.2-1.3-4.2-3-6-0.4-17.2 4-19.1 12-27zm0 28c-0.1-12.3 5.9-11.5 12-17 8 0.1 8.1 3.2 12 7-1.5 8.4-13.4 13-23 13-0.4-2.1-0.2-1.9-1-3z" fill-rule="evenodd"/>
	<path clip-rule="evenodd" d="m604 602c13.7 0 30.9 13.9 31 27-3.2 2.1-3.7 3.5-9 4l-4-4c-2.5-4.3 0-8.9-5-11-1.9-1.4-6.1-1.3-8 0-6.1 2-7.4 6.6-11 11 2.2 9.4 9.9 9.1 11 19-1 0.3-2 0.7-3 1-1.1 0.8-0.9 0.6-3 1-3.3-2-6.7-4-10-6-2.7-3.7-2.9-7.9-6-11-0.5-20.5 6.1-22.6 17-31z" fill-rule="evenodd"/>
	<path clip-rule="evenodd" d="m1336 615c0.4 2.1 0.2 1.9 1 3 2.8 2.4 3.4 0.8 4 6-2.7 1.3-5.3 2.7-8 4-3.5 6 3.9 7.8-6 10-0.8-0.7-2.2-1.3-3-2-3.9-4.3-1.8-21.6 0-26 3.9-1.3 10.6-1.1 16-1 0.8 0.7 2.2 1.3 3 2 0.8 1.1 0.6 0.9 1 3h-2c-1.4 1-3.3 1-6 1z" fill-rule="evenodd"/>
	<path clip-rule="evenodd" d="m319 631h14c3.9 6.9 9.6 14.7 19 16 1.1-3.6 2.9-4.6 5-7 1.8 0.6 1 0.2 2 1 3.1 1 2.9 1 4 4 1.7 2.1 1.9 4.2 2 8l-4 4c-7 5.6-32.8-6.1-38-10-2.6-1.9-3.7-6.7-6-9v-6c1.8-0.6 1-0.2 2-1z" fill-rule="evenodd"/>
	<path clip-rule="evenodd" d="m1283 626c10-0.4 23.2-1.7 28 5 4.2 5.4 2 33 2 43 0 4.4 0.8 11.2-1 14-1.4 4.2-4.3 5.2-7 8-8.3 0.2-27.1 2.8-33-1-3.9-1.3-4.5-3.6-7-6-0.3-16.6-2.2-30.5 0-44 1-6.2-6.9-13.3 1-17h13c0.9-0.6 3.1-1.3 4-2zm8 23c-1.4 2-1.6 6-3 8-1 0.8-0.2 0.4-2 1-1.9-2.8-3.4-8.3-5-11-2.7 0-4.6 0-6 1h-2c0.1-6.4 1.6-6.9 3-11 5.4-1.4 16.9-4.1 22 0 9.7 6.9 5.7 33.1 4 46-4.1 1.9-20.2 5.2-25 2-1-0.3-2-0.7-3-1v-6c1-0.8 2 1 2 1 5.5-0.6 7-4 9-8 4.2 1.1 4.6 4.5 6 8 1.7 0.6 1 0.2 2 1 2.8-0.1 4.3-0.4 6-1 2-9.8 3.4-20.3 2-31-4.1-0.5-6.8-1.3-10 1z" fill-rule="evenodd"/>
	<path clip-rule="evenodd" d="m633 645c13.5 4.2 32.4 5.7 32 27-3 1.5-3.5 2.5-8 3-3.2-5.5-5.8-10.6-10-15-5-0.3-5-0.3-10 0-3.9 5.7-8.5 10.4-7 19 6.8 1.1 9.3 2.5 9 11-2 0.7-4.7 1-8 1-5.6-4.9-9.8-9.9-15-15-0.1-6.8 0.3-13.6 1-19 2.8-2.1 4.2-6.1 7-8s6.5-2 9-4z" fill-rule="evenodd"/>
	<path clip-rule="evenodd" d="m317 655h3c1.2 2.3 1.6 2.3 2 6-3.3 4.1-0.9 7.9 0 13-2.3 1.2-2.3 1.6-6 2-3.3-3.3-6.1-4-7-10 3-3.6 5-7.6 8-11z" fill-rule="evenodd"/>
	<path clip-rule="evenodd" d="m1055 624c15.9 0.1 37.3 29.3 47 39 5 5 11.7 7.2 12 17-9.8 6.6-22.8 29-35 30-13.8-11.8-26.2-24.2-39-37-5.8-5.8-13.4-9-14-20 6.1-7.5 11.3-16.2 19-22 3.4-2.5 7.1-4 10-7zm12 20c0.8 4 0.8 8 0 12-1 0.3-2 0.7-3 1-1.6-3.5-3.3-7.9-5-11-2.9 0-5.5 0-7 1-6.4 2.6-2.8 8.4-6 14-1.1 2-4.7-3.7-6-5 0.6-10 9.6-12.6 15-18 5.7 0.9 8 3.6 12 6zm30 30c0.1 3 0.7 2.8 0 4-1.4 7.1-8.7 10.6-13 15-5.1-0.2-7.5-1.2-10-1-3.3-4.9-8.5-8.4-12-13-0.3-0.6 0.6-6.1 2-8v-2c6 0.5 6.2 3.8 7 9 2.8 0.5 2.9 1.2 5 0 6.6-2.2 6.4-8.9 6-18 5.8 3.9 8.9 10.2 15 14z" fill-rule="evenodd"/>
	<path clip-rule="evenodd" d="m676 680c2.3 0.3 4.7 0.7 7 1 2 4.1 4.2 6.4 5 12-8.3 5.1-18.9 8.3-19 22 0.8 1 0.4 0.3 1 2h7c2.9-2.9 6-1.8 10-4 6.6-3.7 5.4-9.8 17-10 1.5 2.5 2.3 2.3 3 6-6.6 6.4-25.1 25.8-39 20-6.1-2.5-8.7-8.7-13-13-0.2-4.1-0.6-10.6 1-13 3.1-9.1 13.9-16.3 20-23z" fill-rule="evenodd"/>
	<path clip-rule="evenodd" d="m335 701c6.3-0.1 23.2 6.1 25 10 0.8 1.2 0.8 1.7 1 4-2.6 1.5-4.1 2.5-8 3-2.5-2.3-8.6-6.1-11-5h-1c0.6 1.8 0.2 1 1 2 4.3 8.4 18.7 8 22 17 2.7 3.8-1.7 6.6-6 7-13.7-10.7-34.3-15.2-47-27 0.6-1.8 0.2-1 1-2 1.1-2.9 0.2-1.8 3-3 3.7-2 10.5 2.4 16 3 1.2-2.8 2.6-6.5 4-9z" fill-rule="evenodd"/>
	<path clip-rule="evenodd" d="m1177 721c7.1-0.1 12.1 0.8 17 2 1.4 2.5 1.9 3.5 2 8-2.5 1.4-3.5 1.9-8 2-2.2-1.8-4.8-2-9-2l-1 1c0.3 3.1 0 7.5 0 13 1.8 1 3.2 3.2 5 4 6.3 2.6 11.1-0.2 12 8-1.8 1.1-3.6 2.5-5 4-5.5 0.4-8.5 0.4-14 0-6-7.4-18.2-18.2-9-32 2.3-3.4 7-5.2 10-8z" fill-rule="evenodd"/>
	<path clip-rule="evenodd" d="m352 761c0.2-8.2-5.3-9.3-6-19h5c5 7.4 11.1 9.6 12 22-3.1 4.1-4.6 11.4-10 13-3.2 0.9-6.1-1.5-8-2-3.3-0.3-6.7-0.7-10-1-9.7-5.3-15.4-17.3-23-25-0.9-7.7-2.5-17.9 4-21 1.7-1.1 4.9-1.1 8-1 0.7 1.9 1 3.9 1 7-2.9 2.6-4.6 4.8-5 10 9.2 9.3 15 17.8 32 17z" fill-rule="evenodd"/>
	<path clip-rule="evenodd" d="m719 721c10.6 3.9 16 10.7 23 18 0.4 12.6-9.5 24.8-23 18-4.3-2.1-4.4-5.1-11-6-2.7 3.6-6.5 4.2-13 4-2-3.2-3-4-3-10 8-7.4 15.6-15.1 23-23 2.3-0.2 2.8-0.2 4-1zm6 17c-0.3 3.6-0.1 3.3-2 5-1 0.8-0.2 0.4-2 1-1-0.8-0.2-0.4-2-1 0.5-4.5 0.9-3.6 3-6 1 0.3 2 0.7 3 1z" fill-rule="evenodd"/>
	<path clip-rule="evenodd" d="m761 752c5.8 2.5 9.2 4.2 9 13-0.8 1-0.4 0.3-1 2-11.1 5.7-13.7 21.8-28 23-3.7-3-6.1-2.9-7-9 6.9-7.2 14.2-21.8 22-27 1.6-1.1 3.6-0.9 5-2z" fill-rule="evenodd"/>
	<path clip-rule="evenodd" d="m1290 760v-6h-2c-1.2-0.8-1.7-0.8-4-1-0.6 1.7-0.9 3.2-1 6 1 0.3 2 0.7 3 1 1.2 0.7 1 0.1 4 0zm-22 1c-0.3-3.3-0.7-6.7-1-10 1.5-0.9 2.9-1.8 4-3 12-0.1 21.6-1 31 1 0.3 1 0.7 2 1 3 2.9 4.5-1.8 9.2 0 15 1 3.3 6.2 5.8 3 11-1 3.6-2.5 5.8-6 7-4.2 4-26.6 5.3-32 1-0.8-1-0.4-0.3-1-2-1.5-2.7 0.5-5.7 1-10-8.3-2.3-15-1.1-15-12 3.6-1.2 9.9-1.1 15-1zm20 10c1 0.3 2 0.7 3 1-0.2 2.6-0.4 3.4-1 5-2.5-0.1-3.7-0.1-5-1-1-0.3-2-0.7-3-1v-4c3.2-0.4 3.9-1.2 6 0z" fill-rule="evenodd"/>
	<path clip-rule="evenodd" d="m788 772c7.4 0.1 25.8 9.3 28 14 2.1 2.6 1.3 2.4 1 7-3.1 1.9-3.4 2.9-9 3-2.8-4.8-5.5-8.7-13-9v1c3.6 2.2 5.6 4.3 6 10-2.4 1.3-2.8 1.8-7 2-3-2.3-6.3-2.2-8 1-0.8 1.2-0.8 1.7-1 4 5.5 3.2 12.9 4.9 13 14-2.3 1.2-2.3 1.6-6 2-6.1 1.2-22.8-8.2-25-15-1-1.4-1-3.3-1-6 8.2-8.4 14-19.5 22-28z" fill-rule="evenodd"/>
	<path clip-rule="evenodd" d="m335 794c7.1 0.8 10 4.9 15 7 4.2 1.8 10.3 1.5 14 3 2.5 5.4 1.6 16.6 0 24h-2c-8.6 6-28.5-5.9-29-14 2.5-1.4 3.5-1.9 8-2 2.2 1.9 7.1 3.9 9 3 0.8-1 0.4-0.3 1-2-6.3-3.6-18.2-6.8-19-16 0.8-1 0.4-0.3 1-2 1.8-0.6 1-0.2 2-1z" fill-rule="evenodd"/>
	<path clip-rule="evenodd" d="m834 797c15.1 0.2 23.1 14 31 22 0.1 17.7-10.2 18.7-19 27-17.9 0.4-24.3-6.6-33-15 0-12.7 13.7-27.9 21-34zm15 18c-0.4 7.9-3.9 11.1-7 16-5.3 0.1-8.1-0.4-11-2 0.1-10.9 4.8-12.8 9-19 5.1 0.8 5.7 2.8 9 5z" fill-rule="evenodd"/>
	<path clip-rule="evenodd" d="m1281 860v-6c-4.1-1.3-4.9-2.6-5-8 0.8-1 0.4-0.3 1-2 4.5-2.8 12.3-6.7 15 1-0.3 4-0.7 8-1 12 1.3 7.8 5.1 15.6 3 25-2.4 1.3-2.8 1.8-7 2-4.6-4.9-13.5-12.7-20-15v1c-0.9 1.3-0.9 2.5-1 5 2.7 3.4 5.2 9.1 6 14-3.9 4.1-15.2 10.7-16-1 0 0-3.6-33.9-3-37 4.3-1.1 5.4-2.7 11-3 4.1 4.8 9 11.2 17 12z" fill-rule="evenodd"/>
	<path clip-rule="evenodd" d="m1321 827c18.5-0.4 28.1 10.8 29 28-10 13-14.8 28.1-40 23v-2c-4.2-6.7-2-16.1-5-24-1.7-4.5-4.6-5.1-5-12l8-8c4.1-2.5 9.5-2.2 13-5zm8 17c0.5 2.1 0.9 3.6 2 5 0.1 6.4 0 12.2-2 16-2.8-0.1-4.3-0.4-6-1-1.8-4.6-1.9-12.6-5-16 0.1-5.5 0.7-5.4 3-8 3.5 1 5.3 2.4 8 4z" fill-rule="evenodd"/>
	<path clip-rule="evenodd" d="m1229 856c4.6-0.1 8.7 0.3 12 1v2c0.5 0.8 1.2 0.9 1 3-0.3 2.9-2.9 5-3 9-0.2 5.6 4.6 13.5 1 19-3.6 10.8-14.9 12.4-30 12-4.1-5.6-7.1-8.4-9-17v-10c-1-3.5-3.3-5.5-4-10 0.9-0.9 1.3-1.8 2-3 5.4-0.7 8.6-0.8 13 1 4 7.4-0.1 7.7 2 16 0.8 3.2 3.1 7.4 4 11 2.8 0.6 3.6 1.8 5 1 3.1-1 2.9-1 4-4 3.3-6.3-2.2-22.2-1-29 1.3-0.7 2.1-1.1 3-2z" fill-rule="evenodd"/>
	<path clip-rule="evenodd" d="m1060 860c7.2-0.1 13.1 1 18 3 1.9 3.3 4.5 5.3 4 11-0.1 1.4-1.5 1.6-1 4 0.9 4.3 3.8 5.3 4 12-2.1 2.3-2.1 5.3-4 8-2.1 3-6.4 4.5-9 7-24.6 0.8-37.7-8.4-32-31 6-3.7 15.1-8.9 20-14zm14 17c0.8 0.6 0.3 0 0 1-1.3 2.4-2 2.4-5 3-0.2 4.5-1.2 3.6 2 6-0.5 5.3-2.2 7.2-4 11-5.1-0.8-5.7-2.8-9-5-0.7-3.5-1.1-8.2-1-13 1.7-2.3 3.3-4.7 5-7 5.6 0.1 8.8 1.5 12 4z" fill-rule="evenodd"/>
	<path clip-rule="evenodd" d="m1112 863c16.5-0.7 26.7 2 26 19-5 3.6-6.4 7.2-6 14 4.4 1.8 8 2.5 9 8-0.8 1-0.4 0.3-1 2-2.8 1.3-4.2 2.4-8 3-2.3-1.9-5.6-2.2-8-4-4.8-3.5-3.9-10.5-11-12l-1 1c0.4 6.6 0.7 11.2-4 13-4 3.3-9.2 1.2-14 0v-3c-1.8-3.7 3.8-12.3 5-17-0.3-6.7-0.7-13.3-1-20 1-0.3 2-0.7 3-1 2.5-2.1 8.1-1.2 11-3zm9 12h2c-0.1 2.8-0.4 4.3-1 6-2.7 0-4.6 0-6-1h-2c0.2-4.1 0.5-3.9 2-6 2.5 0.1 3.7 0.1 5 1z" fill-rule="evenodd"/>
	<path clip-rule="evenodd" d="m1164 863c4.7-0.2 13.1-1 16 1 7.5 2 8.5 7.3 13 12 0.9 19.7-8.9 32.5-31 32-4.8-4.7-9.3-9.2-14-14-0.4-19.6 6.6-22.1 16-31zm10 12c1 0.3 2 0.7 3 1v16c-1.5 1.4-2.9 3.2-4 5-1.7 0.6-1 0.2-2 1h-6c-1.4-6.9-1.9-13.9-1-21 1.8-0.9 3.6-1.7 5-3 2.5 0.1 3.7 0.1 5 1z" fill-rule="evenodd"/>
	<path clip-rule="evenodd" d="m23 845h5c7.1 12.4 8.8 25.9 15 40 2.5 5.7 8.8 2.8 10 11-3.4 2.1-4.7 3.1-11 3-6.1-3.2-31.7 0.4-40-1-1-2.2-1.5-2.8-2-6 2.4-2.3 8.2-5.3 10-8 0.7-3.7 1.3-7.3 2-11 2.7-8.2 6.6-21 11-28zm5 24 2 2-1 1c-1.4 0.8-2.2-0.4-5-1v-2h4zm-8 16c-0.3-1-0.7-2-1-3l1-1c3.5 0.3 4.2 0.4 6 2 0.8 1.1 0.6 0.9 1 3-2.3-0.3-4.7-0.7-7-1z" fill-rule="evenodd"/>
	<path clip-rule="evenodd" d="m1558 885h11c1.9 3 3.4 4.2 4 9-0.8 1-1.4 2.7-2 4-3.2 1.7-13.2 3.8-15 7h2c3.4 2.2 8.7 0.3 13 0 0.6 1.6 0.8 2.4 1 5-0.8 1-0.4 0.3-1 2-11.9 6-17.5 5.3-26-3-0.1-6.5 0.9-10.4 2-15 3.7-2.4 7.6-6 11-9zm5 5 1 1c-1.3 3.6-2.5 2.9-5 5h-2c0.3-2 0.7-4 1-6h5z" fill-rule="evenodd"/>
	<path clip-rule="evenodd" d="m1530 907h-4c-0.3 0.7-0.7 1.3-1 2-3.3 4.2-1.2 11.1-1 18-2.9 1.8-2.9 2.7-8 3-1.1-1.9-3.3-3.7-4-6-1.8-6.1 3.2-7.8-2-11v1c-3.5 4.4-1.3 11.7-1 18-3.1 1.7-6.5 2.1-12 2-2-3.2-3-4-3-10 6.8-3.8 1.6-9.9 1-18 3.3-2 5-4.4 11-4 1.2 0.1 1.8 1.9 4 1 0.3-1 0.7-2 1-3 4-0.3 8-0.7 12-1 5.2-1.8 5.5-5.7 14-6 3 4.8 3.2 11.4 3 20 1.7 2.1 1.9 4.2 2 8-3.4 2.1-4.7 3.1-11 3-1.4-4.1-1.1-11.3-1-17z" fill-rule="evenodd"/>
	<path clip-rule="evenodd" d="m351 935c-0.4-2.1-0.2-1.9-1-3-5-4.7-15.4-5-18-12-0.8-1.2-0.8-1.7-1-4 2.4-1.3 2.8-1.8 7-2 4.9 4.8 12 5.2 22 5 1 1.8 1.3 1.7 2 4 3.5 4.4 2.3 18.1 1 24-1.8 1-1.7 1.3-4 2-4.3 2.8-22.1-5.9-27-8-1-2.2-1.5-2.8-2-6 3-2.8 2.7-3.9 9-4 2.9 2.9 6.2 3.9 12 4z" fill-rule="evenodd"/>
	<path clip-rule="evenodd" d="m1477 909h9c2.9 4.2 5 4.3 5 12-3.9 5.1 2.1 3.3 1 9-0.4 2.2-3.2 5-4 8-13 6.3-16.5 12-28 1-0.4-4.8-1.8-11.9 1-16 2.7-7.5 10.8-9.1 16-14zm0 19c-1 0.7-2 1.3-3 2v1c-2.4-0.9-1.7-0.4-3-2-0.8-1-0.4-0.2-1-2 0.9-0.9 1.3-1.7 2-3 1.7-0.3 3.3-0.7 5-1v5z" fill-rule="evenodd"/>
	<path clip-rule="evenodd" d="m1446 925c3.8 1.3 5.6 1.1 7 5 2 3.2 4 19.9 4 25-3.1 2.1-2.9 3.5-8 4-3.7-6.2-3.7-13.7-7-20-1.8 0.6-1 0.2-2 1-2.9 1.1-1.8 0.2-3 3-3.4 5 0.4 13.8 1 19-3.5 2.4-3.6 3.9-10 4-0.3-0.7-0.7-1.3-1-2-3.4-4.4-3.7-22.7-3-27 7-3.8 16.1-6.9 22-12z" fill-rule="evenodd"/>
	<path clip-rule="evenodd" d="m84 936c12.1 0.4 31.1 14.5 40 20 3.3 1 6.7 2 10 3l6 6c12 8 23.8 12.1 37 19 5.7 3 11.5 8.8 17 12 4.3 1.3 8.7 2.7 13 4l5 5c3.9 2.5 9.3 2.4 13 5 3.8 2.6 7.4 7.2 12 9 13.7 5.4 49.1 20.3 54 32 3 7.2-3 18.1-1 27 0.6 2.6 4.1 5.8 3 10-1.1 4.3-4.6 6.6-4 14 1.3 16 0 32.6 0 50v27c-2.7 10.9-4.9 23.4-5 36h-2c-1.2 0.8-1.7 0.8-4 1-8.2-12.7-4.2-46.3-4-66 3.4-5.4 1-21.3 1-29 0-21.4 6-44.6 2-65-6-2.9-10.8-8.4-16-12-4.4-3-10.5-3.2-15-6-3.3-2-6.7-6.3-10-8-9.3-4.9-18.6-5.4-27-11-1.7-2-3.3-4-5-6-2.7-1-5.3-2-8-3-5-3.1-10-7.9-15-11-7.2-4.4-15-5.6-22-10-2.3-1.4-4.4-4.9-7-6-2.3-0.3-4.7-0.7-7-1-12.5-5.3-24.4-14.4-37-20-8.3-3.6-21.2-7.2-25-15-2.3-3.2-1.5-5.9-1-10 1.8-0.6 1-0.2 2-1z" fill-rule="evenodd"/>
	<path clip-rule="evenodd" d="m307 207c3.7-0.1 8.9-0.4 11 1 9.4 3.5 6.2 15.1 14 17l1-1c0-3.6 0.5-5.4 1-8 1.8-0.6 1-0.2 2-1 7.3 1.4 10.7 4.6 11 13-1.7 2.2-2.7 6.4-5 8-15.8 10.9-39.1-7.9-39-23 1.1-1.4 1.5-2.9 2-5 1.8-0.6 1-0.2 2-1zm19 147c11.8 0.6 10.7 9 18 13 6.5 3.5 14.1-2.7 18-1 2.5 1.5 1.8 1.3 2 5-2.7 3.7-5.3 7.3-8 11-2.2 1.2-4.9 0.9-7 2v2c6.6 1.3 14.7 2.6 15 11-0.7 0.8-1.3 2.2-2 3-1.8 1.7-2.5 1.7-6 2-4.7-3.5-9.8-3.5-16-6-3-1.2-6-4.9-9-6-6-2.2-15.5-0.7-18-6v-17c3.4-4.4 5.3-8.1 9-12 2.3-0.2 2.8-0.2 4-1zm-10 105c12.5 2.2 42.6 13.3 46 22 2.8 2.9 3.1 7.1 3 13l-10 10c-14.1-0.2-25.7-11.9-30-22-0.3-3-0.7-6-1-9-2.9-6-10.1-2.4-11-12 1.3-0.7 2.1-1.1 3-2zm18 97c7 0.8 8.3 4.9 13 7 4.3 0.3 8.7 0.7 13 1 5.8 3 4.6 20.8 3 28-3.8 2.1-9.9 2.3-15 4 1 2.9 3.1 3.7 4 6 1.7 4.5 0.6 10.8 2 15 3.6-2.7 2.9-5.3 9-6 0.3 1 0.7 2 1 3 1.9 2.8 0.7 8 0 11-4.5 2.9-6 5-14 5-11.4-11.1-25.4-10.7-19-35 3-0.6 6.6-1.6 8-4 0.1-4.3-5.9-6.4-8-11-3-6.6-0.2-17.5 1-23 1.8-0.6 1-0.2 2-1zm-3 110c8.8 0 12.7 2.5 18 4 4-0.3 8-0.7 12-1 0.7 1 1.3 2 2 3 3.1 3.9 2.2 14 2 21-2.8 1.8-6.6 4.6-9 7-3.3 0.1-7.2 0.2-9-1-11.7-3.4-20.7-22-16-33zm-7 157c8.6 1 12.6 6.3 19 9 5.3 2.2 13.9 1.7 20 3 1 3.3 1.9 4.1 2 9 3.6 4.7 2.1 11.3 1 16-2.4 1.6-2.9 2.9-6 4-2.7 2.1-7 2.1-12 2-10.8-9-14.6-10.9-18-28-4.4-2.3-11.3-3.6-12-10 0.8-1 0.4-0.3 1-2 1.8-0.8 3.7-1.7 5-3zm15 57c13 1.2 10.3 11.4 19 13 2.3-1.5 4.3-0.6 7 0v2c3.4 4.5-0.7 13.2-5 16-6.5 5.4-13.9-1-18-4-10-7.3-14.5-17.7-3-27zm-17 68h8c3.8 5.2 12.6 14.8 20 16 3.3-6 14.6-12.1 14 2-3.6 2.4-15.3 9.5-16 14 7 3.5 15.9 4.2 16 15-3.2 3.1-3.4 4.8-10 5-9.2-9.3-25-15.9-40-19-1.9-7.1-3.1-14.9-2-24 3.1-2.4 7.2-6.1 10-9zm-7-730c1.7 0.6 1 0.2 2 1 0.8 1.1 0.6 0.9 1 3-2.1-0.4-1.9-0.2-3-1-1.7-0.6-1-0.2-2-1-0.8-1.1-0.6-0.9-1-3 2.1 0.4 1.9 0.2 3 1zm14 152c1.3 2.1 2.1 2.3 3 5 0.8 1 0.4 0.2 1 2-0.8 1-0.4 0.2-1 2-3.9-1-5.9-2.5-9-4 0.4-3.7 0.6-2.9 2-5h4zm14 109c1.8 2.3 5.5 4.5 8 6v2c-7.3-0.3-9.5-3.1-14-6v-2h6zm4 96c1.1 1.2 2.5 2.1 4 3v5c-4.7-0.9-5.8-2.9-9-5v-3h5zm-4 31v4c-1 0.3-2 0.7-3 1-0.3-1-0.7-2-1-3-1.1-1.9-0.3-1.2 0-4 2.3 0.7 2.2 1 4 2zm10 79c-0.3 1-0.7 2-1 3-4.3-0.5-6.7-1.4-8-5-0.9-1.9-0.4-0.7 0-3 5.1 0.8 5.7 2.8 9 5zm-7 166c-1.6-1.2-2-2.1-3-4l1-1c6.1 0 7.6 1 11 3v4c-4.2 0-6.8-0.2-9-2zm-3 39 1 1c-0.3 1-0.7 2-1 3-2.1-0.4-1.9-0.2-3-1-0.8-1.1-0.6-0.9-1-3h4zm-15 72c4.3 1.5 4.3 4.1 7 7-0.6 3.2-0.9 2.9-2 5-6.2-0.3-10.4-2.1-12-7-1.1-2.6 1.1-3.7 3-6 2.3 0.2 2.8 0.2 4 1z" fill-rule="evenodd"/>
	<path clip-rule="evenodd" d="m1393 953c2.3 0.3 4.7 0.7 7 1 0.5 2.6-0.2 8.6 1 12 1.5 4.2 4.5 3.4 5 10-8.9 6.7-13.2 15.9-29 16-1.6-2.4-2.9-2.9-4-6-2.4-3-2.3-9-1-13 4.8-15.1 11.5-11.3 21-20zm-5 15c0.8 4.1 0.8 7.1-2 10-1 0.8-0.2 0.4-2 1l-1-1c0-3.8 0.2-7.6 1-10h4z" fill-rule="evenodd"/>
	<path clip-rule="evenodd" d="m1339 973h5c1 5.3 2.6 7.3 6 10-0.6 1.8-0.2 1-1 2-2.7 6.7-7 4.8-7 16 1.5 0.5 1.7 0.7 4 1 2.1-3.4 3.4-4.8 9-5 1.2 2.3 1.6 2.3 2 6-6 5.9-8.8 11.9-21 12-3.7-6.6-0.5-9.3-3-16-1.3-3.4-3.5-2-4-8 5.4-4.2 6.6-11.8 10-18z" fill-rule="evenodd"/>
	<path clip-rule="evenodd" d="m1320 991c2.3 0.3 4.7 0.7 7 1 0.6 1.6 0.8 2.4 1 5 1.3 2.9-1.7 11.8-2 18 3.4 1.7 4.5 3.6 7 6-0.7 2-1.3 4-2 6-9.4 2.3-15.6 6.3-27 7-4.5-6.6-5.2-6.9-5-19-2.1-3-0.7-9.8 0-13 2.5-1.4 3.5-1.9 8-2 0.9 4 2.1 10.3 3 15 1.6 0.6 2.4 0.8 5 1 0.7-1.9 1-3.9 1-7-1.7-2.3-2.7-8.4-1-11 1.1-3.6 2.9-4.6 5-7z" fill-rule="evenodd"/>
	<path clip-rule="evenodd" d="m1241 1016h5l1 1c-0.1 3.5-0.3 8 1 10 2.3 1.5 8.1 1.1 12 1 3.2 5.1 3.2 13 3 22-1.1 1.4-1.5 2.9-2 5-1 0.3-2 0.7-3 1-2.1 1.2-2.2 0.5-5 0-0.7-3.7-1.9-12.3-5-14v2c-6 7.5-1.2 18.8-15 19-1.5-2.8-2-5-2-10 4.3-2.6 12.7-15.8 8-26-1.5-3.2-3.3-1.2-4-7 1.8-1.1 4.4-2.6 6-4z" fill-rule="evenodd"/>
	<path clip-rule="evenodd" d="m1281 1010h8c5.8 8.4 7.3 7.3 7 23-3.7 4.7-6 8.8-10 13-9.6 0.4-16.7-0.1-19-7-2.6-3.2-2.2-10.1-2-16l10-10c2.2-1.5 4.2-1.3 6-3zm4 12c0 6.4-0.9 8.4-3 12-2.8-0.1-4.3-0.4-6-1 0.1-7.8 2.3-8.3 6-12 1 0.3 2 0.7 3 1z" fill-rule="evenodd"/>
	<path clip-rule="evenodd" d="m1219 1024c4.8 2.4 10.7 7 11 14-2 1.2-3.3 2.6-5 4 0.1 9.9 11.3 24.8-9 25-2.2-3.5-3.1-5.4-3-12 5.4-7.4-1.3-12.9-2-20 3.3-2.6 5.3-7.8 8-11z" fill-rule="evenodd"/>
	<path clip-rule="evenodd" d="m1202 1030v5c-1.9 0.7-3.9 1-7 1-0.6-1.6-0.8-2.4-1-5 2-0.7 4.7-1 8-1z" fill-rule="evenodd"/>
	<path clip-rule="evenodd" d="m1195 1041h5c4 6.7 5.6 20.2 2 29-1.5 0.9-2.9 1.8-4 3-1.8-0.6-1-0.2-2-1-2.7-2.3-2.2-7.9-2-13 2.8-4.4-1-12.6-1-17 1.8-0.6 1-0.2 2-1z" fill-rule="evenodd"/>
	<path clip-rule="evenodd" d="m1181 1043c5.8 2.3 7.3 4.6 7 13-4.5 7.1-3.6 20.9-12 24-1.1 0.8-0.9 0.6-3 1-2.9-2.7-6.6-7.4-11-8-1.5 4.2-2.7 9.3-7 11-2.2 1.4-3.3 0.5-6 0-4.2-7.3-9.8-14.3-10-25 3.2-2.1 3.7-3.5 9-4 2.2 2.9 3.6 6.1 8 7 1.2-6.9 2.2-10.3 11-10 1 0.8 0.3 0.4 2 1 0.8 3.7 1.1 5.1 5 6 0.3-1 0.7-2 1-3 1-3.7 2-7.3 3-11 1.3-0.7 2.1-1.1 3-2z" fill-rule="evenodd"/>
	<path clip-rule="evenodd" d="m1105 1054h3c2.8 4.5 5.5 7.9 6 15-5 3.1-8 6.6-8 15 2.7 1.5 5.7 3.2 8 5-0.7 2-1.3 4-2 6-3.5 1.6-7.2 2.1-13 2-1.7-3.3-2.1-7.3-2-13 3-4.5-0.3-9.2 1-14 0.6-2.3 4.2-3.5 5-5 1.6-3.2 0.4-7.9 2-11z" fill-rule="evenodd"/>
	<path clip-rule="evenodd" d="m550 1074c4.8-0.1 9.5 0.3 13 1 1 1.8 1.3 1.7 2 4 0.8 1.2 0.8 1.7 1 4-6.5 6-13.9 13.8-14 26 2.7 1.4 4.2 2 9 2 1-0.8 0.3-0.4 2-1 3.3-6 9.9-12.8 12-19 2-5.9-2.5-9.5 3-12 3.2-2.4 6.4-1.1 11 0v2c0.8 1.2 0.8 1.7 1 4-9.7 9.7-14.1 28.9-28 34-9 3.3-20.6 0.9-23-6-5.9-8.9 5.3-19.7 7-25 1.2-3.8 0-9.2 1-12 1.3-0.7 2.1-1.1 3-2z" fill-rule="evenodd"/>
	<path clip-rule="evenodd" d="m682 1077c3.6 0 5.4 0.5 8 1 0.5 1.5 0.7 1.7 1 4l-6 6c-4.1-1.7-5.6-2.5-6-8 0.8-1 0.4-0.3 1-2 1.8-0.6 1-0.2 2-1z" fill-rule="evenodd"/>
	<path clip-rule="evenodd" d="m653 1080h8c1.2 2.3 1.6 2.3 2 6-6.9 4-18.7 18.9-21 27-1.1 3.9-0.1 9.1-1 12-5.9 2.9-8.9 1.7-13-2 4-11.2 8.7-22.7 10-33 6-2.2 11.5-5.4 15-10z" fill-rule="evenodd"/>
	<path clip-rule="evenodd" d="m762 1082h5c1.2 2.3 1.6 2.3 2 6-1 0.3-2 0.7-3 1-1.2 0.8-1.7 0.8-4 1-1.3-2.4-1.8-2.8-2-7 1.8-0.6 1-0.2 2-1z" fill-rule="evenodd"/>
	<path clip-rule="evenodd" d="m1079 1071c6.1 0 10.3 1.6 12 6 1.7 1.8 1.7 2.5 2 6-4.4 2.7-9 5.6-14 8 0.6 1.8 0.2 1 1 2 4 2.5 6.2-0.2 7 6-0.8 1-0.4 0.3-1 2-1.9 1.1-4.5 2.5-6 4-4.8 0.1-9.5-0.3-13-1-3.2-4.8-4.2-7.9-4-17 1.9-2 2.3-4.6 4-7 3-4.1 8-5.8 12-9zm3 7 2 2v2c-0.8 1-0.4 0.2-1 2-2.9 0-5.5 0-7-1l-1-1 4-4h3zm-40 21v4h2c3.3 1.9 7.5-1.1 11 1 0.9 1.3 0.9 2.5 1 5-5.3 3.9-5 7.9-15 8-1.4-1.3-1.8-1.4-4-2-4.9-9.4-2.9-17.5 0-28 5-3.2 7.3-5.9 16-6 1 0.8 0.3 0.4 2 1 1 1.8 1.3 1.7 2 4 1 1.4 1 3.3 1 6-1.7 1.7-2.9 3.7-4 6-4 0.3-8 0.7-12 1zm7-10 1 1c-1.2 2.8-0.1 1.9-3 3-1 0.8-0.2 0.4-2 1l-1-1c0.3-2.3 0.5-2.5 1-4h4z" fill-rule="evenodd"/>
	<path clip-rule="evenodd" d="m703 1091c5.9 0.1 8.2 2 12 3 5.5 1.5 13.5 0.1 18 1 2 3.2 3 4 3 10-6.5 7.5-6.8 22.2-20 20-0.6-1.8-0.2-1-1-2 1.6-6.9 5.5-9.8 6-18-2-0.7-4.7-1-8-1-2.3 3.7-6.4 7.6-8 12-1.7 4.6 0.1 6.3-3 9-2.9 2.5-8.1 2.5-11 0-1-1.4-1-3.3-1-6 8.5-5.3 9.8-12.7 9-25 1.5-0.9 2.9-1.8 4-3z" fill-rule="evenodd"/>
	<path clip-rule="evenodd" d="m1023 1091c4.6 1.8 5.8 2.7 7 8-4.2 2.6-14.2 7.1-16 12-2 3.1-1.3 13.3-2 17-2.7 1.2-3.8 1.8-8 2-1.3-2.4-1.8-2.8-2-7 6.1-8.9-2-15.5-3-23 7.2-3.8 18-4 24-9z" fill-rule="evenodd"/>
	<path clip-rule="evenodd" d="m593 1092c5.7 0.2 7.4 2.2 11 3 4.3-0.3 8.7-0.7 13-1 2 3.2 3 4 3 10-3.8 5.7-2.4 13.1-8 17-1.9 1.5-3.3 1.9-5 1-3.1-1-2.9-1-4-4-1.8-3.2 1.3-8.7 2-13-1.5-0.5-1.7-0.7-4-1-1 0.8-0.3 0.4-2 1-2.5 4.7-4.8 13-10 15-1.3 0.9-2.5 0.9-5 1-1.2-2.3-1.6-2.3-2-6 5-5.2 6.3-12.3 8-21 1.3-0.7 2.1-1.1 3-2z" fill-rule="evenodd"/>
	<path clip-rule="evenodd" d="m674 1095h8c0.7 1.3 1.1 2.1 2 3-1.5 6-6.7 8.8-9 14-1.7 4 0.3 9.5-2 14-1.3 2.6-5.1 3.7-9 4-2.7-2.8-3.7-2.2-4-8 6.4-6.5 9.1-19.2 14-27z" fill-rule="evenodd"/>
	<path clip-rule="evenodd" d="m752 1095c5-0.1 6.9 0.3 9 3 1.3 1.7 1.6 3.1 2 6-5.5 5.4-8.2 22.6-14 25-4.6 3.3-8.1-0.5-8-6 7.2-7.1 6.1-15.3 8-26 1.3-0.7 2.1-1.1 3-2z" fill-rule="evenodd"/>
	<path clip-rule="evenodd" d="m968 1099h6c0.9 1.5 1.8 2.9 3 4-0.5 1.3-1.2 3-2 4-3 2.5-5.7 1.4-7 6 4.4 2.7 12.6 16.6 7 25-2.3 7.6-8.1 10.1-13 15-5.7 0.6-12.8 2.1-17-1-4.2-1.4-4.2-3.3-4-9 2.1-2.2 1.7-3.7 5-5 1.1-0.8 0.9-0.6 3-1 3 3.6 4.7 6.5 11 7 2.5-4.3 3.1-8.4 3-16-5-3.3-8.5-9.2-9-17 2.1-2.5 3.3-6.1 6-8 2.5-1.8 5.7-2.1 8-4z" fill-rule="evenodd"/>
	<path clip-rule="evenodd" d="m997 1117h-4c-2.1 3-3 3.2-3 9-1.7 2.7-0.3 6.6 0 11-2.5 1.5-2.3 2.3-6 3-1.1-1.8-2.5-3.6-4-5 0.2-8.7-1.1-18 0-25 6.3-1.6 5-5.6 11-7 2.6 5.1 5.7 6.3 6 14z" fill-rule="evenodd"/>
	<path clip-rule="evenodd" d="m728 27c3.6 0 5.4 0.5 8 1 0.3 1 0.7 2 1 3 0.7 1.2 0.1 1 0 4-19.1 12.2-35.1 29.5-53 43l-23 23c-25.3 19.1-47.3 42.2-73 61-4.3 4.7-8.7 9.3-13 14-12.1 9.2-21.5 19.9-34 29-3 3.3-6 6.7-9 10-8.7 8.7-21.5 21.8-31 29-14.8 11.2-28.1 23.8-43 35-6.3 6.7-12.7 13.3-19 20-11 8.3-28.4 18.6-34 32-4.6 11.2-3.5 29.8-3 45 0.3 3.3 0.7 6.7 1 10-1 4.8 1.1 10.7 0 16-2.1 10.3-1.7 29-1 38 1.4 16.5-1.2 32.5 0 48 1.5 18.7-1 42.6-1 72v29c1.7 10.8-3.4 42.3 0 64 1.7 10.6 1 41.8 1 62v27c1.1 5.1-1.6 12.8 0 20 2.2 9.8 1 24.5 1 36v18c3.3 14.9 1 36.2 1 53 0 43.4-3.7 88.1 0 127 8.8 5.6 17.8 13.5 27 19 4 1.3 8 2.7 12 4 4.1 1.9 8.4 6.1 13 8 4.3 1 8.7 2 13 3 8.7 4.3 21.6 10.9 31 14 14.9 4.9 31.6 3.6 47 8 4.1 1.2 8.7 5 13 6 2.3-0.3 4.7-0.7 7-1 12.3 0.3 24.7 0.7 37 1 7.7 1.7 18.2 2 26 0h40c20.1 0 48.3-2.5 68 3h18c2.2 0.6 4.8 3.3 7 4 7.9 2.4 15.2 0.4 23 3 11.4 3.7 24.8 10.7 36 14h12c6.7 1.9 16.2 7 23 9h14c12 2.6 23.7 2.3 33 0h28c16-4.6 33.4-11.7 48-17 2.7-0.3 5.3-0.7 8-1 2.6-1.2 4.7-4.6 7-6 5.8-3.5 12.8-3.2 19-6 7.1-3.2 16-10.3 23-13 6.5-2.5 12.9-1 19-4 5-2.5 11.7-7 16-8 29-6.5 61.3-7 88-16 12.2-4.1 29.3-0.7 39-4 6.2-2.1 14.2-6.9 20-9 11.9-4.2 23.6-3.7 34-9 10.1-5.1 21.6-13.3 32-18 6.4-2.9 11.8-3.7 18-7 6.3-3.4 12.1-10.2 18-14 4.8-3 12.4-2.2 17-5 11.7-7.2 24.7-16.4 37-23 3.3-1 6.7-2 10-3 2.3-1.4 4.4-4.8 7-6 13.8-6.3 26.8-8.9 41-15 14.8-6.4 30-16.5 46-22 7.6-2.6 13.2-1.2 20-4 8.4-3.5 17.3-9.5 26-12h10c14-3.9 30.1-9.4 45-13h48 34c3.4 1 7.3 4 11 5h21c6.8 1.7 15.6 3.5 23 5 1.8 2.8 3.2 2.8 4 7 0.1 0.9 0.4 2.2-1 4-1 0.8-0.3 0.4-2 1-7.1 4.4-17.1-1.7-22-3h-26c-6.5-1.8-29.1-5.6-38-4-8.5 1.5-16.7-5.1-28-2-7.2 2-21.8 4-29 6h-18c-7.8 2.1-18.7 6.8-26 9h-7c-8.8 2.4-19.7 6.7-28 10-3.7 0.7-7.3 1.3-11 2-4.5 1.9-10.3 6-15 8-4.1 1.7-8.3 1.1-12 3-3.4 1.7-6.7 5.7-10 7-3.8 1.5-6.1 0.2-9 2-8.5 5.2-19.8 12.1-29 16-5 2.1-11.4 1.3-16 4-4.2 2.4-8.9 6.5-13 9-5.3 2.3-10.7 4.7-16 7l-5 5c-12 5.8-24.2 8-35 15-17.8 11.6-39.8 24.5-60 33-22.3 9.3-45.6 12.3-70 20-11.6 3.7-24.3 9.8-37 13h-11c-10.4 2.4-14.5 1.1-25 4h-17c-3.6 1.1-6.2 4.9-10 6h-11c-5.2 1.6-14.1 5.5-19 7-8.7 2.7-14.3 1.8-22 5-22.9 9.6-47 24-70 33-3 0.3-6 0.7-9 1-3.5 1.2-8.2 4.8-12 6-4.3 0.3-8.7 0.7-13 1-2.4 0.8-5.6 4.2-8 5-6.8 2.2-21.6 0.2-27-1-2.9-0.6-6.7 0.7-8 1-8.5 1.9-20.3-0.6-26-2h-13c-13.8-3.9-31-9.2-45-13-10.9-2.9-17.6-1.9-28-5-7.5-2.2-14.4-7.8-23-10h-13c-5.2-1.2-13.3-2.8-18-4-13-0.3-26-0.7-39-1-6.5-1.7-10.2 0-19 0h-54-33c-17.2-3.9-38.4-4.1-54-8h-8c-7.3-2.3-18.7-5.9-26-8h-7c-3-1.1-6-4.7-9-6-4.1-1.8-7.7-1.2-12-3-4.6-1.9-10.3-6.2-15-8-9.2-3.6-17.4-4-25-9-1.7-2-3.3-4-5-6-2.6-1.7-4.7-0.7-8-2-8-3.1-19.4-9.4-24-16-7-9.9-1-24.8-1-36 0-9-2-13.5-2-23 0-17.6 2-30.5 2-49v-135c-1.2-4.9-2-11.6-2-19 0-15.9 0.5-31.4 0-45-0.3-8.1 0.7-21.6-1-25 1-13.9 0-31.5 0-48 0.3-5 0.7-10 1-15-3.1-15.5-1-41-1-61 0-7.8-0.6-20.9 1-24-0.8-11.9-4-31.7-1-45 0.9-4 2.1-31.9 1-37-2.9-13.1-3-58.9 0-72 1.4-6.1-1.1-11.3 0-16v-27c2.6-8.7 20.7-21.5 28-27 3-3.3 6-6.7 9-10 17.1-12.9 31-28.2 48-41 4.7-5.3 9.3-10.7 14-16 5.9-4.1 10.6-6.7 16-11 2-2.7 4-5.3 6-8 6.9-4.8 16-9.7 21-16 4.1-5.1 8.7-11.3 14-15 6.2-4.3 14.2-7.4 19-13 3.2-3.7 5.1-9.1 9-12 2.9-2.2 6.2-2.8 9-5 3.7-3 5.1-9 9-12 21-15.9 39.8-33.5 61-49 5.5-4 8.9-15.7 12-18 2.7-0.7 5.3-1.3 8-2 4-4.3 8-8.7 12-13 4-3.9 9.3-5.6 14-9 2.3-2.7 4.7-5.3 7-8 7.7-5.6 17.7-8.1 23-16zm576 1053c-7 2.4-15.7 3.7-23 7-3.4 1.5-6.4 5.6-10 7-10.6 4.3-22.6 3.8-32 7-5.6 1.9-11.7 7-17 9-1 0.4-6.5-1.2-10 0-1.9 0.6-4.9 3.4-7 4h-15c-22.7 6.3-49.1 8.1-71 15-4.3 0.3-8.7 0.7-13 1-8.7 3-18.9 9.8-27 13-4.6 1.8-8 0.9-12 3-2.8 1.5-5 5.8-8 7-5.8 2.2-10.4 0.3-15 3-9.5 5.5-21.3 12.9-32 17-4.7 0.7-9.3 1.3-14 2-4 1.2-8 4.8-12 6h-8c-2.9 0.8-7.3 3.2-10 4h-12c-5.6 1.5-12.8 5.5-18 7h-16c-33.7 7.4-76.6-6-101-15-9.3-3.4-18-1.9-28-5-8.1-2.5-18.6-6.6-27-9h-17c-5.6-1.6-14-5.3-20-7-4-1.1-36.4 1.9-41 3h-70c-1.4-0.4-4.7-2.6-6-3-9.3-0.3-18.7-0.7-28-1-1.3 0.3-5.2 1.8-8 1-14.7-4-40.9-7.7-59-13h-11c-1.9-0.6-4.9-3.3-7-4h-7c-5.1-1.8-12.7-6.9-18-9-14.4-5.6-26.4-7.1-40-13-9.7-4.2-21.1-12.8-31-16-1 1.8-1.3 1.7-2 4-5.8 9.3 3.1 18.8 1 29-2 9.6 1.7 24.3-1 35-2.7 11-3.1 27.7-3 43-3.1 2.1-2.9 3.5-8 4-3.2-5.1-3.2-13-3-22-1.5-2.3 1-17.1 1-28 0-25.9-3.1-58.5 2-81 3.2-2 4-3 10-3 12.7 17.3 40.5 20.9 63 29 4 1.4 7.9 6.3 12 8 3 0.3 6 0.7 9 1 14.2 4.3 31.1 10.6 46 15 7.7 0.3 15.3 0.7 23 1 2.3 0.7 5.7 3.3 8 4 7 0.3 14 0.7 21 1 1.5 0.4 5.3 2.6 7 3h28c9.4 2.3 25.6 2.3 35 0 17.1-4.2 36.4 3 49 0 16.8-4 34.7 2.2 49 1 8.3-0.7 24.3 5 35 8h10c8 2 16.9 6.8 24 9 7.2 2.3 12 0.7 20 3 5.9 1.7 13.7 7.2 20 9 5 0.3 10 0.7 15 1 10.5 2.9 26.8 6.7 38 4h27c4.3-1.2 8.4-4.8 13-6h8c1.2-0.4 5.3-2.6 7-3h14c5.2-1.4 11.3-5.2 16-7 4.7-1 9.3-2 14-3 32.4-14 63.7-31.5 99-43 5-0.7 10-1.3 15-2 6.4-2.1 17.9-6 24-8h20c5.1-1.4 13.8-3.7 19-5h11c2.2-0.6 5.1-3.3 7-4 8.2-3.1 19.5-4.8 27-7 9.2-2.7 16.3-1.5 25-5 5.4-2.2 10.3-6.5 15-9 4.8-2.5 8.6-1.9 14-4 14.4-5.6 28.2-15.2 41-23 5.1-3.1 11.7-2.8 17-6 45.8-27.9 94.2-54.1 140-82 3.3-2 7.1-1.4 11-3 9.5-4 20.8-11.4 31-15 8.4-2.9 15.3-1 24-4 5-1.7 11.5-6.4 17-8 8-2.4 10.1-0.2 14-1 10-2.1 22.8 2.5 30-3 34.7-0.9 64.3 3.8 86 10 12 3.4 31.1-2.5 32 12h-2c-9 6-46-3.2-55-6-13.7-0.3-27.3-0.7-41-1-26.2 0-50.3-4.4-72 3-12.7 4.3-26.4 11.1-38 16-3.3 0.7-6.7 1.3-10 2-7.9 4-17.9 11.5-26 15-4.3 0.7-8.7 1.3-13 2-2 2.3-4 4.7-6 7-3.5 2.4-7.4 2.6-11 5-3.1 2-5.8 6-9 8-7.7 4.8-17.3 5.8-25 11-7.4 4.9-15.2 12.4-23 17-10.6 6.3-22.5 8.5-33 15-3.9 2.4-8 6.6-12 9-4 1.3-8 2.7-12 4-9.2 5.5-17.2 11-28 16l1 1m-500 23c3.9 0.4 5.6 1 7 4 2.1 3.3-0.3 6.2-1 10 5.9 0.9 12.1 1.9 14 7 1.5 1.6 1.6 2 2 5-4 5.4-4.3 15.4-11 18-13.1 8.8-6.1-13.4-5-17-1.8-1-1.7-1.3-4-2-1.1 1.6-3 1.7-4 3-4.7 6.2-1.2 13.5-12 14-1.9-3.1-2.9-3.4-3-9 6.4-7.3 8.3-20.2 12-30 1.5-0.8 3.7-1.9 5-3zm-32 1c5.8 0.5 9.1 2.5 10 8 0.7 1.5 0.1 0.1 0 3-2 0.3-4 0.7-6 1-1.7-2-2.1-1.9-6-2-0.5 1.5-0.7 1.7-1 4 7.8 2.4 13 3.8 13 14h-1c-2.2 7.3-8 10.3-18 10-5-3.4-9.8-2.7-12-9-1-1.5-1-4.1-1-7 1.3-0.7 2.1-1.1 3-2 7.7 1.8 9.6 7.1 18 8 0.3-0.7 0.7-1.3 1-2-5.1-3.1-18.4-13.9-10-21 2.8-2.3 7.1-2.8 10-5zm116 12c4 0.7 6.6 1.4 8 5 7.5 8.4-3.5 20.1-5 26-1.4 5.5 2 8.9 1 14-2 0.7-4.7 1-8 1-4.1-2.6-8.7 0.7-13-2-2.9-0.9-3.5-1.8-5-4-2.9-3.4-3.9-11.2-1-15 4.1-12.1 17.7-8.3 21-16-2-1.7-1.9-2.1-2-6 1.5-0.9 2.9-1.8 4-3zm-41 9c3.1-0.1 6.3-0.1 8 1 4.4 1.3 5.9 3.3 6 9-5.4 5.9-5.5 8.4-18 8l-2 2v2c5.4 0.9 9.5 1.7 10 8-1.8 1-1.7 1.3-4 2-2.2 1.7-6.9 2.3-10 0-4.9-1.4-9.5-4.9-10-11-4.1-7.6 8.4-18.1 14-20 2.3-0.8 4.5-0.1 6-1zm5 6 2 2c-0.6 1.7-0.2 1-1 2-1 0.8-0.2 0.4-2 1-2.2-2.1-3.7-1.7-5-5h6zm27 16c-1 0.8-0.2 0.4-2 1l-1-1c0.2-4.2 0.8-5.3 2-8 1.5-0.5 1.7-0.7 4-1-0.2 4.2-0.9 6.8-3 9z" fill-rule="evenodd"/>
</svg>
