<?xml version="1.0" encoding="utf-8" standalone="no"?>
<!-- Generator: Adobe Illustrator 22.1.0, SVG Export Plug-In . SVG Version: 6.00 Build 0)  -->

<svg
   xmlns:dc="http://purl.org/dc/elements/1.1/"
   xmlns:cc="http://creativecommons.org/ns#"
   xmlns:rdf="http://www.w3.org/1999/02/22-rdf-syntax-ns#"
   xmlns:svg="http://www.w3.org/2000/svg"
   xmlns="http://www.w3.org/2000/svg"
   xmlns:sodipodi="http://sodipodi.sourceforge.net/DTD/sodipodi-0.dtd"
   xmlns:inkscape="http://www.inkscape.org/namespaces/inkscape"
   version="1.1"
   id="Layer_1"
   x="0px"
   y="0px"
   viewBox="0 0 2000 1439"
   style="enable-background:new 0 0 2000 1439;"
   xml:space="preserve"
   sodipodi:docname="chapter-1-5-crimescene.svg"
   inkscape:version="0.92.2 5c3e80d, 2017-08-06"><title
     id="title181">Illustration of the crime scene.</title><metadata
     id="metadata175"><rdf:RDF><cc:Work
         rdf:about=""><dc:format>image/svg+xml</dc:format><dc:type
           rdf:resource="http://purl.org/dc/dcmitype/StillImage" /><dc:title>Illustration of the crime scene.</dc:title></cc:Work></rdf:RDF></metadata><defs
     id="defs173" /><sodipodi:namedview
     pagecolor="#ffffff"
     bordercolor="#666666"
     borderopacity="1"
     objecttolerance="10"
     gridtolerance="10"
     guidetolerance="10"
     inkscape:pageopacity="0"
     inkscape:pageshadow="2"
     inkscape:window-width="640"
     inkscape:window-height="480"
     id="namedview171"
     showgrid="false"
     inkscape:zoom="0.144"
     inkscape:cx="1000"
     inkscape:cy="719.5"
     inkscape:window-x="0"
     inkscape:window-y="0"
     inkscape:window-maximized="0"
     inkscape:current-layer="Layer_1" /><style
     type="text/css"
     id="style2">
	.st0{fill-rule:evenodd;clip-rule:evenodd;}
</style><path
     class="st0"
     d="M454.5,121c6.1,0.5,12.3,2.9,14,8c1.5,2.7,0,7.1,1,11c1.9,7.6,5.8,16.9,8,24c0.3,3.3,0.7,6.7,1,10  c1.7,5.5,6.2,13.1,8,18c2.7,7.5,0.8,12.9,3,21c3.1,11.7,8.8,26.6,13,38c1.7,4.7,3,10.3,4,14c0,3.7,0,7.3,0,11c1.8,6.3,6.4,14.6,9,20  c1,7.3,2,14.7,3,22c0.9,2.8,4.1,5.4,5,8c2.5,6.8-0.7,8.5,8,9c16-16.8,36.1-30,55-44c3.7-2.8,6.1-7.3,9-11c5.2-6.8,13.8-11,21-16  c6-6.3,12-12.7,18-19c5.4-5.4,11.7-8.3,18-13c3.9-2.9,6-8,9-12c3.1-4.1,7.7-5,12-8c4-4.7,8-9.3,12-14c3.5-2.6,7.6-3.4,11-6  c3.7-4,7.3-8,11-12c4-2.7,8.3-3.3,12-6c5-5,10-10,15-15c6.7-5,13.4-9,19-15c4.7-0.2,8.5,0,11,2c0.7,0.7,1.3,1.3,2,2  c-0.6,1.8-0.2,1-1,2c-2.2,2.5-5.1,2.1-8,4c-6.3,4.1-10.9,11.9-17,16c-3.1,2.1-6.9,1.9-10,4c-18.7,18.7-37.3,37.3-56,56  c-6.5,4.5-12.6,7.3-19,12c-1,1.7-2,3.3-3,5c-1.6,1.8-4.2,2.4-6,4c-5,5.3-10,10.7-15,16c-15.9,11.5-30.9,23.6-45,37  c-11.1,10.5-21.5,19.6-34,29c-2,1.5-2.4,3.9-4,6c-1.2,1.5-17.7,14.6-19,15c-3-0.7-6-1.3-9-2c-8.1-13-9.6-28.8-16-44  c-5.8-13.7-13.4-30.3-17-45c0-4.3,0-8.7,0-13c-1.4-5.2-5.4-12.9-7-18c-0.3-5-0.7-10-1-15c-4.9-13.2-10.7-30.1-15-45  c-0.7-5.7-1.3-11.3-2-17c-3.5-9.8-10.5-19.6-11-32C452.8,122.3,453.6,121.9,454.5,121z"
     id="path4" /><path
     class="st0"
     d="M1122.5,248c5.3,0.7,14.1,5.1,16,9c1.3,2.7-0.5,5.8,1,8c1.7,2.5,5.4,2.3,8,4c2.7,2.7,5.3,5.3,8,8  c0.4,9.1-2,12.2-11,12c-3-3-6-6-9-9c-0.3-2.3-0.7-4.7-1-7c-3.3-1-6.7-2-10-3c-3-1.9-4.5-6.4-7-9c0.3-3.3,0.7-6.7,1-10  C1120,250.1,1121.4,249.2,1122.5,248z"
     id="path6" /><path
     class="st0"
     d="M1201.5,287c-4.8,0.1-9.5-0.3-13-1c-0.6-1.6-0.8-2.4-1-5c-0.8-1.1-0.7-1.7-1-5c-8.1,0.8-7.3,5.4-16,6  c-1-3.3-1.9-4.1-2-9c8.8-4.6,14.7-7.8,19-17c2-0.3,4-0.7,6-1c2.2,2.1,3.7,1.7,5,5c3.2,4.3,0.5,9.8,0,18c0.7,0,1.3,0,2,0  c3.1,2,9.8,0.2,15,0c2.2,3.5,3.7,4,4,10c-8.2,5.5-13.3,16.3-25,18c-1-0.8-0.3-0.4-2-1c-0.7-2-1-4.7-1-8c2.7-1.6,7.5-4,9-7  C1201.3,288.9,1201.1,289.1,1201.5,287z"
     id="path8" /><path
     class="st0"
     d="M423.5,259c1.7,0.3,3.3,0.7,5,1c0.6,4.6-0.5,9.9,3,12c3.1-3.2,7-5.7,10-9c6.4-0.4,9.2,0.5,15,2  c4.2,6.3,8.7,10.4,9,21c-4.6,4.5-5.2,7.1-15,7c-1.7-2.7-2.5-2.5-3-7c3-1.9,5.8-4.4,7-8c-2.2-1.2-4.5-4.3-9-3c-2.5,0.7-4.7,4.9-7,6  c-12.7,6.2-19.3-6.2-20-16C420.2,263.2,421.9,260.8,423.5,259z"
     id="path10" /><path
     class="st0"
     d="M432.5,288c2,0.3,4,0.7,6,1c1.1,5.2,3.1,10.4,8,12c5.2,4.6,13.3,3,23,5c2.2,3.3,7.2,10.8,0,13  c-5.1,1.6-13.8-3.9-18-5c-5,0-10,0-15,0c-4.3-6.8-8.8-11.6-9-23C429,290.2,431.2,289.1,432.5,288z"
     id="path12" /><path
     class="st0"
     d="M1181.5,304c6.9,2.5,13,4.4,13,14c-2.1,1.1-1.8,1.4-5,2c0,0.3,0,0.7,0,1c-0.3-0.3-0.7-0.7-1-1  c-6.1-1.5-10-6.2-10-14C1179.8,305.3,1180.6,304.9,1181.5,304z"
     id="path14" /><path
     class="st0"
     d="M1165.5,305c1.7,0,3.3,0,5,0c2.9,5,6.4,8.6,7,16c-0.8,1-0.4,0.3-1,2c-0.7,0-1.3,0-2,0c-2.3,1.5-4.3,0.6-7,0  c-2.6-4.7-8-10.7-4-16C1164.2,306.3,1164.8,305.7,1165.5,305z"
     id="path16" /><path
     class="st0"
     d="M1211.5,351c-0.4-9.5-1.2-22.9,1-34c16.2-9.8,10.7,11.6,12,22c1.7,0,3.3,0,5,0c2.6-2.4,4.3-1.8,8-1  c1.4,2.5,1.9,3.5,2,8C1229.6,352.4,1226.4,351.6,1211.5,351z"
     id="path18" /><path
     class="st0"
     d="M1186.5,325c9.5,0,14.4,4.7,14,15c-0.8,1-0.4,0.3-1,2c-0.7,0-1.3,0-2,0c-2.5,1.7-5.3,0.6-8,0  C1186.2,336.8,1182.9,331.8,1186.5,325z"
     id="path20" /><path
     class="st0"
     d="M450.5,364c-0.1-5.2-1.4-6.7-3-10c0.7-0.3,1.3-0.7,2-1c1.7-1.3,3.1-1.6,6-2c8.2,6,18.8,7.7,30,8  c1.4,2.5,1.9,3.5,2,8c-0.8,1-0.4,0.3-1,2c-3.3,0.8-3.9,1.6-8,2C472.5,366.2,460.6,364,450.5,364z"
     id="path22" /><path
     class="st0"
     d="M1208.5,353c3,0.7,6,1.3,9,2c2.5,2.3,2.7,7.5,6,9c3.3,0,6.7,0,10,0c5.6,2.1,10,8.8,10,17c-2.5,1.4-3.5,1.9-8,2  c-1.9-2-13-11.4-15-12c-2.3,0.3-4.7,0.7-7,1c-5.6-1.8-8.2-8.3-9-15C1205.8,355.7,1207.2,354.3,1208.5,353z"
     id="path24" /><path
     class="st0"
     d="M437.5,355c2.3,0,4.7,0,7,0c0.9,3.2,4.1,7.4,3,9c-3.9,3.3-9.4,4.1-15,3c0-1.7,0-3.3,0-5  C434.6,360.3,436.1,357.4,437.5,355z"
     id="path26" /><path
     class="st0"
     d="M1368.5,393c-6.7,0.6-13.7,7-17,1c-1.4-2.2-1.5-9.3-2-12c-1,0-2,0-3,0c-2.9,5-5,9.8-13,10c-0.5-1.5-0.7-1.7-1-4  c7-8,6-25,21-25c1.7,2,3.3,4,5,6c3.3,9-3.2,13.8,9,14c3.8-3,12.9-2.1,18-1c1.2,2.3,1.6,2.3,2,6c-5.4,6.8-7.6,21.5-19,22  c-3-3.1-4.7-2.7-5-9C1366.7,399.1,1368.1,397.9,1368.5,393z"
     id="path28" /><path
     class="st0"
     d="M1252.5,370c8.4,0.6,16.1,3.4,16,13c-5.7,3.6-16.2,4.4-19-3c-1.8-2.6-0.6-6.2,0-9  C1251.6,370.6,1251.4,370.8,1252.5,370z"
     id="path30" /><path
     class="st0"
     d="M451.5,376c10.2,0,9.7,6,17,8c10.7,2.9,20.6-13.3,24,6c0.6,1,0.1,1.9,0,5c-2.1,1.3-2.3,2.1-5,3  c-4.3,2.7-14.6-1.9-19-3c-4.3,0.3-8.7,0.7-13,1l-17-11c0-1.7,0-3.3,0-5c2.9-1.6,5.7-2.1,11-2C450.2,377.3,450.8,376.7,451.5,376z"
     id="path32" /><path
     class="st0"
     d="M1282.5,382c7.8,0.6,16.7,3.7,18,11c-1.4,1.3-6.3,4.5-7,6c-3.9,8,4,11.7-8,12c-4.3-3.3-9.9-3.3-12-9  C1271.1,397.6,1279.4,385.2,1282.5,382z"
     id="path34" /><path
     class="st0"
     d="M1333.5,399c8.2-0.3,13.4,1.6,14,9c0.9,1.3,0.9,2.5,1,5c-3.1,1.9-3.4,2.9-9,3c-4.3-5.9-10-6-8-16  C1333.3,399.4,1332.5,399.8,1333.5,399z"
     id="path36" /><path
     class="st0"
     d="M1321.5,412c3.8,0,6.3,0.4,9,1c1.8,3.8,3.5,5.7,4,11c-0.7,0.8-1.3,2.2-2,3c-1.7,1.1-4.9,1.1-8,1  c-3.3-4.6-7.9-4.9-9-12c0.8-1,0.4-0.3,1-2c0.7,0,1.3,0,2,0C1319.3,413.3,1320.7,412.7,1321.5,412z"
     id="path38" /><path
     class="st0"
     d="M1362.5,413c2.3,0.2,2.8,0.2,4,1c6.4,1.8,10.8,6.8,11,15c-3.3,2.2-3.2,3.7-9,4c-1-0.8-2.7-1.4-4-2  c-3.1-4.7-5.8-6.9-6-15C1360,415.1,1361.4,414.2,1362.5,413z"
     id="path40" /><path
     class="st0"
     d="M1345.5,425c6.2,0.3,13.3,4.1,15,9c3.1,4.7-1.7,7.6-4,10c-4.6-1.1-6.3-2.7-12-3c-1.2,3.9-3.5,6.2-8,7  c-5.2-5.2-8.2-5.7-8-17c0.7,0,1.3,0,2,0c2.6-1.5,5.2,0.4,9,1C1341.5,429.7,1343.5,427.3,1345.5,425z"
     id="path42" /><path
     class="st0"
     d="M1388.5,441c2.7,0,4.6,0,6,1c6,1.7,10.8,7.3,11,15c-3.1,1.9-3.4,2.9-9,3c-1-0.8-0.3-0.4-2-1  C1390.6,453.5,1384.4,448.9,1388.5,441z"
     id="path44" /><path
     class="st0"
     d="M1375.5,448c6.4,2.1,14.1,6.3,14,18c-2.7,1.7-2.5,2.5-7,3c-5.2-5.2-10.6-6.6-11-17c0.8-1,0.4-0.3,1-2  C1373.8,449.3,1374.6,448.9,1375.5,448z"
     id="path46" /><path
     class="st0"
     d="M1401.5,504c0.1,4.3-0.4,7.9-1,11c-1.7,0.6-3.2,0.9-6,1c-4.4-7.1-3.1-22.4-3-34c0.8-1,0.4-0.3,1-2  c1.6-0.6,2.4-0.8,5-1c5.8,9,9.8,0.9,19,0c0.7,0.7,1.3,1.3,2,2c-0.6,1.8-0.2,1-1,2c-2.1,5.2-6.7,5.3-8,12c4,3.7,7.1,8.2,11,12  c-0.3,2.3-0.7,4.7-1,7c-2,0-4,0-6,0C1411,509.7,1407.8,504.7,1401.5,504z"
     id="path48" /><path
     class="st0"
     d="M669.5,549c5.8-0.2,9.2,0.2,11,4c1.2,1.8,1.1,5.7,1,9c-3.7,2.1-8.9,5.3-13,7c-8,3.2-18.3,0.7-22,8  c-2.1,2.9-1.3,3.5-1,8c3.4,2.2,4.9,4.2,10,5c2.2-1.5,28.1-9.8,31-10c4,4,6.4,4.9,5,12c-7.5,4.5-38.7,11.2-46,6  c-11.2-3.6-13-18.9-10-31c3.7-2.3,6.9-6.2,11-8C654,555.6,663.8,554.3,669.5,549z"
     id="path50" /><path
     class="st0"
     d="M329.5,112c2,0,4,0,6,0c1.7,2,3.3,4,5,6c1.9,4.9,0.2,8.8,2,13c1.3,3.1,4.8,6.9,6,10c0.3,3.3,0.7,6.7,1,10  c1.6,4.4,5.6,10.4,7,15c0,3.7,0,7.3,0,11c0.8,2.2,4.2,4.7,5,7c0,2,0,4,0,6c0.7,2.1,3.3,5.1,4,7c0.3,3.7,0.7,7.3,1,11  c4.5,11.9,12.3,24.5,16,37c0,4.7,0,9.3,0,14c2.7,5.7,5.3,11.3,8,17c0.3,4.7,0.7,9.3,1,14c1.7,5.8,6.1,12.4,8,18c1,6,2,12,3,18  c1,2.6,4.1,5.2,5,8c3.1,9.6,1.7,16.9,4,23c0.9,2.4,4,4.8,5,7c0.7,5,1.3,10,2,15c2.4,8.1,7.7,18.1,10,26c0,139,0,278,0,417  c0,12.8-0.6,28.3,2,38c2.3,8.8-0.9,21.3,1,29c-0.3,8.7-0.7,17.3-1,26c2.1,9.5,1,23.8,1,35c0,21.4,0.3,44.4,0,63  c-0.4,19.9,4.2,62.2-9,67c-3.4,3.1-8.1,1.3-14,1c-3.5-4.8-6.7-3.9-12-7c-2.7-2.7-5.3-5.3-8-8c-8.4-5.7-18.4-7.4-27-13  c-17.7-11.6-37.9-21.8-56-33c-13.7-8.5-29.9-12.8-43-22c-9.9-6.9-40.6-17.2-41-31c2.9-1.6,5.7-2.1,11-2c9.8,7.8,21.2,11.9,32,19  c20.6,13.5,43.3,25.3,65,38c10.5,6.1,23.1,6.5,33,13c11.9,7.8,37.3,28.6,53,30c1.6-2.9,2.1-5.7,2-11c4.9-7.9-1.2-32.9,1-44  c2.4-12.2-1.2-41.2,0-64c1.8-34.5,0.8-82.4-2-117c-0.4-4.8,2.8-25.4,0-38c-1.3-6.1-2.6-19.4-1-27c1.4-6.5,1.6-23,0-30  c0-5.7,0-11.3,0-17c0-14.6,0.6-32.5-2-44c-1-4.4,2-9,2-15c0-8.7-0.7-18.1-2-24c-1-4.3,2.4-9.4,3-13c0.5-3.4-3.3-8.7-4-11  c-3.4-10.7,1.1-35.2,3-42c2.4-8.7-0.7-23.2-2-29c-1.3-5.6,2.9-15.2,3-22c0.5-23.6,3.3-47-1-65c-2.4-10,3.8-17.7,3-25  c-1.3-11.1-7.3-21.5-10-31c-0.3-4.3-0.7-8.7-1-13c-0.9-1.8-4.3-3.7-5-6c0.3-2.7,0.7-5.3,1-8c-1.3-6.8-5.3-14.6-7-21c0-3,0-6,0-9  c-1.3-4.4-5.6-8.1-7-12c0-2.7,0-5.3,0-8c-1.1-3.7-4.8-6.7-6-10c0-2,0-4,0-6c-2.2-7.1-6.4-16.9-9-24c-0.3-3-0.7-6-1-9  c-2.6-7.3-7.5-17.6-10-26c-3.8-12.4-2.6-23.6-7-35c-3-7.9-8.7-17-12-25c-1.9-4.5-0.2-8.7-2-14c-0.8-2.4-4.2-5.6-5-8c0-2.7,0-5.3,0-8  c-0.6-2.2-3.3-5.1-4-7c0-2,0-4,0-6c-2.4-8-7.8-15.6-9-24C326.2,115.3,327.8,113.7,329.5,112z M463.5,400c6.9,2.3,26.3,3.2,29,10  c1.7,2.5,0.6,5.3,0,8c-3.1,0.9-3,1.6-7,2c-4.4,2.1-10.2-3.3-16-4c-0.3,0.3-0.7,0.7-1,1c0.3,0.3,0.7,0.7,1,1c2.8,3.9,9.7,9,14,11  c9.1,4.1,14.7-1.2,15,12c-2.8,1.5-5,2-10,2c-2.9-2.1-6.1-1.2-10-3c-1.3-1.3-2.7-2.7-4-4c-3.3-0.3-6.7-0.7-10-1  c-7.4-4.7-9.3-23.6-6-32C460,402.2,462.2,401.1,463.5,400z M472.5,439c13.1,5.6,10.7,19.6,17,23c0-0.7,0-1.3,0-2  c2.4-3.3,1.4-5.4,4-9c1.8,0.6,1,0.2,2,1c4.9,1.6,6.2,5.2,6,12c-3.3,3.4-6.7,6.6-10,10c-5,0.3-5,0.3-10,0c-2.8-3.6-7.3-5.2-11-8  c-3.5-2.7-4.9-7.8-8-11c-0.3-6.7-0.4-5.6,1-12C466,441.9,470.3,440.7,472.5,439z M471.5,455c0-0.7,0-1.3,0-2c0.3-0.3,0.7-0.7,1-1  c1,0,2,0,3,0c0.3,1.7,0.7,3.3,1,5C473.3,456.4,473.6,456.1,471.5,455z M484.5,556c0.3,3.3,0.7,6.7,1,10c1.3,0,2.7,0,4,0  c2-1.9,3.8-2,8-2c0,0.7,0,1.3,0,2c1.9,2.8,0.7,8,0,11c-3.3,2-4.7,3.6-10,4c-3.9-3-9.7-3.3-14-6c-3.9-2.5-5.8-6.8-9-10  c-0.5-5-1.8-8.5,1-12c1-0.8,0.3-0.4,2-1c6.4-4.1,12.5,3.2,16,2c2.2-2.3,3.4-5.1,4-9c-2.3-1.2-2.3-1.6-6-2c-2.3,1.8-9,3.1-12,1  c-5.6-1.7-7.3-5.2-7-13c1.7-1.7,1.5-2.8,4-4c1.3-0.9,2.5-0.9,5-1c5.8,8.2,22.9,2,27,12c1.8,2.5,2.6,7.3,3,11c-4.1,5.5-2.6,8.3-13,8  C487.3,556.2,486.8,556.2,484.5,556z M473.5,559c0.7,0.7,1.3,1.3,2,2c0,0.7,0,1.3,0,2c-3.2-0.6-2.9-0.9-5-2c0-0.7,0-1.3,0-2  C471.5,559,472.5,559,473.5,559z"
     id="path52" /><path
     class="st0"
     d="M684.5,634c-9.3,0.5-17.5,6.2-23,2c-1.6-1.8-3.1-5.2-1-8c1.9-2.6,7.6-1.7,11-3c3.5-1.3,11.5-2.7,15-5  c4.1-2.7,2.4-5.7,10-6c8.4,12.4,5.3,13.3,3,30c1.5,0.5,1.7,0.7,4,1c2-3.5,2.4-4.8,8-5c3.8,3.4,5.9,2.3,6,10c-5.2,5.7-6,7.4-18,7  c-4.9,4-11.9,7.6-20,8c-2.7-2.8-4.2-2.9-5-8C679.2,652.6,684,642,684.5,634z"
     id="path54" /><path
     class="st0"
     d="M478.5,651c-0.4-2.1-0.2-1.9-1-3c-6.1-6.1-15.7-6.8-16-19c2.5-1.4,3.5-1.9,8-2c5.4,7.6,20.8,8.6,24,15  c2.2,3.4,0.9,21.3,0,25c-2.5,1.4-3.5,1.9-8,2c-4.8-4.4-20.6-6.3-23-11c-1-1.4-1-3.3-1-6c1.7-1.7,1.5-2.8,4-4  C469.5,645.6,473.8,650.1,478.5,651z"
     id="path56" /><path
     class="st0"
     d="M1467.5,619c-0.8,1.9-1.4,2.7-2,5c1.3,0,2.7,0,4,0c0.6-2.4,1.1-3.1,2-5C1470.2,619,1468.8,619,1467.5,619z   M1259.5,343c15.6,0.2,34.7,3.6,53,2c13.1-1.2,25-2.8,36,0c5.2,1.3,14.4-0.2,18-1c4,0.3,8,0.7,12,1c13.3,0.3,29-2.5,39,0  c10.2,2.6,17.1-4.5,28-2c14.1,3.2,35.9-0.5,52,1c2.9,4.3,7.4,7.4,9,13c0,10,0,20,0,30c0,26.5-2,50.6-2,75c0,6.6,1,11.8,2,16  c0,16.3,0,32.7,0,49c0,7,0,14,0,21c-4.5,18.7-2,46.9-2,69c0,38.7-2.1,77.6,0,114c1.7,29.9-4.3,66.6,2,93c2.6,10.9-0.5,25.3-7,28  c-5.6,4.9-26.4,2-36,2c-29.3,0-58.7,0-88,0c-9.4,0-27.2,2.4-33-2c-4.9-5.2-4.1-21.2-4-31c3.1-1.9,3.4-2.9,9-3c1,0.8,0.3,0.4,2,1  c1.2,7.3,3,8.5,12,8c6.3,4,32.2-1.7,40,0c4.8,1,7.5,6.5,12,8c3.8,1.2,11.9,1.9,15,0c5.8-2.2,8.1-8.2,15-10c3.9-1,21.4,1,28,1  c0.9-1.5,1.8-2.9,3-4c-0.7-15.7-1.3-31.3-2-47c-1.9-6.5-6.7-6.3-7-16c2.5-3.1,2.6-5.5,7-7c2.1-1.6,6.7-1.5,9-3  c2.2-3.3,1.1-12.9,1-18c1.2-1.8,1.1-5.7,1-9c-5.4-3.2-13.2-4.3-20-7c-1.9-4.1-1.5-5.5-1-11c7.4-4.2,9.5-6.5,9-19  c-1.2-1.8-1.1-5.7-1-9c-0.3-0.3-0.7-0.7-1-1c-8.7,0.3-17.3,0.8-21-4c-3.6-5.1,1.3-12.7-1-21c-1.3-2.7-2.7-5.3-4-8  c-8.3-0.9-21.4-4.6-32-2c-5.7,1.4-10.9,6.5-16,3c-3.7-5.7,1-17.4,0-24c-0.7,0-1.3,0-2,0c-11.6-7-48.2,5.7-53-7c-2.7-3.4-2.4-9-2-13  c2.5-1.4,3.5-1.9,8-2c6.1,6.1,23,4,35,4c33,0,62.3-1.8,89-2c0.3-1,0.7-2,1-3c3.6-5.8-0.2-19.2,1-27c1.9-12.8-0.3-30.4-3-41  c-1.8-6.9,2-12.2,1-18c-1-0.3-2-0.7-3-1c-4-3.1-22.9-5.3-29-2c-4.3,2.3-3.6,5.4-11,6c-0.3-1-0.7-2-1-3c-3.6-5.6-2.2-24.9-1-30  c10.6-6,22.5-3.1,37-1c1.6,0.2,4.1,1.7,7,1c2.9-0.7,7.3-3.3,10-4c4.8-1.3,7.2,0.9,10-2c7-9.2-2.6-25.3-1-33c0.3-1.4,2.6-5.4,3-7  c1.4-6.1-0.9-18.3-2-23c-1.5-6.1,1.1-12.4,2-16c-0.3-12-0.7-24-1-36c-1.9-0.7-3.9-1-7-1c-1.9,1.1-7.6-1.6-14,0  c-15.5,3.9-36.8-0.4-57,0c-24,0.5-67.1-0.9-93-1c-22.1-0.1-48.8,2.9-69-1c-1.3-2.8-1.9-4.4-2-9c1-0.3,2-0.7,3-1  C1253.5,344.6,1257.5,344.4,1259.5,343z M1139.5,345c13.9-0.2,24.9-1.1,38,2c1.3,2.8,1.9,4.4,2,9c-13.5,7.9-27.8,3.5-45,3  c-1.7,3.3-2.1,7.3-2,13c5.8,7.4-0.1,14.4,1,21c4.2,24.1,1.5,58.2,1,84c22.1,5.5,55.3,2,81,2c61.9,0,110-4.8,166-1c1.3,1.8,2,1.7,3,4  c4.7,5.7,3.6,29.4-2,32c-2,0-4,0-6,0c-2.1-3.8-2.8-5-9-5c-9.8,6.8-20.6-3.5-35,0c-15.7,3.8-45.8,2-70,2c-36,0-72,0-108,0  c-1.9,3.1-2.9,3.4-3,9c5.8,7.3,0.2,16.3,0,27c-0.2,17-0.8,31.1-1,52c1.8,1.3,1.7,2,4,3c6.5,4.9,19.1-0.4,27,1c19,3.5,44.2,1,65,1  c9.3,0,18.7,0,28,0c6.2-1.9,6.1-8.5,13-10c1,0.8,0.3,0.4,2,1c2.2,8.3,2.1,11.5,0,20c-1.8,1.1-3.6,2.5-5,4c-45.3,0-93.6,1.2-132,1  c-0.3,0.3-0.7,0.7-1,1c-1.8,15.8-1,35.6-1,53c0,11-0.9,24.7,1,34c0.6,2.9-0.7,6.6-1,8c0,11.3,0,22.7,0,34c0,26,1,47.5,1,74  c0.7,0.3,1.3,0.7,2,1c4.4,3.3,26.4,3,36,3c29.9,0,61.7-0.6,90-1c2.1-6.7,1.8-11,11-11c0.3,0.7,0.7,1.3,1,2c4.6,5.8,0.8,27.8-1,35  c-1.8,1.1-3.6,2.5-5,4c-13.7,0.3-27.3,0.7-41,1c-9.2-2.1-23.5-3.7-35-2c-12.9,1.9-35.2,2.7-48,0c-11.9-2.5-25.5,5.1-36-3  c-3.3-2.5-2.1-12.3-2-18c-4.6-7.6,1.4-23.4-1-33c-0.8-3.3-3.2-8.4-2-14c0.3-1.3,1.6-5.1,1-8c-1-4.7-4-12.4-2-20c0.5-1.8,2-3,2-6  c0-3-1.5-4.2-2-6c0-20,0-40,0-60c0-127.5,0.1-215.4,0-333C1125.1,351.9,1134.4,349.2,1139.5,345z M1326.5,583c2.8,0.3,4.4,0.7,6,2  c1,1.4,1,3.3,1,6c-3.6,1.8-9.4,2.9-11,7c-2.3,3.5-0.9,16.2-1,19c-2.9,1.6-5.7,2.1-11,2c-4.1-6.4-3.3-11-3-21c-4.4-2.3-7.8-3.1-8-10  c0.8-1,0.4-0.3,1-2C1304.3,585.1,1323.5,584.9,1326.5,583z M1270.5,625c7,0,14,0,21,0c15.1,2.7,54.1-5.1,72,2  c6.8,11.1,6.7,41.8-5,46c-3.2,2.4-12.9,3-19,2c-17.1-2.7-44.8,0.1-68,0c-4.2-7-9.2-36.9-4-45C1268.4,627.3,1269.2,627.1,1270.5,625z   M1294.5,637c1,0.3,2,0.7,3,1c1.3,6.4,0.8,15.6,0,22c-3.5,0.9-9.2,3.6-13,1c-2.3-0.7-2.2-1-4-2c-1.4-6.8-1.5-17.6,1-23  C1285.6,635.9,1292,635.4,1294.5,637z M1319.5,636c0.3,1,0.7,2,1,3c0.8,1,0.4,0.2,1,2c-1.2,1.1-2.1,2.5-3,4c-2.3-0.2-2.8-0.2-4-1  c-2.6-1.2-3.1-2-4-5c0.9-0.9,1.3-1.7,2-3C1314.8,636,1317.2,636,1319.5,636z M1352.5,638c2.5,6,2,15.7,1,23c-0.3,0.3-0.7,0.7-1,1  c-7.9,0.1-9.7-1.2-14-4c-0.9-3.3-3.6-8.3-1-12c-0.1-6.8,1-6.8,4-10C1346.7,636,1349.3,636.6,1352.5,638z M1406.5,677  c0-10.5,4.4-11.4,5-21c-2.7-2.5-4.6-5.1-5-10c0.7,0,1.3,0,2,0c7.9-5.3,24.3,1.4,30,3c2.1,4.4,3.1,7.7,3,15c-2.6,2.8-3.5,7-6,10  c-1.4,1.7-4.4,2.4-6,4C1421.6,678.1,1413,677.8,1406.5,677z M1320.5,655c0.3,0.7,0.7,1.3,1,2c0.8,0.6,0.3,0,0,1c-0.7,2.3-1,2.2-2,4  c-4.5-0.1-4.7,0.4-6-3c-1-2.3-0.2-1.6,1-4C1316.5,655,1318.5,655,1320.5,655z M1426.5,656c0.3,0.3,0.7,0.7,1,1c0,4.9-0.6,7-2,10  c-0.7,0.3-1.3,0.7-2,1c-1.5-3.3-2.1-6.5-2-12C1423.2,656,1424.8,656,1426.5,656z"
     id="path58" /><path
     class="st0"
     d="M701.5,668c23-0.6,36.5,6.8,37,28c-8.5,9.1-11.7,18.2-30,18c-4.8-4.6-12.2-7.4-16-13c-1.5-2.2-1.3-4.2-3-6  C689.1,677.8,693.5,675.9,701.5,668z M701.5,696c-0.1-12.3,5.9-11.5,12-17c8,0.1,8.1,3.2,12,7c-1.5,8.4-13.4,13-23,13  C702.1,696.9,702.3,697.1,701.5,696z"
     id="path60" /><path
     class="st0"
     d="M738.5,714c13.7,0,30.9,13.9,31,27c-3.2,2.1-3.7,3.5-9,4c-1.3-1.3-2.7-2.7-4-4c-2.5-4.3,0-8.9-5-11  c-1.9-1.4-6.1-1.3-8,0c-6.1,2-7.4,6.6-11,11c2.2,9.4,9.9,9.1,11,19c-1,0.3-2,0.7-3,1c-1.1,0.8-0.9,0.6-3,1c-3.3-2-6.7-4-10-6  c-2.7-3.7-2.9-7.9-6-11C721,724.5,727.6,722.4,738.5,714z"
     id="path62" /><path
     class="st0"
     d="M1470.5,727c0.4,2.1,0.2,1.9,1,3c2.8,2.4,3.4,0.8,4,6c-2.7,1.3-5.3,2.7-8,4c-3.5,6,3.9,7.8-6,10  c-0.8-0.7-2.2-1.3-3-2c-3.9-4.3-1.8-21.6,0-26c3.9-1.3,10.6-1.1,16-1c0.8,0.7,2.2,1.3,3,2c0.8,1.1,0.6,0.9,1,3c-0.7,0-1.3,0-2,0  C1475.1,727,1473.2,727,1470.5,727z"
     id="path64" /><path
     class="st0"
     d="M453.5,743c4.7,0,9.3,0,14,0c3.9,6.9,9.6,14.7,19,16c1.1-3.6,2.9-4.6,5-7c1.8,0.6,1,0.2,2,1c3.1,1,2.9,1,4,4  c1.7,2.1,1.9,4.2,2,8c-1.3,1.3-2.7,2.7-4,4c-7,5.6-32.8-6.1-38-10c-2.6-1.9-3.7-6.7-6-9c0-2,0-4,0-6  C453.3,743.4,452.5,743.8,453.5,743z"
     id="path66" /><path
     class="st0"
     d="M1417.5,738c10-0.4,23.2-1.7,28,5c4.2,5.4,2,33,2,43c0,4.4,0.8,11.2-1,14c-1.4,4.2-4.3,5.2-7,8  c-8.3,0.2-27.1,2.8-33-1c-3.9-1.3-4.5-3.6-7-6c-0.3-16.6-2.2-30.5,0-44c1-6.2-6.9-13.3,1-17c4.3,0,8.7,0,13,0  C1414.4,739.4,1416.6,738.7,1417.5,738z M1425.5,761c-1.4,2-1.6,6-3,8c-1,0.8-0.2,0.4-2,1c-1.9-2.8-3.4-8.3-5-11c-2.7,0-4.6,0-6,1  c-0.7,0-1.3,0-2,0c0.1-6.4,1.6-6.9,3-11c5.4-1.4,16.9-4.1,22,0c9.7,6.9,5.7,33.1,4,46c-4.1,1.9-20.2,5.2-25,2c-1-0.3-2-0.7-3-1  c0-2,0-4,0-6c1-0.8,2,1,2,1c5.5-0.6,7-4,9-8c4.2,1.1,4.6,4.5,6,8c1.7,0.6,1,0.2,2,1c2.8-0.1,4.3-0.4,6-1c2-9.8,3.4-20.3,2-31  C1431.4,759.5,1428.7,758.7,1425.5,761z"
     id="path68" /><path
     class="st0"
     d="M767.5,757c13.5,4.2,32.4,5.7,32,27c-3,1.5-3.5,2.5-8,3c-3.2-5.5-5.8-10.6-10-15c-5-0.3-5-0.3-10,0  c-3.9,5.7-8.5,10.4-7,19c6.8,1.1,9.3,2.5,9,11c-2,0.7-4.7,1-8,1c-5.6-4.9-9.8-9.9-15-15c-0.1-6.8,0.3-13.6,1-19c2.8-2.1,4.2-6.1,7-8  C761.3,759.1,765,759,767.5,757z"
     id="path70" /><path
     class="st0"
     d="M451.5,767c1,0,2,0,3,0c1.2,2.3,1.6,2.3,2,6c-3.3,4.1-0.9,7.9,0,13c-2.3,1.2-2.3,1.6-6,2c-3.3-3.3-6.1-4-7-10  C446.5,774.4,448.5,770.4,451.5,767z"
     id="path72" /><path
     class="st0"
     d="M1189.5,736c15.9,0.1,37.3,29.3,47,39c5,5,11.7,7.2,12,17c-9.8,6.6-22.8,29-35,30c-13.8-11.8-26.2-24.2-39-37  c-5.8-5.8-13.4-9-14-20c6.1-7.5,11.3-16.2,19-22C1182.9,740.5,1186.6,739,1189.5,736z M1201.5,756c0.8,4,0.8,8,0,12  c-1,0.3-2,0.7-3,1c-1.6-3.5-3.3-7.9-5-11c-2.9,0-5.5,0-7,1c-6.4,2.6-2.8,8.4-6,14c-1.1,2-4.7-3.7-6-5c0.6-10,9.6-12.6,15-18  C1195.2,750.9,1197.5,753.6,1201.5,756z M1231.5,786c0.1,3,0.7,2.8,0,4c-1.4,7.1-8.7,10.6-13,15c-5.1-0.2-7.5-1.2-10-1  c-3.3-4.9-8.5-8.4-12-13c-0.3-0.6,0.6-6.1,2-8c0-0.7,0-1.3,0-2c6,0.5,6.2,3.8,7,9c2.8,0.5,2.9,1.2,5,0c6.6-2.2,6.4-8.9,6-18  C1222.3,775.9,1225.4,782.2,1231.5,786z"
     id="path74" /><path
     class="st0"
     d="M810.5,792c2.3,0.3,4.7,0.7,7,1c2,4.1,4.2,6.4,5,12c-8.3,5.1-18.9,8.3-19,22c0.8,1,0.4,0.3,1,2c2.3,0,4.7,0,7,0  c2.9-2.9,6-1.8,10-4c6.6-3.7,5.4-9.8,17-10c1.5,2.5,2.3,2.3,3,6c-6.6,6.4-25.1,25.8-39,20c-6.1-2.5-8.7-8.7-13-13  c-0.2-4.1-0.6-10.6,1-13C793.6,805.9,804.4,798.7,810.5,792z"
     id="path76" /><path
     class="st0"
     d="M469.5,813c6.3-0.1,23.2,6.1,25,10c0.8,1.2,0.8,1.7,1,4c-2.6,1.5-4.1,2.5-8,3c-2.5-2.3-8.6-6.1-11-5  c-0.3,0-0.7,0-1,0c0.6,1.8,0.2,1,1,2c4.3,8.4,18.7,8,22,17c2.7,3.8-1.7,6.6-6,7c-13.7-10.7-34.3-15.2-47-27c0.6-1.8,0.2-1,1-2  c1.1-2.9,0.2-1.8,3-3c3.7-2,10.5,2.4,16,3C466.7,819.2,468.1,815.5,469.5,813z"
     id="path78" /><path
     class="st0"
     d="M1311.5,833c7.1-0.1,12.1,0.8,17,2c1.4,2.5,1.9,3.5,2,8c-2.5,1.4-3.5,1.9-8,2c-2.2-1.8-4.8-2-9-2  c-0.3,0.3-0.7,0.7-1,1c0.3,3.1,0,7.5,0,13c1.8,1,3.2,3.2,5,4c6.3,2.6,11.1-0.2,12,8c-1.8,1.1-3.6,2.5-5,4c-5.5,0.4-8.5,0.4-14,0  c-6-7.4-18.2-18.2-9-32C1303.8,837.6,1308.5,835.8,1311.5,833z"
     id="path80" /><path
     class="st0"
     d="M486.5,873c0.2-8.2-5.3-9.3-6-19c1.7,0,3.3,0,5,0c5,7.4,11.1,9.6,12,22c-3.1,4.1-4.6,11.4-10,13  c-3.2,0.9-6.1-1.5-8-2c-3.3-0.3-6.7-0.7-10-1c-9.7-5.3-15.4-17.3-23-25c-0.9-7.7-2.5-17.9,4-21c1.7-1.1,4.9-1.1,8-1  c0.7,1.9,1,3.9,1,7c-2.9,2.6-4.6,4.8-5,10C463.7,865.3,469.5,873.8,486.5,873z"
     id="path82" /><path
     class="st0"
     d="M853.5,833c10.6,3.9,16,10.7,23,18c0.4,12.6-9.5,24.8-23,18c-4.3-2.1-4.4-5.1-11-6c-2.7,3.6-6.5,4.2-13,4  c-2-3.2-3-4-3-10c8-7.4,15.6-15.1,23-23C851.8,833.8,852.3,833.8,853.5,833z M859.5,850c-0.3,3.6-0.1,3.3-2,5c-1,0.8-0.2,0.4-2,1  c-1-0.8-0.2-0.4-2-1c0.5-4.5,0.9-3.6,3-6C857.5,849.3,858.5,849.7,859.5,850z"
     id="path84" /><path
     class="st0"
     d="M895.5,864c5.8,2.5,9.2,4.2,9,13c-0.8,1-0.4,0.3-1,2c-11.1,5.7-13.7,21.8-28,23c-3.7-3-6.1-2.9-7-9  c6.9-7.2,14.2-21.8,22-27C892.1,864.9,894.1,865.1,895.5,864z"
     id="path86" /><path
     class="st0"
     d="M1424.5,872c0-2,0-4,0-6c-0.7,0-1.3,0-2,0c-1.2-0.8-1.7-0.8-4-1c-0.6,1.7-0.9,3.2-1,6c1,0.3,2,0.7,3,1  C1421.7,872.7,1421.5,872.1,1424.5,872z M1402.5,873c-0.3-3.3-0.7-6.7-1-10c1.5-0.9,2.9-1.8,4-3c12-0.1,21.6-1,31,1c0.3,1,0.7,2,1,3  c2.9,4.5-1.8,9.2,0,15c1,3.3,6.2,5.8,3,11c-1,3.6-2.5,5.8-6,7c-4.2,4-26.6,5.3-32,1c-0.8-1-0.4-0.3-1-2c-1.5-2.7,0.5-5.7,1-10  c-8.3-2.3-15-1.1-15-12C1391.1,872.8,1397.4,872.9,1402.5,873z M1422.5,883c1,0.3,2,0.7,3,1c-0.2,2.6-0.4,3.4-1,5  c-2.5-0.1-3.7-0.1-5-1c-1-0.3-2-0.7-3-1c0-1.3,0-2.7,0-4C1419.7,882.6,1420.4,881.8,1422.5,883z"
     id="path88" /><path
     class="st0"
     d="M922.5,884c7.4,0.1,25.8,9.3,28,14c2.1,2.6,1.3,2.4,1,7c-3.1,1.9-3.4,2.9-9,3c-2.8-4.8-5.5-8.7-13-9  c0,0.3,0,0.7,0,1c3.6,2.2,5.6,4.3,6,10c-2.4,1.3-2.8,1.8-7,2c-3-2.3-6.3-2.2-8,1c-0.8,1.2-0.8,1.7-1,4c5.5,3.2,12.9,4.9,13,14  c-2.3,1.2-2.3,1.6-6,2c-6.1,1.2-22.8-8.2-25-15c-1-1.4-1-3.3-1-6C908.7,903.6,914.5,892.5,922.5,884z"
     id="path90" /><path
     class="st0"
     d="M469.5,906c7.1,0.8,10,4.9,15,7c4.2,1.8,10.3,1.5,14,3c2.5,5.4,1.6,16.6,0,24c-0.7,0-1.3,0-2,0  c-8.6,6-28.5-5.9-29-14c2.5-1.4,3.5-1.9,8-2c2.2,1.9,7.1,3.9,9,3c0.8-1,0.4-0.3,1-2c-6.3-3.6-18.2-6.8-19-16c0.8-1,0.4-0.3,1-2  C469.3,906.4,468.5,906.8,469.5,906z"
     id="path92" /><path
     class="st0"
     d="M968.5,909c15.1,0.2,23.1,14,31,22c0.1,17.7-10.2,18.7-19,27c-17.9,0.4-24.3-6.6-33-15  C947.5,930.3,961.2,915.1,968.5,909z M983.5,927c-0.4,7.9-3.9,11.1-7,16c-5.3,0.1-8.1-0.4-11-2c0.1-10.9,4.8-12.8,9-19  C979.6,922.8,980.2,924.8,983.5,927z"
     id="path94" /><path
     class="st0"
     d="M1415.5,972c0-2,0-4,0-6c-4.1-1.3-4.9-2.6-5-8c0.8-1,0.4-0.3,1-2c4.5-2.8,12.3-6.7,15,1c-0.3,4-0.7,8-1,12  c1.3,7.8,5.1,15.6,3,25c-2.4,1.3-2.8,1.8-7,2c-4.6-4.9-13.5-12.7-20-15c0,0.3,0,0.7,0,1c-0.9,1.3-0.9,2.5-1,5c2.7,3.4,5.2,9.1,6,14  c-3.9,4.1-15.2,10.7-16-1c0,0-3.6-33.9-3-37c4.3-1.1,5.4-2.7,11-3C1402.6,964.8,1407.5,971.2,1415.5,972z"
     id="path96" /><path
     class="st0"
     d="M1455.5,939c18.5-0.4,28.1,10.8,29,28c-10,13-14.8,28.1-40,23c0-0.7,0-1.3,0-2c-4.2-6.7-2-16.1-5-24  c-1.7-4.5-4.6-5.1-5-12c2.7-2.7,5.3-5.3,8-8C1446.6,941.5,1452,941.8,1455.5,939z M1463.5,956c0.5,2.1,0.9,3.6,2,5  c0.1,6.4,0,12.2-2,16c-2.8-0.1-4.3-0.4-6-1c-1.8-4.6-1.9-12.6-5-16c0.1-5.5,0.7-5.4,3-8C1459,953,1460.8,954.4,1463.5,956z"
     id="path98" /><path
     class="st0"
     d="M1363.5,968c4.6-0.1,8.7,0.3,12,1c0,0.7,0,1.3,0,2c0.5,0.8,1.2,0.9,1,3c-0.3,2.9-2.9,5-3,9  c-0.2,5.6,4.6,13.5,1,19c-3.6,10.8-14.9,12.4-30,12c-4.1-5.6-7.1-8.4-9-17c0-3.3,0-6.7,0-10c-1-3.5-3.3-5.5-4-10  c0.9-0.9,1.3-1.8,2-3c5.4-0.7,8.6-0.8,13,1c4,7.4-0.1,7.7,2,16c0.8,3.2,3.1,7.4,4,11c2.8,0.6,3.6,1.8,5,1c3.1-1,2.9-1,4-4  c3.3-6.3-2.2-22.2-1-29C1361.8,969.3,1362.6,968.9,1363.5,968z"
     id="path100" /><path
     class="st0"
     d="M1194.5,972c7.2-0.1,13.1,1,18,3c1.9,3.3,4.5,5.3,4,11c-0.1,1.4-1.5,1.6-1,4c0.9,4.3,3.8,5.3,4,12  c-2.1,2.3-2.1,5.3-4,8c-2.1,3-6.4,4.5-9,7c-24.6,0.8-37.7-8.4-32-31C1180.5,982.3,1189.6,977.1,1194.5,972z M1208.5,989  c0.8,0.6,0.3,0,0,1c-1.3,2.4-2,2.4-5,3c-0.2,4.5-1.2,3.6,2,6c-0.5,5.3-2.2,7.2-4,11c-5.1-0.8-5.7-2.8-9-5c-0.7-3.5-1.1-8.2-1-13  c1.7-2.3,3.3-4.7,5-7C1202.1,985.1,1205.3,986.5,1208.5,989z"
     id="path102" /><path
     class="st0"
     d="M1246.5,975c16.5-0.7,26.7,2,26,19c-5,3.6-6.4,7.2-6,14c4.4,1.8,8,2.5,9,8c-0.8,1-0.4,0.3-1,2  c-2.8,1.3-4.2,2.4-8,3c-2.3-1.9-5.6-2.2-8-4c-4.8-3.5-3.9-10.5-11-12c-0.3,0.3-0.7,0.7-1,1c0.4,6.6,0.7,11.2-4,13  c-4,3.3-9.2,1.2-14,0c0-1,0-2,0-3c-1.8-3.7,3.8-12.3,5-17c-0.3-6.7-0.7-13.3-1-20c1-0.3,2-0.7,3-1  C1238,975.9,1243.6,976.8,1246.5,975z M1255.5,987c0.7,0,1.3,0,2,0c-0.1,2.8-0.4,4.3-1,6c-2.7,0-4.6,0-6-1c-0.7,0-1.3,0-2,0  c0.2-4.1,0.5-3.9,2-6C1253,986.1,1254.2,986.1,1255.5,987z"
     id="path104" /><path
     class="st0"
     d="M1298.5,975c4.7-0.2,13.1-1,16,1c7.5,2,8.5,7.3,13,12c0.9,19.7-8.9,32.5-31,32c-4.8-4.7-9.3-9.2-14-14  C1282.1,986.4,1289.1,983.9,1298.5,975z M1308.5,987c1,0.3,2,0.7,3,1c0,5.3,0,10.7,0,16c-1.5,1.4-2.9,3.2-4,5c-1.7,0.6-1,0.2-2,1  c-2,0-4,0-6,0c-1.4-6.9-1.9-13.9-1-21c1.8-0.9,3.6-1.7,5-3C1306,986.1,1307.2,986.1,1308.5,987z"
     id="path106" /><path
     class="st0"
     d="M157.5,957c1.7,0,3.3,0,5,0c7.1,12.4,8.8,25.9,15,40c2.5,5.7,8.8,2.8,10,11c-3.4,2.1-4.7,3.1-11,3  c-6.1-3.2-31.7,0.4-40-1c-1-2.2-1.5-2.8-2-6c2.4-2.3,8.2-5.3,10-8c0.7-3.7,1.3-7.3,2-11C149.2,976.8,153.1,964,157.5,957z   M162.5,981c0.7,0.7,1.3,1.3,2,2c-0.3,0.3-0.7,0.7-1,1c-1.4,0.8-2.2-0.4-5-1c0-0.7,0-1.3,0-2C159.8,981,161.2,981,162.5,981z   M154.5,997c-0.3-1-0.7-2-1-3c0.3-0.3,0.7-0.7,1-1c3.5,0.3,4.2,0.4,6,2c0.8,1.1,0.6,0.9,1,3C159.2,997.7,156.8,997.3,154.5,997z"
     id="path108" /><path
     class="st0"
     d="M1692.5,997c3.7,0,7.3,0,11,0c1.9,3,3.4,4.2,4,9c-0.8,1-1.4,2.7-2,4c-3.2,1.7-13.2,3.8-15,7c0.7,0,1.3,0,2,0  c3.4,2.2,8.7,0.3,13,0c0.6,1.6,0.8,2.4,1,5c-0.8,1-0.4,0.3-1,2c-11.9,6-17.5,5.3-26-3c-0.1-6.5,0.9-10.4,2-15  C1685.2,1003.6,1689.1,1000,1692.5,997z M1697.5,1002c0.3,0.3,0.7,0.7,1,1c-1.3,3.6-2.5,2.9-5,5c-0.7,0-1.3,0-2,0c0.3-2,0.7-4,1-6  C1694.2,1002,1695.8,1002,1697.5,1002z"
     id="path110" /><path
     class="st0"
     d="M1664.5,1019c-1.3,0-2.7,0-4,0c-0.3,0.7-0.7,1.3-1,2c-3.3,4.2-1.2,11.1-1,18c-2.9,1.8-2.9,2.7-8,3  c-1.1-1.9-3.3-3.7-4-6c-1.8-6.1,3.2-7.8-2-11c0,0.3,0,0.7,0,1c-3.5,4.4-1.3,11.7-1,18c-3.1,1.7-6.5,2.1-12,2c-2-3.2-3-4-3-10  c6.8-3.8,1.6-9.9,1-18c3.3-2,5-4.4,11-4c1.2,0.1,1.8,1.9,4,1c0.3-1,0.7-2,1-3c4-0.3,8-0.7,12-1c5.2-1.8,5.5-5.7,14-6  c3,4.8,3.2,11.4,3,20c1.7,2.1,1.9,4.2,2,8c-3.4,2.1-4.7,3.1-11,3C1664.1,1031.9,1664.4,1024.7,1664.5,1019z"
     id="path112" /><path
     class="st0"
     d="M485.5,1047c-0.4-2.1-0.2-1.9-1-3c-5-4.7-15.4-5-18-12c-0.8-1.2-0.8-1.7-1-4c2.4-1.3,2.8-1.8,7-2  c4.9,4.8,12,5.2,22,5c1,1.8,1.3,1.7,2,4c3.5,4.4,2.3,18.1,1,24c-1.8,1-1.7,1.3-4,2c-4.3,2.8-22.1-5.9-27-8c-1-2.2-1.5-2.8-2-6  c3-2.8,2.7-3.9,9-4C476.4,1045.9,479.7,1046.9,485.5,1047z"
     id="path114" /><path
     class="st0"
     d="M1611.5,1021c3,0,6,0,9,0c2.9,4.2,5,4.3,5,12c-3.9,5.1,2.1,3.3,1,9c-0.4,2.2-3.2,5-4,8c-13,6.3-16.5,12-28,1  c-0.4-4.8-1.8-11.9,1-16C1598.2,1027.5,1606.3,1025.9,1611.5,1021z M1611.5,1040c-1,0.7-2,1.3-3,2c0,0.3,0,0.7,0,1  c-2.4-0.9-1.7-0.4-3-2c-0.8-1-0.4-0.2-1-2c0.9-0.9,1.3-1.7,2-3c1.7-0.3,3.3-0.7,5-1C1611.5,1036.7,1611.5,1038.3,1611.5,1040z"
     id="path116" /><path
     class="st0"
     d="M1580.5,1037c3.8,1.3,5.6,1.1,7,5c2,3.2,4,19.9,4,25c-3.1,2.1-2.9,3.5-8,4c-3.7-6.2-3.7-13.7-7-20  c-1.8,0.6-1,0.2-2,1c-2.9,1.1-1.8,0.2-3,3c-3.4,5,0.4,13.8,1,19c-3.5,2.4-3.6,3.9-10,4c-0.3-0.7-0.7-1.3-1-2c-3.4-4.4-3.7-22.7-3-27  C1565.5,1045.2,1574.6,1042.1,1580.5,1037z"
     id="path118" /><path
     class="st0"
     d="M218.5,1048c12.1,0.4,31.1,14.5,40,20c3.3,1,6.7,2,10,3c2,2,4,4,6,6c12,8,23.8,12.1,37,19c5.7,3,11.5,8.8,17,12  c4.3,1.3,8.7,2.7,13,4c1.7,1.7,3.3,3.3,5,5c3.9,2.5,9.3,2.4,13,5c3.8,2.6,7.4,7.2,12,9c13.7,5.4,49.1,20.3,54,32c3,7.2-3,18.1-1,27  c0.6,2.6,4.1,5.8,3,10c-1.1,4.3-4.6,6.6-4,14c1.3,16,0,32.6,0,50c0,9,0,18,0,27c-2.7,10.9-4.9,23.4-5,36c-0.7,0-1.3,0-2,0  c-1.2,0.8-1.7,0.8-4,1c-8.2-12.7-4.2-46.3-4-66c3.4-5.4,1-21.3,1-29c0-21.4,6-44.6,2-65c-6-2.9-10.8-8.4-16-12c-4.4-3-10.5-3.2-15-6  c-3.3-2-6.7-6.3-10-8c-9.3-4.9-18.6-5.4-27-11c-1.7-2-3.3-4-5-6c-2.7-1-5.3-2-8-3c-5-3.1-10-7.9-15-11c-7.2-4.4-15-5.6-22-10  c-2.3-1.4-4.4-4.9-7-6c-2.3-0.3-4.7-0.7-7-1c-12.5-5.3-24.4-14.4-37-20c-8.3-3.6-21.2-7.2-25-15c-2.3-3.2-1.5-5.9-1-10  C218.3,1048.4,217.5,1048.8,218.5,1048z"
     id="path120" /><path
     class="st0"
     d="M441.5,319c3.7-0.1,8.9-0.4,11,1c9.4,3.5,6.2,15.1,14,17c0.3-0.3,0.7-0.7,1-1c0-3.6,0.5-5.4,1-8  c1.8-0.6,1-0.2,2-1c7.3,1.4,10.7,4.6,11,13c-1.7,2.2-2.7,6.4-5,8c-15.8,10.9-39.1-7.9-39-23c1.1-1.4,1.5-2.9,2-5  C441.3,319.4,440.5,319.8,441.5,319z M460.5,466c11.8,0.6,10.7,9,18,13c6.5,3.5,14.1-2.7,18-1c2.5,1.5,1.8,1.3,2,5  c-2.7,3.7-5.3,7.3-8,11c-2.2,1.2-4.9,0.9-7,2c0,0.7,0,1.3,0,2c6.6,1.3,14.7,2.6,15,11c-0.7,0.8-1.3,2.2-2,3c-1.8,1.7-2.5,1.7-6,2  c-4.7-3.5-9.8-3.5-16-6c-3-1.2-6-4.9-9-6c-6-2.2-15.5-0.7-18-6c0-5.7,0-11.3,0-17c3.4-4.4,5.3-8.1,9-12  C458.8,466.8,459.3,466.8,460.5,466z M450.5,571c12.5,2.2,42.6,13.3,46,22c2.8,2.9,3.1,7.1,3,13c-3.3,3.3-6.7,6.7-10,10  c-14.1-0.2-25.7-11.9-30-22c-0.3-3-0.7-6-1-9c-2.9-6-10.1-2.4-11-12C448.8,572.3,449.6,571.9,450.5,571z M468.5,668  c7,0.8,8.3,4.9,13,7c4.3,0.3,8.7,0.7,13,1c5.8,3,4.6,20.8,3,28c-3.8,2.1-9.9,2.3-15,4c1,2.9,3.1,3.7,4,6c1.7,4.5,0.6,10.8,2,15  c3.6-2.7,2.9-5.3,9-6c0.3,1,0.7,2,1,3c1.9,2.8,0.7,8,0,11c-4.5,2.9-6,5-14,5c-11.4-11.1-25.4-10.7-19-35c3-0.6,6.6-1.6,8-4  c0.1-4.3-5.9-6.4-8-11c-3-6.6-0.2-17.5,1-23C468.3,668.4,467.5,668.8,468.5,668z M465.5,778c8.8,0,12.7,2.5,18,4c4-0.3,8-0.7,12-1  c0.7,1,1.3,2,2,3c3.1,3.9,2.2,14,2,21c-2.8,1.8-6.6,4.6-9,7c-3.3,0.1-7.2,0.2-9-1C469.8,807.6,460.8,789,465.5,778z M458.5,935  c8.6,1,12.6,6.3,19,9c5.3,2.2,13.9,1.7,20,3c1,3.3,1.9,4.1,2,9c3.6,4.7,2.1,11.3,1,16c-2.4,1.6-2.9,2.9-6,4c-2.7,2.1-7,2.1-12,2  c-10.8-9-14.6-10.9-18-28c-4.4-2.3-11.3-3.6-12-10c0.8-1,0.4-0.3,1-2C455.3,937.2,457.2,936.3,458.5,935z M473.5,992  c13,1.2,10.3,11.4,19,13c2.3-1.5,4.3-0.6,7,0c0,0.7,0,1.3,0,2c3.4,4.5-0.7,13.2-5,16c-6.5,5.4-13.9-1-18-4  C466.5,1011.7,462,1001.3,473.5,992z M456.5,1060c2.7,0,5.3,0,8,0c3.8,5.2,12.6,14.8,20,16c3.3-6,14.6-12.1,14,2  c-3.6,2.4-15.3,9.5-16,14c7,3.5,15.9,4.2,16,15c-3.2,3.1-3.4,4.8-10,5c-9.2-9.3-25-15.9-40-19c-1.9-7.1-3.1-14.9-2-24  C449.6,1066.6,453.7,1062.9,456.5,1060z M449.5,330c1.7,0.6,1,0.2,2,1c0.8,1.1,0.6,0.9,1,3c-2.1-0.4-1.9-0.2-3-1c-1.7-0.6-1-0.2-2-1  c-0.8-1.1-0.6-0.9-1-3C448.6,329.4,448.4,329.2,449.5,330z M463.5,482c1.3,2.1,2.1,2.3,3,5c0.8,1,0.4,0.2,1,2c-0.8,1-0.4,0.2-1,2  c-3.9-1-5.9-2.5-9-4c0.4-3.7,0.6-2.9,2-5C460.8,482,462.2,482,463.5,482z M477.5,591c1.8,2.3,5.5,4.5,8,6c0,0.7,0,1.3,0,2  c-7.3-0.3-9.5-3.1-14-6c0-0.7,0-1.3,0-2C473.5,591,475.5,591,477.5,591z M481.5,687c1.1,1.2,2.5,2.1,4,3c0,1.7,0,3.3,0,5  c-4.7-0.9-5.8-2.9-9-5c0-1,0-2,0-3C478.2,687,479.8,687,481.5,687z M477.5,718c0,1.3,0,2.7,0,4c-1,0.3-2,0.7-3,1c-0.3-1-0.7-2-1-3  c-1.1-1.9-0.3-1.2,0-4C475.8,716.7,475.7,717,477.5,718z M487.5,797c-0.3,1-0.7,2-1,3c-4.3-0.5-6.7-1.4-8-5c-0.9-1.9-0.4-0.7,0-3  C483.6,792.8,484.2,794.8,487.5,797z M480.5,963c-1.6-1.2-2-2.1-3-4c0.3-0.3,0.7-0.7,1-1c6.1,0,7.6,1,11,3c0,1.3,0,2.7,0,4  C485.3,965,482.7,964.8,480.5,963z M477.5,1002c0.3,0.3,0.7,0.7,1,1c-0.3,1-0.7,2-1,3c-2.1-0.4-1.9-0.2-3-1c-0.8-1.1-0.6-0.9-1-3  C474.8,1002,476.2,1002,477.5,1002z M462.5,1074c4.3,1.5,4.3,4.1,7,7c-0.6,3.2-0.9,2.9-2,5c-6.2-0.3-10.4-2.1-12-7  c-1.1-2.6,1.1-3.7,3-6C460.8,1073.2,461.3,1073.2,462.5,1074z"
     id="path122" /><path
     class="st0"
     d="M1527.5,1065c2.3,0.3,4.7,0.7,7,1c0.5,2.6-0.2,8.6,1,12c1.5,4.2,4.5,3.4,5,10c-8.9,6.7-13.2,15.9-29,16  c-1.6-2.4-2.9-2.9-4-6c-2.4-3-2.3-9-1-13C1511.3,1069.9,1518,1073.7,1527.5,1065z M1522.5,1080c0.8,4.1,0.8,7.1-2,10  c-1,0.8-0.2,0.4-2,1c-0.3-0.3-0.7-0.7-1-1c0-3.8,0.2-7.6,1-10C1519.8,1080,1521.2,1080,1522.5,1080z"
     id="path124" /><path
     class="st0"
     d="M1473.5,1085c1.7,0,3.3,0,5,0c1,5.3,2.6,7.3,6,10c-0.6,1.8-0.2,1-1,2c-2.7,6.7-7,4.8-7,16c1.5,0.5,1.7,0.7,4,1  c2.1-3.4,3.4-4.8,9-5c1.2,2.3,1.6,2.3,2,6c-6,5.9-8.8,11.9-21,12c-3.7-6.6-0.5-9.3-3-16c-1.3-3.4-3.5-2-4-8  C1468.9,1098.8,1470.1,1091.2,1473.5,1085z"
     id="path126" /><path
     class="st0"
     d="M1454.5,1103c2.3,0.3,4.7,0.7,7,1c0.6,1.6,0.8,2.4,1,5c1.3,2.9-1.7,11.8-2,18c3.4,1.7,4.5,3.6,7,6  c-0.7,2-1.3,4-2,6c-9.4,2.3-15.6,6.3-27,7c-4.5-6.6-5.2-6.9-5-19c-2.1-3-0.7-9.8,0-13c2.5-1.4,3.5-1.9,8-2c0.9,4,2.1,10.3,3,15  c1.6,0.6,2.4,0.8,5,1c0.7-1.9,1-3.9,1-7c-1.7-2.3-2.7-8.4-1-11C1450.6,1106.4,1452.4,1105.4,1454.5,1103z"
     id="path128" /><path
     class="st0"
     d="M1375.5,1128c1.7,0,3.3,0,5,0c0.3,0.3,0.7,0.7,1,1c-0.1,3.5-0.3,8,1,10c2.3,1.5,8.1,1.1,12,1  c3.2,5.1,3.2,13,3,22c-1.1,1.4-1.5,2.9-2,5c-1,0.3-2,0.7-3,1c-2.1,1.2-2.2,0.5-5,0c-0.7-3.7-1.9-12.3-5-14c0,0.7,0,1.3,0,2  c-6,7.5-1.2,18.8-15,19c-1.5-2.8-2-5-2-10c4.3-2.6,12.7-15.8,8-26c-1.5-3.2-3.3-1.2-4-7C1371.3,1130.9,1373.9,1129.4,1375.5,1128z"
     id="path130" /><path
     class="st0"
     d="M1415.5,1122c2.7,0,5.3,0,8,0c5.8,8.4,7.3,7.3,7,23c-3.7,4.7-6,8.8-10,13c-9.6,0.4-16.7-0.1-19-7  c-2.6-3.2-2.2-10.1-2-16c3.3-3.3,6.7-6.7,10-10C1411.7,1123.5,1413.7,1123.7,1415.5,1122z M1419.5,1134c0,6.4-0.9,8.4-3,12  c-2.8-0.1-4.3-0.4-6-1c0.1-7.8,2.3-8.3,6-12C1417.5,1133.3,1418.5,1133.7,1419.5,1134z"
     id="path132" /><path
     class="st0"
     d="M1353.5,1136c4.8,2.4,10.7,7,11,14c-2,1.2-3.3,2.6-5,4c0.1,9.9,11.3,24.8-9,25c-2.2-3.5-3.1-5.4-3-12  c5.4-7.4-1.3-12.9-2-20C1348.8,1144.4,1350.8,1139.2,1353.5,1136z"
     id="path134" /><path
     class="st0"
     d="M1336.5,1142c0,1.7,0,3.3,0,5c-1.9,0.7-3.9,1-7,1c-0.6-1.6-0.8-2.4-1-5C1330.5,1142.3,1333.2,1142,1336.5,1142z  "
     id="path136" /><path
     class="st0"
     d="M1329.5,1153c1.7,0,3.3,0,5,0c4,6.7,5.6,20.2,2,29c-1.5,0.9-2.9,1.8-4,3c-1.8-0.6-1-0.2-2-1  c-2.7-2.3-2.2-7.9-2-13c2.8-4.4-1-12.6-1-17C1329.3,1153.4,1328.5,1153.8,1329.5,1153z"
     id="path138" /><path
     class="st0"
     d="M1315.5,1155c5.8,2.3,7.3,4.6,7,13c-4.5,7.1-3.6,20.9-12,24c-1.1,0.8-0.9,0.6-3,1c-2.9-2.7-6.6-7.4-11-8  c-1.5,4.2-2.7,9.3-7,11c-2.2,1.4-3.3,0.5-6,0c-4.2-7.3-9.8-14.3-10-25c3.2-2.1,3.7-3.5,9-4c2.2,2.9,3.6,6.1,8,7  c1.2-6.9,2.2-10.3,11-10c1,0.8,0.3,0.4,2,1c0.8,3.7,1.1,5.1,5,6c0.3-1,0.7-2,1-3c1-3.7,2-7.3,3-11  C1313.8,1156.3,1314.6,1155.9,1315.5,1155z"
     id="path140" /><path
     class="st0"
     d="M1239.5,1166c1,0,2,0,3,0c2.8,4.5,5.5,7.9,6,15c-5,3.1-8,6.6-8,15c2.7,1.5,5.7,3.2,8,5c-0.7,2-1.3,4-2,6  c-3.5,1.6-7.2,2.1-13,2c-1.7-3.3-2.1-7.3-2-13c3-4.5-0.3-9.2,1-14c0.6-2.3,4.2-3.5,5-5C1239.1,1173.8,1237.9,1169.1,1239.5,1166z"
     id="path142" /><path
     class="st0"
     d="M684.5,1186c4.8-0.1,9.5,0.3,13,1c1,1.8,1.3,1.7,2,4c0.8,1.2,0.8,1.7,1,4c-6.5,6-13.9,13.8-14,26  c2.7,1.4,4.2,2,9,2c1-0.8,0.3-0.4,2-1c3.3-6,9.9-12.8,12-19c2-5.9-2.5-9.5,3-12c3.2-2.4,6.4-1.1,11,0c0,0.7,0,1.3,0,2  c0.8,1.2,0.8,1.7,1,4c-9.7,9.7-14.1,28.9-28,34c-9,3.3-20.6,0.9-23-6c-5.9-8.9,5.3-19.7,7-25c1.2-3.8,0-9.2,1-12  C682.8,1187.3,683.6,1186.9,684.5,1186z"
     id="path144" /><path
     class="st0"
     d="M816.5,1189c3.6,0,5.4,0.5,8,1c0.5,1.5,0.7,1.7,1,4c-2,2-4,4-6,6c-4.1-1.7-5.6-2.5-6-8c0.8-1,0.4-0.3,1-2  C816.3,1189.4,815.5,1189.8,816.5,1189z"
     id="path146" /><path
     class="st0"
     d="M787.5,1192c2.7,0,5.3,0,8,0c1.2,2.3,1.6,2.3,2,6c-6.9,4-18.7,18.9-21,27c-1.1,3.9-0.1,9.1-1,12  c-5.9,2.9-8.9,1.7-13-2c4-11.2,8.7-22.7,10-33C778.5,1199.8,784,1196.6,787.5,1192z"
     id="path148" /><path
     class="st0"
     d="M896.5,1194c1.7,0,3.3,0,5,0c1.2,2.3,1.6,2.3,2,6c-1,0.3-2,0.7-3,1c-1.2,0.8-1.7,0.8-4,1c-1.3-2.4-1.8-2.8-2-7  C896.3,1194.4,895.5,1194.8,896.5,1194z"
     id="path150" /><path
     class="st0"
     d="M1213.5,1183c6.1,0,10.3,1.6,12,6c1.7,1.8,1.7,2.5,2,6c-4.4,2.7-9,5.6-14,8c0.6,1.8,0.2,1,1,2  c4,2.5,6.2-0.2,7,6c-0.8,1-0.4,0.3-1,2c-1.9,1.1-4.5,2.5-6,4c-4.8,0.1-9.5-0.3-13-1c-3.2-4.8-4.2-7.9-4-17c1.9-2,2.3-4.6,4-7  C1204.5,1187.9,1209.5,1186.2,1213.5,1183z M1216.5,1190c0.7,0.7,1.3,1.3,2,2c0,0.7,0,1.3,0,2c-0.8,1-0.4,0.2-1,2c-2.9,0-5.5,0-7-1  c-0.3-0.3-0.7-0.7-1-1c1.3-1.3,2.7-2.7,4-4C1214.5,1190,1215.5,1190,1216.5,1190z M1176.5,1211c0,1.3,0,2.7,0,4c0.7,0,1.3,0,2,0  c3.3,1.9,7.5-1.1,11,1c0.9,1.3,0.9,2.5,1,5c-5.3,3.9-5,7.9-15,8c-1.4-1.3-1.8-1.4-4-2c-4.9-9.4-2.9-17.5,0-28c5-3.2,7.3-5.9,16-6  c1,0.8,0.3,0.4,2,1c1,1.8,1.3,1.7,2,4c1,1.4,1,3.3,1,6c-1.7,1.7-2.9,3.7-4,6C1184.5,1210.3,1180.5,1210.7,1176.5,1211z M1183.5,1201  c0.3,0.3,0.7,0.7,1,1c-1.2,2.8-0.1,1.9-3,3c-1,0.8-0.2,0.4-2,1c-0.3-0.3-0.7-0.7-1-1c0.3-2.3,0.5-2.5,1-4  C1180.8,1201,1182.2,1201,1183.5,1201z"
     id="path152" /><path
     class="st0"
     d="M837.5,1203c5.9,0.1,8.2,2,12,3c5.5,1.5,13.5,0.1,18,1c2,3.2,3,4,3,10c-6.5,7.5-6.8,22.2-20,20  c-0.6-1.8-0.2-1-1-2c1.6-6.9,5.5-9.8,6-18c-2-0.7-4.7-1-8-1c-2.3,3.7-6.4,7.6-8,12c-1.7,4.6,0.1,6.3-3,9c-2.9,2.5-8.1,2.5-11,0  c-1-1.4-1-3.3-1-6c8.5-5.3,9.8-12.7,9-25C835,1205.1,836.4,1204.2,837.5,1203z"
     id="path154" /><path
     class="st0"
     d="M1157.5,1203c4.6,1.8,5.8,2.7,7,8c-4.2,2.6-14.2,7.1-16,12c-2,3.1-1.3,13.3-2,17c-2.7,1.2-3.8,1.8-8,2  c-1.3-2.4-1.8-2.8-2-7c6.1-8.9-2-15.5-3-23C1140.7,1208.2,1151.5,1208,1157.5,1203z"
     id="path156" /><path
     class="st0"
     d="M727.5,1204c5.7,0.2,7.4,2.2,11,3c4.3-0.3,8.7-0.7,13-1c2,3.2,3,4,3,10c-3.8,5.7-2.4,13.1-8,17  c-1.9,1.5-3.3,1.9-5,1c-3.1-1-2.9-1-4-4c-1.8-3.2,1.3-8.7,2-13c-1.5-0.5-1.7-0.7-4-1c-1,0.8-0.3,0.4-2,1c-2.5,4.7-4.8,13-10,15  c-1.3,0.9-2.5,0.9-5,1c-1.2-2.3-1.6-2.3-2-6c5-5.2,6.3-12.3,8-21C725.8,1205.3,726.6,1204.9,727.5,1204z"
     id="path158" /><path
     class="st0"
     d="M808.5,1207c2.7,0,5.3,0,8,0c0.7,1.3,1.1,2.1,2,3c-1.5,6-6.7,8.8-9,14c-1.7,4,0.3,9.5-2,14  c-1.3,2.6-5.1,3.7-9,4c-2.7-2.8-3.7-2.2-4-8C800.9,1227.5,803.6,1214.8,808.5,1207z"
     id="path160" /><path
     class="st0"
     d="M886.5,1207c5-0.1,6.9,0.3,9,3c1.3,1.7,1.6,3.1,2,6c-5.5,5.4-8.2,22.6-14,25c-4.6,3.3-8.1-0.5-8-6  c7.2-7.1,6.1-15.3,8-26C884.8,1208.3,885.6,1207.9,886.5,1207z"
     id="path162" /><path
     class="st0"
     d="M1102.5,1211c2,0,4,0,6,0c0.9,1.5,1.8,2.9,3,4c-0.5,1.3-1.2,3-2,4c-3,2.5-5.7,1.4-7,6c4.4,2.7,12.6,16.6,7,25  c-2.3,7.6-8.1,10.1-13,15c-5.7,0.6-12.8,2.1-17-1c-4.2-1.4-4.2-3.3-4-9c2.1-2.2,1.7-3.7,5-5c1.1-0.8,0.9-0.6,3-1c3,3.6,4.7,6.5,11,7  c2.5-4.3,3.1-8.4,3-16c-5-3.3-8.5-9.2-9-17c2.1-2.5,3.3-6.1,6-8C1097,1213.2,1100.2,1212.9,1102.5,1211z"
     id="path164" /><path
     class="st0"
     d="M1131.5,1229c-1.3,0-2.7,0-4,0c-2.1,3-3,3.2-3,9c-1.7,2.7-0.3,6.6,0,11c-2.5,1.5-2.3,2.3-6,3  c-1.1-1.8-2.5-3.6-4-5c0.2-8.7-1.1-18,0-25c6.3-1.6,5-5.6,11-7C1128.1,1220.1,1131.2,1221.3,1131.5,1229z"
     id="path166" /><path
     class="st0"
     d="M862.5,139c3.6,0,5.4,0.5,8,1c0.3,1,0.7,2,1,3c0.7,1.2,0.1,1,0,4c-19.1,12.2-35.1,29.5-53,43  c-7.7,7.7-15.3,15.3-23,23c-25.3,19.1-47.3,42.2-73,61c-4.3,4.7-8.7,9.3-13,14c-12.1,9.2-21.5,19.9-34,29c-3,3.3-6,6.7-9,10  c-8.7,8.7-21.5,21.8-31,29c-14.8,11.2-28.1,23.8-43,35c-6.3,6.7-12.7,13.3-19,20c-11,8.3-28.4,18.6-34,32c-4.6,11.2-3.5,29.8-3,45  c0.3,3.3,0.7,6.7,1,10c-1,4.8,1.1,10.7,0,16c-2.1,10.3-1.7,29-1,38c1.4,16.5-1.2,32.5,0,48c1.5,18.7-1,42.6-1,72c0,9.7,0,19.3,0,29  c1.7,10.8-3.4,42.3,0,64c1.7,10.6,1,41.8,1,62c0,9,0,18,0,27c1.1,5.1-1.6,12.8,0,20c2.2,9.8,1,24.5,1,36c0,6,0,12,0,18  c3.3,14.9,1,36.2,1,53c0,43.4-3.7,88.1,0,127c8.8,5.6,17.8,13.5,27,19c4,1.3,8,2.7,12,4c4.1,1.9,8.4,6.1,13,8c4.3,1,8.7,2,13,3  c8.7,4.3,21.6,10.9,31,14c14.9,4.9,31.6,3.6,47,8c4.1,1.2,8.7,5,13,6c2.3-0.3,4.7-0.7,7-1c12.3,0.3,24.7,0.7,37,1  c7.7,1.7,18.2,2,26,0c13.3,0,26.7,0,40,0c20.1,0,48.3-2.5,68,3c6,0,12,0,18,0c2.2,0.6,4.8,3.3,7,4c7.9,2.4,15.2,0.4,23,3  c11.4,3.7,24.8,10.7,36,14c4,0,8,0,12,0c6.7,1.9,16.2,7,23,9c4.7,0,9.3,0,14,0c12,2.6,23.7,2.3,33,0c9.3,0,18.7,0,28,0  c16-4.6,33.4-11.7,48-17c2.7-0.3,5.3-0.7,8-1c2.6-1.2,4.7-4.6,7-6c5.8-3.5,12.8-3.2,19-6c7.1-3.2,16-10.3,23-13c6.5-2.5,12.9-1,19-4  c5-2.5,11.7-7,16-8c29-6.5,61.3-7,88-16c12.2-4.1,29.3-0.7,39-4c6.2-2.1,14.2-6.9,20-9c11.9-4.2,23.6-3.7,34-9  c10.1-5.1,21.6-13.3,32-18c6.4-2.9,11.8-3.7,18-7c6.3-3.4,12.1-10.2,18-14c4.8-3,12.4-2.2,17-5c11.7-7.2,24.7-16.4,37-23  c3.3-1,6.7-2,10-3c2.3-1.4,4.4-4.8,7-6c13.8-6.3,26.8-8.9,41-15c14.8-6.4,30-16.5,46-22c7.6-2.6,13.2-1.2,20-4  c8.4-3.5,17.3-9.5,26-12c3.3,0,6.7,0,10,0c14-3.9,30.1-9.4,45-13c16,0,32,0,48,0c11.3,0,22.7,0,34,0c3.4,1,7.3,4,11,5c7,0,14,0,21,0  c6.8,1.7,15.6,3.5,23,5c1.8,2.8,3.2,2.8,4,7c0.1,0.9,0.4,2.2-1,4c-1,0.8-0.3,0.4-2,1c-7.1,4.4-17.1-1.7-22-3c-8.7,0-17.3,0-26,0  c-6.5-1.8-29.1-5.6-38-4c-8.5,1.5-16.7-5.1-28-2c-7.2,2-21.8,4-29,6c-6,0-12,0-18,0c-7.8,2.1-18.7,6.8-26,9c-2.3,0-4.7,0-7,0  c-8.8,2.4-19.7,6.7-28,10c-3.7,0.7-7.3,1.3-11,2c-4.5,1.9-10.3,6-15,8c-4.1,1.7-8.3,1.1-12,3c-3.4,1.7-6.7,5.7-10,7  c-3.8,1.5-6.1,0.2-9,2c-8.5,5.2-19.8,12.1-29,16c-5,2.1-11.4,1.3-16,4c-4.2,2.4-8.9,6.5-13,9c-5.3,2.3-10.7,4.7-16,7  c-1.7,1.7-3.3,3.3-5,5c-12,5.8-24.2,8-35,15c-17.8,11.6-39.8,24.5-60,33c-22.3,9.3-45.6,12.3-70,20c-11.6,3.7-24.3,9.8-37,13  c-3.7,0-7.3,0-11,0c-10.4,2.4-14.5,1.1-25,4c-5.7,0-11.3,0-17,0c-3.6,1.1-6.2,4.9-10,6c-3.7,0-7.3,0-11,0c-5.2,1.6-14.1,5.5-19,7  c-8.7,2.7-14.3,1.8-22,5c-22.9,9.6-47,24-70,33c-3,0.3-6,0.7-9,1c-3.5,1.2-8.2,4.8-12,6c-4.3,0.3-8.7,0.7-13,1c-2.4,0.8-5.6,4.2-8,5  c-6.8,2.2-21.6,0.2-27-1c-2.9-0.6-6.7,0.7-8,1c-8.5,1.9-20.3-0.6-26-2c-4.3,0-8.7,0-13,0c-13.8-3.9-31-9.2-45-13  c-10.9-2.9-17.6-1.9-28-5c-7.5-2.2-14.4-7.8-23-10c-4.3,0-8.7,0-13,0c-5.2-1.2-13.3-2.8-18-4c-13-0.3-26-0.7-39-1  c-6.5-1.7-10.2,0-19,0c-18,0-36,0-54,0c-11,0-22,0-33,0c-17.2-3.9-38.4-4.1-54-8c-2.7,0-5.3,0-8,0c-7.3-2.3-18.7-5.9-26-8  c-2.3,0-4.7,0-7,0c-3-1.1-6-4.7-9-6c-4.1-1.8-7.7-1.2-12-3c-4.6-1.9-10.3-6.2-15-8c-9.2-3.6-17.4-4-25-9c-1.7-2-3.3-4-5-6  c-2.6-1.7-4.7-0.7-8-2c-8-3.1-19.4-9.4-24-16c-7-9.9-1-24.8-1-36c0-9-2-13.5-2-23c0-17.6,2-30.5,2-49c0-45,0-90,0-135  c-1.2-4.9-2-11.6-2-19c0-15.9,0.5-31.4,0-45c-0.3-8.1,0.7-21.6-1-25c1-13.9,0-31.5,0-48c0.3-5,0.7-10,1-15c-3.1-15.5-1-41-1-61  c0-7.8-0.6-20.9,1-24c-0.8-11.9-4-31.7-1-45c0.9-4,2.1-31.9,1-37c-2.9-13.1-3-58.9,0-72c1.4-6.1-1.1-11.3,0-16c0-9,0-18,0-27  c2.6-8.7,20.7-21.5,28-27c3-3.3,6-6.7,9-10c17.1-12.9,31-28.2,48-41c4.7-5.3,9.3-10.7,14-16c5.9-4.1,10.6-6.7,16-11c2-2.7,4-5.3,6-8  c6.9-4.8,16-9.7,21-16c4.1-5.1,8.7-11.3,14-15c6.2-4.3,14.2-7.4,19-13c3.2-3.7,5.1-9.1,9-12c2.9-2.2,6.2-2.8,9-5c3.7-3,5.1-9,9-12  c21-15.9,39.8-33.5,61-49c5.5-4,8.9-15.7,12-18c2.7-0.7,5.3-1.3,8-2c4-4.3,8-8.7,12-13c4-3.9,9.3-5.6,14-9c2.3-2.7,4.7-5.3,7-8  C847.2,149.4,857.2,146.9,862.5,139z M1438.5,1192c-7,2.4-15.7,3.7-23,7c-3.4,1.5-6.4,5.6-10,7c-10.6,4.3-22.6,3.8-32,7  c-5.6,1.9-11.7,7-17,9c-1,0.4-6.5-1.2-10,0c-1.9,0.6-4.9,3.4-7,4c-5,0-10,0-15,0c-22.7,6.3-49.1,8.1-71,15c-4.3,0.3-8.7,0.7-13,1  c-8.7,3-18.9,9.8-27,13c-4.6,1.8-8,0.9-12,3c-2.8,1.5-5,5.8-8,7c-5.8,2.2-10.4,0.3-15,3c-9.5,5.5-21.3,12.9-32,17  c-4.7,0.7-9.3,1.3-14,2c-4,1.2-8,4.8-12,6c-2.7,0-5.3,0-8,0c-2.9,0.8-7.3,3.2-10,4c-4,0-8,0-12,0c-5.6,1.5-12.8,5.5-18,7  c-5.3,0-10.7,0-16,0c-33.7,7.4-76.6-6-101-15c-9.3-3.4-18-1.9-28-5c-8.1-2.5-18.6-6.6-27-9c-5.7,0-11.3,0-17,0c-5.6-1.6-14-5.3-20-7  c-4-1.1-36.4,1.9-41,3c-23.3,0-46.7,0-70,0c-1.4-0.4-4.7-2.6-6-3c-9.3-0.3-18.7-0.7-28-1c-1.3,0.3-5.2,1.8-8,1  c-14.7-4-40.9-7.7-59-13c-3.7,0-7.3,0-11,0c-1.9-0.6-4.9-3.3-7-4c-2.3,0-4.7,0-7,0c-5.1-1.8-12.7-6.9-18-9c-14.4-5.6-26.4-7.1-40-13  c-9.7-4.2-21.1-12.8-31-16c-1,1.8-1.3,1.7-2,4c-5.8,9.3,3.1,18.8,1,29c-2,9.6,1.7,24.3-1,35c-2.7,11-3.1,27.7-3,43  c-3.1,2.1-2.9,3.5-8,4c-3.2-5.1-3.2-13-3-22c-1.5-2.3,1-17.1,1-28c0-25.9-3.1-58.5,2-81c3.2-2,4-3,10-3c12.7,17.3,40.5,20.9,63,29  c4,1.4,7.9,6.3,12,8c3,0.3,6,0.7,9,1c14.2,4.3,31.1,10.6,46,15c7.7,0.3,15.3,0.7,23,1c2.3,0.7,5.7,3.3,8,4c7,0.3,14,0.7,21,1  c1.5,0.4,5.3,2.6,7,3c9.3,0,18.7,0,28,0c9.4,2.3,25.6,2.3,35,0c17.1-4.2,36.4,3,49,0c16.8-4,34.7,2.2,49,1c8.3-0.7,24.3,5,35,8  c3.3,0,6.7,0,10,0c8,2,16.9,6.8,24,9c7.2,2.3,12,0.7,20,3c5.9,1.7,13.7,7.2,20,9c5,0.3,10,0.7,15,1c10.5,2.9,26.8,6.7,38,4  c9,0,18,0,27,0c4.3-1.2,8.4-4.8,13-6c2.7,0,5.3,0,8,0c1.2-0.4,5.3-2.6,7-3c4.7,0,9.3,0,14,0c5.2-1.4,11.3-5.2,16-7c4.7-1,9.3-2,14-3  c32.4-14,63.7-31.5,99-43c5-0.7,10-1.3,15-2c6.4-2.1,17.9-6,24-8c6.7,0,13.3,0,20,0c5.1-1.4,13.8-3.7,19-5c3.7,0,7.3,0,11,0  c2.2-0.6,5.1-3.3,7-4c8.2-3.1,19.5-4.8,27-7c9.2-2.7,16.3-1.5,25-5c5.4-2.2,10.3-6.5,15-9c4.8-2.5,8.6-1.9,14-4  c14.4-5.6,28.2-15.2,41-23c5.1-3.1,11.7-2.8,17-6c45.8-27.9,94.2-54.1,140-82c3.3-2,7.1-1.4,11-3c9.5-4,20.8-11.4,31-15  c8.4-2.9,15.3-1,24-4c5-1.7,11.5-6.4,17-8c8-2.4,10.1-0.2,14-1c10-2.1,22.8,2.5,30-3c34.7-0.9,64.3,3.8,86,10c12,3.4,31.1-2.5,32,12  c-0.7,0-1.3,0-2,0c-9,6-46-3.2-55-6c-13.7-0.3-27.3-0.7-41-1c-26.2,0-50.3-4.4-72,3c-12.7,4.3-26.4,11.1-38,16  c-3.3,0.7-6.7,1.3-10,2c-7.9,4-17.9,11.5-26,15c-4.3,0.7-8.7,1.3-13,2c-2,2.3-4,4.7-6,7c-3.5,2.4-7.4,2.6-11,5c-3.1,2-5.8,6-9,8  c-7.7,4.8-17.3,5.8-25,11c-7.4,4.9-15.2,12.4-23,17c-10.6,6.3-22.5,8.5-33,15c-3.9,2.4-8,6.6-12,9c-4,1.3-8,2.7-12,4  c-9.2,5.5-17.2,11-28,16c0.3,0.3,0.7,0.7,1,1 M949.5,1209c3.9,0.4,5.6,1,7,4c2.1,3.3-0.3,6.2-1,10c5.9,0.9,12.1,1.9,14,7  c1.5,1.6,1.6,2,2,5c-4,5.4-4.3,15.4-11,18c-13.1,8.8-6.1-13.4-5-17c-1.8-1-1.7-1.3-4-2c-1.1,1.6-3,1.7-4,3c-4.7,6.2-1.2,13.5-12,14  c-1.9-3.1-2.9-3.4-3-9c6.4-7.3,8.3-20.2,12-30C946,1211.2,948.2,1210.1,949.5,1209z M917.5,1210c5.8,0.5,9.1,2.5,10,8  c0.7,1.5,0.1,0.1,0,3c-2,0.3-4,0.7-6,1c-1.7-2-2.1-1.9-6-2c-0.5,1.5-0.7,1.7-1,4c7.8,2.4,13,3.8,13,14c-0.3,0-0.7,0-1,0  c-2.2,7.3-8,10.3-18,10c-5-3.4-9.8-2.7-12-9c-1-1.5-1-4.1-1-7c1.3-0.7,2.1-1.1,3-2c7.7,1.8,9.6,7.1,18,8c0.3-0.7,0.7-1.3,1-2  c-5.1-3.1-18.4-13.9-10-21C910.3,1212.7,914.6,1212.2,917.5,1210z M1033.5,1222c4,0.7,6.6,1.4,8,5c7.5,8.4-3.5,20.1-5,26  c-1.4,5.5,2,8.9,1,14c-2,0.7-4.7,1-8,1c-4.1-2.6-8.7,0.7-13-2c-2.9-0.9-3.5-1.8-5-4c-2.9-3.4-3.9-11.2-1-15c4.1-12.1,17.7-8.3,21-16  c-2-1.7-1.9-2.1-2-6C1031,1224.1,1032.4,1223.2,1033.5,1222z M992.5,1231c3.1-0.1,6.3-0.1,8,1c4.4,1.3,5.9,3.3,6,9  c-5.4,5.9-5.5,8.4-18,8c-0.7,0.7-1.3,1.3-2,2c0,0.7,0,1.3,0,2c5.4,0.9,9.5,1.7,10,8c-1.8,1-1.7,1.3-4,2c-2.2,1.7-6.9,2.3-10,0  c-4.9-1.4-9.5-4.9-10-11c-4.1-7.6,8.4-18.1,14-20C988.8,1231.2,991,1231.9,992.5,1231z M997.5,1237c0.7,0.7,1.3,1.3,2,2  c-0.6,1.7-0.2,1-1,2c-1,0.8-0.2,0.4-2,1c-2.2-2.1-3.7-1.7-5-5C993.5,1237,995.5,1237,997.5,1237z M1024.5,1253c-1,0.8-0.2,0.4-2,1  c-0.3-0.3-0.7-0.7-1-1c0.2-4.2,0.8-5.3,2-8c1.5-0.5,1.7-0.7,4-1C1027.3,1248.2,1026.6,1250.8,1024.5,1253z"
     id="path168" /></svg>