<?xml version="1.0" encoding="utf-8" standalone="no"?>
<svg
   xmlns:dc="http://purl.org/dc/elements/1.1/"
   xmlns:cc="http://creativecommons.org/ns#"
   xmlns:rdf="http://www.w3.org/1999/02/22-rdf-syntax-ns#"
   xmlns:svg="http://www.w3.org/2000/svg"
   xmlns="http://www.w3.org/2000/svg"
   viewBox="0 0 144.63367 103.89422"
   version="1.1"
   id="svg8">
  <title
     id="title38">Illustration of the crime scene.</title>
  <defs
     id="defs2" />
  <metadata
     id="metadata5">
    <rdf:RDF>
      <cc:Work
         rdf:about="">
        <dc:format>image/svg+xml</dc:format>
        <dc:type
           rdf:resource="http://purl.org/dc/dcmitype/StillImage" />
        <dc:title>Illustration of the crime scene.</dc:title>
      </cc:Work>
    </rdf:RDF>
  </metadata>
  <g
     transform="translate(-28.983405,-14.576792)"
     id="layer1">
    <path
       style="stroke-width:0.1763889"
       d="m 29.092345,118.34825 c -0.0628,-0.0628 -0.111763,-2.18454 -0.108813,-4.71499 0.003,-2.56173 0.07071,-4.48355 0.152809,-4.33623 0.08109,0.14552 0.197879,1.96845 0.25952,4.05095 0.07882,2.66282 0.177412,3.85095 0.332261,4.00404 0.172796,0.17083 8.628955,0.23531 39.290327,0.2996 46.111701,0.0967 65.616581,0.18043 87.417661,0.37534 10.69578,0.0956 16.10486,0.0846 16.17756,-0.0331 0.0601,-0.0972 0.15287,-5.36796 0.20624,-11.71283 0.0534,-6.344873 0.14386,-13.798318 0.20109,-16.563214 0.15875,-7.669294 0.1684,-19.308118 0.0203,-24.518057 -0.19011,-6.689202 -0.13982,-20.297653 0.14699,-39.775829 0.11838,-8.038782 0.1044,-8.84072 -0.1579,-9.058403 -0.23577,-0.195673 -3.14891,-0.252389 -16.12243,-0.313891 -8.70907,-0.04129 -20.75592,-0.112097 -26.77079,-0.157357 -6.01486,-0.04526 -13.07923,-0.07878 -15.69861,-0.07448 -2.61937,0.0043 -9.48531,-0.0014 -15.257639,-0.01267 -5.772327,-0.01127 -10.733265,-0.0073 -11.024306,0.0088 -0.868573,0.04802 -0.875759,0.04793 -5.909028,-0.08071 -4.149701,-0.106055 -18.443967,-0.190396 -45.409311,-0.267929 -4.925029,-0.01416 -6.388843,0.03197 -6.56184,0.206791 -0.164968,0.166706 -0.247949,1.619173 -0.320213,5.604879 -0.05365,2.958924 -0.145119,6.047676 -0.20327,6.863895 -0.157351,2.208583 -0.195285,41.715652 -0.04261,44.37708 0.07235,1.261181 0.126914,6.976181 0.121257,12.700001 -0.0057,5.723819 -0.0077,10.605382 -0.0046,10.847917 0.0031,0.242535 -0.109791,2.306285 -0.250927,4.586117 -0.141137,2.27982 -0.276539,5.03415 -0.300894,6.12072 -0.02435,1.08658 -0.111355,2.03908 -0.193336,2.11667 -0.08198,0.0776 -0.08352,-3.15298 -0.0034,-7.17906 0.0801,-4.026079 0.116321,-11.527017 0.0805,-16.668753 -0.03582,-5.141737 -0.07131,-22.978452 -0.07886,-39.637145 -0.01218,-26.880167 0.01645,-30.318707 0.254446,-30.556665 0.313484,-0.313437 4.388012,-0.3376 28.747804,-0.170481 14.023383,0.09621 22.48393,0.127694 86.165987,0.320676 15.03715,0.04557 27.79668,0.13541 28.35451,0.199648 l 1.01424,0.116796 v 51.577316 51.577318 l -72.20528,-0.004 c -39.712899,-0.002 -72.256651,-0.0557 -72.319449,-0.11847 z m 28.003608,-15.44531 c 0.0661,-2.06155 0.159016,-4.595884 0.206486,-5.63186 l 0.08631,-1.88359 -0.755634,-0.509044 c -0.992578,-0.668663 -2.308709,-1.424909 -3.400614,-1.953987 -0.4846,-0.234811 -1.237404,-0.672077 -1.672895,-0.971704 -0.435492,-0.299626 -2.368842,-1.350927 -4.296331,-2.336223 -1.92749,-0.985296 -3.655156,-1.92042 -3.839259,-2.078052 -0.374543,-0.320694 -0.455299,-0.876921 -0.114245,-0.78689 0.333085,0.08793 3.242561,1.652138 4.542015,2.441907 0.63059,0.383252 1.384652,0.818568 1.675694,0.967366 0.291042,0.148796 1.084792,0.572683 1.763889,0.941969 0.679097,0.369286 2.334624,1.243442 3.678949,1.942566 1.344323,0.699126 2.562542,1.389454 2.707151,1.534063 0.21982,0.219821 0.258826,0.956263 0.237931,4.492073 -0.01374,2.326036 -0.10027,4.883796 -0.192271,5.683916 -0.092,0.80013 -0.167879,1.554 -0.168615,1.67526 -7.06e-4,0.12127 -0.131253,0.22049 -0.290036,0.22049 -0.262052,0 -0.277606,-0.34596 -0.16852,-3.74826 z m 8.058274,0.8072 c 0.03355,-4.572876 0.183291,-6.303237 0.551538,-6.373486 0.166807,-0.03182 0.484307,0.116034 0.705555,0.328567 0.443112,0.425658 1.714825,1.035962 3.271907,1.570209 0.556004,0.190769 1.566541,0.554293 2.245639,0.80783 1.692047,0.63172 3.465137,1.0584 6.173611,1.48563 1.942009,0.30634 3.251684,0.36832 8.554862,0.40486 4.455564,0.0307 6.367488,0.10383 6.628176,0.25351 0.201505,0.1157 0.575535,0.23838 0.831178,0.27261 0.255644,0.0342 0.520725,0.11817 0.589069,0.18651 0.06835,0.0684 0.292844,0.12426 0.498889,0.12426 0.206046,0 1.125473,0.244 2.043171,0.54222 2.65596,0.86309 4.928148,1.21895 6.607438,1.03483 0.77611,-0.0851 1.88736,-0.27348 2.46944,-0.41863 0.58209,-0.14515 1.24693,-0.26673 1.47744,-0.27019 0.44533,-0.007 3.22126,-1.04233 4.2552,-1.58754 1.44911,-0.76414 4.95805,-2.097145 6.26181,-2.37878 0.77611,-0.167656 1.59344,-0.377107 1.81628,-0.46545 0.22285,-0.08834 0.7178,-0.160623 1.0999,-0.160623 0.74181,0 1.18709,-0.09043 4.49215,-0.912251 1.83463,-0.456195 4.12481,-1.303426 5.29167,-1.957603 0.19403,-0.108779 1.33672,-0.701046 2.53933,-1.316147 1.2026,-0.615102 2.39322,-1.262576 2.64583,-1.438829 0.25261,-0.176253 0.89529,-0.536997 1.4282,-0.801652 0.5329,-0.264656 1.33411,-0.743566 1.78047,-1.064243 0.44636,-0.320677 1.06116,-0.63787 1.36622,-0.704873 0.30506,-0.067 0.60192,-0.198307 0.6597,-0.291788 0.1291,-0.208886 1.30241,-0.962748 2.36844,-1.521735 0.98258,-0.515228 4.12692,-1.808935 4.3966,-1.808935 0.10908,0 0.64487,-0.156946 1.19064,-0.34877 0.62813,-0.22077 1.9374,-0.424865 3.56747,-0.556114 2.48293,-0.199919 2.67939,-0.190237 5.48557,0.270337 3.34708,0.549351 3.52778,0.592646 3.52778,0.845265 0,0.191174 -0.17984,0.178888 -3.175,-0.21689 -0.82462,-0.108962 -3.04712,-0.211601 -4.93889,-0.228083 -3.77631,-0.0329 -3.90318,-0.0068 -7.12425,1.467194 -2.01976,0.924243 -2.73409,1.236506 -2.82862,1.236506 -0.0519,0 -0.54466,0.297656 -1.09493,0.661458 -0.55026,0.363802 -1.44477,0.908616 -1.9878,1.210696 -0.54302,0.30208 -1.68879,0.958829 -2.54614,1.459442 -0.85735,0.500611 -2.32579,1.314584 -3.26319,1.808829 -0.93741,0.494244 -2.14094,1.157184 -2.67452,1.473202 -0.53357,0.316017 -1.27546,0.672481 -1.64864,0.792142 -0.37318,0.119662 -0.88912,0.327451 -1.14653,0.461758 -0.25741,0.134304 -0.5681,0.244677 -0.69043,0.245275 -0.12232,5.3e-4 -0.55889,0.148007 -0.97014,0.327576 -1.48405,0.647998 -4.88417,1.42534 -7.49855,1.714338 -0.60851,0.06727 -1.14897,0.191218 -1.20103,0.275458 -0.0521,0.0842 -0.30826,0.15377 -0.56932,0.15451 -0.51931,0.001 -2.18457,0.49002 -3.29688,0.96722 -1.79733,0.77108 -2.34775,1.02152 -3.08681,1.40448 -1.1194,0.58005 -3.15599,1.28487 -4.64283,1.60679 -0.69641,0.15078 -1.76974,0.39413 -2.38517,0.54078 -2.00896,0.47872 -5.16777,0.29266 -7.488258,-0.44106 -0.601788,-0.19028 -1.57041,-0.47435 -2.152493,-0.63125 -0.582084,-0.15691 -1.455209,-0.39584 -1.940278,-0.53095 -2.401066,-0.6688 -4.999223,-0.82864 -9.260418,-0.5697 -0.727604,0.0442 -1.759479,0.0136 -2.293055,-0.0679 -0.533577,-0.0816 -1.656156,-0.18804 -2.494623,-0.23659 -0.838466,-0.0485 -1.870341,-0.16375 -2.293055,-0.25601 -0.422715,-0.0923 -1.324198,-0.26522 -2.003295,-0.38433 -1.077047,-0.18891 -3.240603,-0.86271 -5.909028,-1.84025 -0.436563,-0.15993 -1.290056,-0.523805 -1.896652,-0.808609 -0.606596,-0.284807 -1.209769,-0.517831 -1.340383,-0.517831 -0.188016,0 -0.242318,0.578672 -0.260694,2.77813 -0.03625,4.33843 -0.112836,5.23766 -0.451834,5.30512 -0.259526,0.0517 -0.286978,-0.24711 -0.267437,-2.91042 z m 35.359643,-1.6843 c -0.15102,-0.21561 -0.27459,-0.52735 -0.27459,-0.69275 0,-0.35198 0.75975,-0.9945 1.35158,-1.14304 0.25037,-0.0628 0.41231,-0.23453 0.41231,-0.43714 0,-0.216062 0.12433,-0.333655 0.35278,-0.333655 0.27607,0 0.35278,0.117593 0.35278,0.540762 0,0.297423 -0.0916,0.711873 -0.2035,0.921013 -0.11193,0.20913 -0.19372,0.64047 -0.18176,0.95854 0.0214,0.56939 0.01,0.5783 -0.75664,0.5783 -0.60439,0 -0.83975,-0.0876 -1.05296,-0.39203 z m 1.13848,-0.66995 c 0.22765,-0.42537 0.0885,-0.72555 -0.27219,-0.58714 -0.28413,0.10903 -0.36263,0.94356 -0.0888,0.94356 0.0936,0 0.25602,-0.16039 0.36094,-0.35642 z m 3.92107,0.86678 c -0.43404,-0.16056 -0.44342,-0.17958 -0.28818,-0.58413 0.14008,-0.36503 0.41644,-0.35417 0.6954,0.0273 0.21166,0.28945 0.24433,0.28794 0.59271,-0.0273 0.48724,-0.44094 0.46546,-0.90685 -0.0723,-1.54589 -0.55074,-0.654515 -0.54905,-0.739157 0.0238,-1.189749 0.54661,-0.429962 0.94635,-0.472624 0.94635,-0.100997 0,0.145521 -0.11906,0.264583 -0.26458,0.264583 -0.36325,0 -0.33149,0.300278 0.0882,0.833813 0.19403,0.24667 0.35278,0.55684 0.35278,0.68928 0,0.13244 0.0794,0.2408 0.17639,0.2408 0.097,0 0.17639,-0.22934 0.17639,-0.50963 0,-0.28029 0.14226,-0.685319 0.31615,-0.900055 0.28626,-0.353515 0.33833,-0.363701 0.55076,-0.107734 0.18733,0.225714 0.19056,0.335774 0.016,0.546049 -0.12021,0.14484 -0.23321,0.52188 -0.25112,0.83785 -0.0287,0.50707 -0.0865,0.56883 -0.49251,0.52623 -0.32072,-0.0336 -0.5681,0.0892 -0.81716,0.40585 -0.42164,0.53603 -1.19527,0.79863 -1.74915,0.59374 z m -7.620986,-0.49876 c -0.276847,-0.5173 -0.226017,-0.74072 0.291379,-1.28077 0.587146,-0.612844 1.44562,-0.674402 1.786777,-0.12812 0.33764,0.54064 -0.03898,0.93134 -0.781607,0.81083 -0.311131,-0.0505 -0.607,-0.0505 -0.657486,-1e-5 -0.157562,0.15756 0.08622,0.58647 0.333332,0.58647 0.129417,0 0.284359,0.0794 0.344317,0.17639 0.0648,0.10485 -0.143091,0.17639 -0.512551,0.17639 -0.433996,0 -0.676667,-0.10296 -0.804161,-0.34118 z m -1.505511,-1.06993 c 0.0979,-0.57946 0.06864,-0.705558 -0.163738,-0.705558 -0.155617,0 -0.415421,0.277808 -0.57734,0.617358 -0.387641,0.81289 -0.834413,0.84258 -0.66368,0.0441 0.06742,-0.3153 0.183073,-0.652639 0.25701,-0.749653 0.07394,-0.09701 0.193223,-0.374826 0.265079,-0.617361 0.07185,-0.242535 0.254319,-0.581753 0.405475,-0.753821 0.164638,-0.187413 0.209316,-0.371676 0.111429,-0.459572 -0.219879,-0.197439 -1.911193,-0.726885 -2.322031,-0.726885 -0.180649,0 -0.40386,-0.07492 -0.496024,-0.166497 -0.367338,-0.364989 -5.234637,-0.927925 -7.664097,-0.886405 -5.705181,0.0975 -6.100398,0.07712 -10.117289,-0.521609 -1.60244,-0.238848 -2.416607,-0.503602 -5.228546,-1.700239 -0.533576,-0.227067 -1.168576,-0.465386 -1.411111,-0.5296 -0.242535,-0.06421 -0.599722,-0.257256 -0.79375,-0.428983 -0.194028,-0.171727 -0.549349,-0.372096 -0.789602,-0.445266 -0.727837,-0.221659 -1.593887,-0.856282 -1.679132,-1.230429 -0.183912,-0.807212 -0.338541,-48.375412 -0.158775,-48.843876 0.05282,-0.137652 0.852516,-0.911245 1.777097,-1.719095 0.924582,-0.807851 1.895625,-1.667916 2.157879,-1.911259 0.262251,-0.243342 1.737021,-1.553689 3.277263,-2.911884 4.440481,-3.915639 6.693125,-5.957801 6.843609,-6.204158 0.0767,-0.125561 0.910135,-0.852549 1.852084,-1.615529 0.941948,-0.762981 2.258954,-1.915211 2.926678,-2.560512 0.667724,-0.6453 1.281051,-1.173274 1.362948,-1.173274 0.0819,0 0.277753,-0.196649 0.435234,-0.436998 0.303952,-0.463889 3.601273,-2.914391 3.921516,-2.914391 0.52557,0 0.252581,0.38528 -0.885623,1.249909 -0.691407,0.525224 -1.544133,1.232765 -1.894946,1.572314 -1.6569,1.603703 -3.529348,3.298367 -4.329562,3.918484 -0.933784,0.723625 -2.21868,1.853978 -4.568494,4.019016 -0.789702,0.727604 -2.10333,1.918229 -2.919173,2.645833 -0.815844,0.727605 -1.885811,1.690665 -2.377705,2.140134 -0.491894,0.449471 -1.172164,1.043095 -1.511713,1.319168 -0.339548,0.276072 -1.053923,0.912443 -1.5875,1.414158 -0.533576,0.501715 -1.238751,1.138401 -1.567056,1.414861 -1.51758,1.277924 -2.085669,1.962245 -2.19334,2.642106 -0.195864,1.236727 -0.229223,15.66827 -0.079,34.178466 0.10268,12.652369 0.126323,13.404047 0.430619,13.691241 1.005811,0.949283 5.602233,2.926493 8.171281,3.514983 0.921632,0.211118 1.993194,0.458976 2.38125,0.550797 0.89045,0.210695 0.356595,0.192472 7.496528,0.255902 6.327453,0.05621 6.515471,0.06541 7.672918,0.375454 0.388055,0.103948 1.142118,0.286403 1.675694,0.405456 0.533577,0.119052 1.208264,0.322635 1.499306,0.452404 0.291041,0.129772 1.561042,0.489952 2.822222,0.800406 2.275745,0.560198 2.309695,0.563024 4.497915,0.374246 2.67925,-0.23114 4.47084,-0.766511 7.67292,-2.29286 1.36735,-0.651782 1.95034,-0.896804 2.9594,-1.243778 1.05727,-0.363548 5.62895,-1.264479 8.24129,-1.62409 0.82462,-0.113515 1.81681,-0.304677 2.20486,-0.424803 0.38806,-0.120126 1.29164,-0.396566 2.00796,-0.614311 1.35023,-0.410443 4.06007,-1.636974 5.55406,-2.51389 1.01783,-0.597425 4.48779,-2.478994 5.93173,-3.216453 1.13719,-0.580787 3.17508,-1.505149 3.31833,-1.505149 0.0879,0 0.62733,-0.23712 1.19883,-0.526932 0.5715,-0.289814 1.10647,-0.527939 1.18883,-0.529167 0.0823,-0.0012 0.39985,-0.110612 0.70555,-0.243073 0.57832,-0.250581 4.6178,-1.528302 5.84749,-1.849608 2.51747,-0.657788 6.66337,-0.656171 10.49514,0.0041 1.13251,0.195146 1.40314,0.354744 1.40841,0.830608 0.002,0.187404 -0.14982,0.213261 -0.65875,0.112138 -1.15705,-0.229899 -2.88729,-0.43031 -5.24757,-0.607815 -2.68557,-0.201969 -3.63149,-0.108889 -7.02292,0.69107 -1.51885,0.358264 -2.85171,0.751551 -3.56042,1.050574 -0.19403,0.08187 -0.74965,0.289049 -1.23472,0.460407 -0.76351,0.269723 -5.67394,2.469453 -6.44721,2.888169 -0.15048,0.08148 -1.37869,0.723161 -2.72935,1.425954 -1.35066,0.702792 -2.73566,1.451231 -3.07779,1.663197 -0.34212,0.211967 -1.47409,0.808012 -2.51549,1.324542 -1.79804,0.891829 -1.88791,0.96236 -1.78359,1.399923 0.15528,0.651379 0.21508,0.722877 0.50993,0.609728 0.14365,-0.05512 0.3783,-0.003 0.52143,0.115764 0.21169,0.175686 0.28201,0.154681 0.37682,-0.112559 0.3309,-0.932649 1.43592,-1.443704 1.969,-0.910628 0.31508,0.31508 0.2554,1.037353 -0.13918,1.684514 -0.38712,0.634927 -0.91477,0.743742 -1.52701,0.314908 -0.432,-0.302581 -0.59159,-0.197673 -0.59159,0.388881 0,0.309182 -0.0838,0.408374 -0.30836,0.365122 -0.1696,-0.03266 -0.31626,-0.177387 -0.32592,-0.321613 -0.0407,-0.608318 -0.0838,-0.687314 -0.32472,-0.594874 -0.1394,0.05349 -0.20823,0.215105 -0.15295,0.359142 0.12674,0.33028 -0.28444,1.120031 -0.58314,1.120031 -0.32246,0 -0.48149,-0.33204 -0.27827,-0.58099 0.16393,-0.200815 0.28535,-1.338261 0.23316,-2.184202 -0.0315,-0.510655 -0.47162,-0.57461 -1.4348,-0.208501 -1.06961,0.406562 -3.03651,0.830654 -5.28497,1.139518 -1.02233,0.140436 -2.21597,0.336372 -2.65253,0.435416 -0.43656,0.09904 -0.99219,0.202555 -1.23472,0.230022 -0.61316,0.06944 -3.45098,0.959894 -4.40973,1.383683 -0.43656,0.192971 -1.27,0.568794 -1.85208,0.83516 -2.14684,0.98242 -2.35126,1.066566 -2.5911,1.066566 -0.1346,0 -0.53779,0.149414 -0.89598,0.332029 -0.35819,0.182615 -1.10919,0.390035 -1.66889,0.460931 -1.67752,0.21249 -5.224196,0.114448 -6.336031,-0.175149 -1.356507,-0.353325 -1.642858,-0.338355 -1.678367,0.08774 -0.07309,0.877133 -0.04406,0.957847 0.382176,1.06231 0.36442,0.08931 0.436365,0.206369 0.414435,0.674276 -0.02973,0.63433 -0.327427,1.08563 -0.71612,1.08563 -0.203845,0 -0.23329,-0.14915 -0.139287,-0.70555 z m 33.636357,-7.148539 c 0.26126,-0.57339 -0.0409,-0.973065 -0.46777,-0.618779 -0.41065,0.340812 -0.33322,1.064537 0.1139,1.064537 0.0829,0 0.24217,-0.200591 0.35387,-0.445758 z m -37.384621,7.286029 c -0.218281,-0.10527 -0.396875,-0.33802 -0.396875,-0.51722 0,-0.393311 0.171924,-0.41162 0.627745,-0.0668 0.188316,0.14243 0.441613,0.26149 0.56288,0.26458 0.34398,0.009 0.258983,-0.41466 -0.132292,-0.659013 -0.723919,-0.452093 -0.231304,-1.416224 0.61507,-1.203799 0.483703,0.121401 0.586642,0.413362 0.198286,0.562388 -0.194283,0.07455 -0.205223,0.199331 -0.05286,0.602989 0.159898,0.423615 0.137234,0.569625 -0.135139,0.870595 -0.360622,0.39848 -0.687028,0.4356 -1.286817,0.14633 z m -1.892441,-0.30783 c -0.0579,-0.0937 0.05948,-0.493285 0.260844,-0.887996 0.201365,-0.394711 0.324305,-0.785313 0.273196,-0.868008 -0.152846,-0.247311 0.328886,-0.539678 0.606512,-0.368096 0.200028,0.123624 0.209317,0.237124 0.04609,0.563173 -0.112435,0.224591 -0.322998,0.706004 -0.467917,1.069806 -0.259703,0.651951 -0.512544,0.824721 -0.718723,0.491121 z m 18.810472,-0.66751 c 0.0219,-0.460816 0.005,-0.955026 -0.0385,-1.098243 -0.0521,-0.172875 0.0698,-0.279091 0.36252,-0.316018 0.24254,-0.03059 0.62117,-0.145968 0.84142,-0.256387 0.28959,-0.145195 0.45378,-0.147417 0.59317,-0.008 0.25048,0.25048 0.0441,0.57625 -0.36506,0.57625 -0.43878,0 -0.70381,0.363307 -0.78526,1.076447 -0.0376,0.329591 -0.0773,0.658781 -0.0882,0.731541 -0.0109,0.0728 -0.14128,0.13229 -0.28986,0.13229 -0.21029,0 -0.2613,-0.18564 -0.23023,-0.837847 z m -24.67075,0.35278 c 0.264548,-0.872117 0.592767,-1.565401 0.829455,-1.752017 0.432405,-0.340931 0.605768,0.04225 0.309186,0.683387 -0.14847,0.320958 -0.323811,0.762152 -0.389648,0.98043 -0.07345,0.24352 -0.259373,0.39688 -0.481164,0.39688 -0.262329,0 -0.335783,-0.0847 -0.267829,-0.30868 z m -2.267225,-0.35278 c 0.0657,-0.266788 0.16302,-0.701223 0.216277,-0.965412 0.09724,-0.482363 0.754101,-1.259771 1.320594,-1.56295 0.389844,-0.208638 0.663929,0.174466 0.278954,0.389909 -0.40836,0.22853 -1.18859,1.6529 -1.18859,2.169863 0,0.3444 -0.08992,0.45366 -0.373341,0.45366 -0.318645,0 -0.355842,-0.0711 -0.253894,-0.48507 z m 4.450524,0.36901 c -0.06383,-0.0638 -0.01753,-0.232802 0.102895,-0.37548 0.120424,-0.142677 0.303345,-0.586544 0.406487,-0.986368 l 0.187531,-0.726954 1.047191,0.05972 c 0.575955,0.03285 1.125102,0.134571 1.220325,0.226051 0.223051,0.214285 -0.569092,1.742701 -0.903201,1.742701 -0.276569,0 -0.327185,-0.630897 -0.06368,-0.793749 0.348576,-0.215433 0.189235,-0.643735 -0.217835,-0.585532 -0.250996,0.03589 -0.544181,0.328727 -0.806967,0.806018 -0.386419,0.701843 -0.700146,0.906183 -0.972743,0.633593 z M 76.647257,99.734102 c -0.669908,-0.173591 -0.706554,-0.408762 -0.220474,-1.414833 0.194028,-0.40159 0.352778,-0.913694 0.352778,-1.138006 0,-0.318786 0.0975,-0.407841 0.446507,-0.407841 0.607838,0 0.741059,0.457062 0.277151,0.950868 -0.457472,0.486957 -0.774261,1.466481 -0.524249,1.620998 0.09538,0.05895 0.372872,0.05712 0.616649,-0.0041 0.329998,-0.08282 0.578315,-0.399915 0.972012,-1.241225 0.37005,-0.79078 0.604634,-1.100875 0.781468,-1.033018 0.328014,0.125871 0.329785,0.116519 -0.205125,1.08361 -0.855322,1.54638 -1.372984,1.874695 -2.496717,1.583513 z m 2.601748,0.02066 c 0,-0.120741 0.125063,-0.357723 0.27792,-0.526628 0.243417,-0.268972 0.366762,-0.596145 0.41414,-1.098501 0.01528,-0.162025 1.616889,0.03017 1.823696,0.218841 0.215092,0.196236 -0.316856,1.50605 -0.637124,1.568788 -0.348319,0.06823 -0.40918,-0.662176 -0.0824,-0.988951 0.274397,-0.274397 0.130104,-0.400448 -0.322819,-0.282007 -0.199797,0.05225 -0.474144,0.346695 -0.609658,0.654324 -0.243528,0.552833 -0.86375,0.878932 -0.86375,0.454134 z m 32.719985,-0.449054 c -0.35466,-0.354656 -0.22379,-1.035916 0.30856,-1.60624 0.38035,-0.407476 1.08688,-0.531497 1.27684,-0.224132 0.17366,0.280991 -0.23094,0.856449 -0.645,0.917369 -0.21089,0.03103 -0.41891,0.164008 -0.46226,0.295508 -0.0603,0.182924 0.0504,0.210709 0.47126,0.118277 0.61961,-0.136091 0.70971,0.06084 0.22749,0.497237 -0.40932,0.370433 -0.80777,0.371105 -1.17689,0.002 z m 2.2403,-0.627281 c -0.56493,-0.564923 0.21285,-2.081389 1.06751,-2.081389 0.69914,0 0.89462,0.35742 0.45273,0.827793 -0.21026,0.223811 -0.48752,0.406929 -0.61613,0.406929 -0.12861,0 -0.23384,0.07937 -0.23384,0.176389 0,0.09701 0.15875,0.176389 0.35278,0.176389 0.44892,0 0.45525,0.285524 0.0116,0.522961 -0.44837,0.239959 -0.77479,0.230787 -1.03465,-0.02907 z m 2.27886,-0.882989 c -0.0792,-0.214004 -0.0711,-0.67041 0.0179,-1.014236 0.089,-0.343825 0.20532,-0.80373 0.25838,-1.022012 0.13114,-0.539418 0.52007,-0.501334 0.66217,0.06484 0.0766,0.305276 0.0233,0.563981 -0.15727,0.763542 -0.35238,0.38938 -0.34634,0.710808 0.0184,0.977498 0.16034,0.117245 0.23503,0.30459 0.16598,0.416322 -0.21256,0.34393 -0.8123,0.228432 -0.96559,-0.185953 z M 92.165818,97.445904 c 0.109021,-0.327064 0.488744,-0.38131 0.488744,-0.06982 0,0.153605 -0.125677,0.279282 -0.279282,0.279282 -0.153607,0 -0.247864,-0.09426 -0.209462,-0.209462 z m -5.743664,-0.08452 c -0.20296,-0.202958 -0.128453,-0.411574 0.146991,-0.411574 0.14552,0 0.264583,0.119063 0.264583,0.264584 0,0.275443 -0.208615,0.34995 -0.411574,0.14699 z m 33.555486,-0.543865 c -0.37232,-0.976988 -0.40108,-1.455209 -0.0875,-1.455209 0.1607,0 0.33786,0.119063 0.3937,0.264584 0.12732,0.331789 0.41657,0.346786 0.41657,0.0216 0,-0.133641 0.11065,-0.334818 0.24589,-0.44706 0.18985,-0.157563 0.31046,-0.139513 0.52917,0.07919 0.1558,0.155799 0.28579,0.37682 0.28888,0.491159 0.0108,0.398535 0.52356,-0.480131 0.52356,-0.897093 0,-0.306705 0.0834,-0.403096 0.30868,-0.356893 0.22699,0.04655 0.29384,0.201671 0.25261,0.586197 -0.0308,0.287593 -0.13006,0.598304 -0.22049,0.690467 -0.0904,0.09216 -0.16441,0.304775 -0.16441,0.47247 0,0.167697 -0.13457,0.439468 -0.29904,0.60394 -0.28113,0.281125 -0.32199,0.270256 -0.68215,-0.181432 L 121.1,96.208972 l -0.19062,0.546807 c -0.23603,0.677069 -0.68587,0.706877 -0.93173,0.06174 z m 3.53797,-0.514468 c -0.004,-0.08084 -0.0324,-0.559494 -0.0634,-1.063666 -0.0408,-0.662489 0.012,-0.942913 0.19017,-1.011298 0.14492,-0.05561 0.30236,0.05615 0.38186,0.271059 0.18412,0.497715 -0.009,1.787449 -0.2811,1.877743 -0.12127,0.04023 -0.22365,0.007 -0.2275,-0.07384 z m 1.39422,-0.543866 c -0.19183,-1.06158 0.0243,-2.700865 0.35398,-2.684388 0.061,0.0031 0.24757,0.193618 0.41462,0.423487 0.26586,0.365841 0.27136,0.444805 0.0441,0.633416 -0.34949,0.290045 -0.32843,0.821801 0.0407,1.028386 0.25326,0.141732 0.2637,0.212241 0.0666,0.449737 -0.23779,0.286526 -0.87649,0.390216 -0.92001,0.149362 z m -1.2897,-1.969309 c -0.0568,-0.09189 -0.0281,-0.213546 0.0638,-0.270338 0.0919,-0.05679 0.21355,-0.02808 0.27034,0.06382 0.0568,0.09189 0.0281,0.213545 -0.0638,0.270337 -0.0919,0.05679 -0.21354,0.02808 -0.27033,-0.06382 z m 7.71493,-0.403913 c -0.0999,-0.125683 -0.22138,-0.600991 -0.27003,-1.056242 -0.0664,-0.621383 -0.0246,-0.852237 0.16774,-0.926041 0.39696,-0.15233 0.40374,-0.142138 0.40374,0.607241 0,0.494819 0.0755,0.705556 0.2527,0.705556 0.31986,0 0.49922,-0.547617 0.36045,-1.100519 -0.0685,-0.273025 -0.0108,-0.504544 0.16153,-0.647546 0.41843,-0.347261 0.61171,-0.08179 0.50729,0.69675 -0.0759,0.565693 -0.027,0.763138 0.23727,0.958229 0.41408,0.305698 0.17628,0.60159 -0.5624,0.699811 -0.28373,0.03773 -0.64206,0.118695 -0.79629,0.179932 -0.15423,0.06124 -0.36213,0.0085 -0.462,-0.117171 z m 2.18293,-1.139857 c -0.3597,-0.359703 0.10982,-2.881018 0.53651,-2.881018 0.42229,0 0.59381,0.639979 0.31487,1.174812 -0.41414,0.794044 -0.2841,1.244764 0.2151,0.745557 0.10797,-0.107963 0.28405,-0.142066 0.3913,-0.07578 0.12633,0.07808 0.0232,0.302482 -0.29274,0.63727 -0.46788,0.495713 -0.91522,0.648982 -1.16504,0.399163 z M 61.892572,90.587731 c -0.378227,-0.284399 -0.798887,-0.517088 -0.934801,-0.517088 -0.135917,0 -0.481302,-0.121101 -0.767527,-0.269113 -0.438473,-0.226742 -0.520407,-0.375181 -0.520407,-0.9428 0,-1.321282 1.158103,-1.650439 1.940578,-0.551554 0.430971,0.605241 0.633419,0.648432 1.09241,0.233052 0.217431,-0.196772 0.385639,-0.236791 0.502807,-0.119623 0.223511,0.223511 -0.370653,0.944483 -0.77836,0.944483 -0.170397,0 -0.28799,0.144046 -0.28799,0.352778 0,0.194027 0.1014,0.352777 0.225335,0.352777 0.4055,0 0.998366,0.529035 0.894934,0.798578 -0.149076,0.388481 -0.599259,0.29578 -1.366979,-0.28149 z m -0.458846,-1.394966 c 0,-0.39185 -0.767039,-0.977846 -1.050576,-0.80261 -0.321354,0.198606 -0.198875,0.737531 0.212729,0.936041 0.600288,0.289507 0.837847,0.251675 0.837847,-0.133431 z m 74.921184,1.30496 c -0.44336,-0.446072 0.13169,-1.868389 0.92027,-2.276179 0.7525,-0.389131 1.06411,-0.341401 1.06411,0.162992 0,0.23681 0.0794,0.479619 0.17639,0.539578 0.34247,0.211657 0.17,0.774276 -0.35111,1.145333 -0.56612,0.403119 -1.5931,0.646162 -1.80966,0.428276 z m 1.07743,-1.355753 c -0.16875,-0.315304 -0.2142,-0.326341 -0.34936,-0.08483 -0.23134,0.413385 -0.003,0.900695 0.30306,0.646707 0.18375,-0.152497 0.19464,-0.28469 0.0463,-0.561874 z M 56.053865,88.268289 c -0.48507,-0.297305 -1.636008,-0.968773 -2.55764,-1.492151 -0.921632,-0.523378 -1.874132,-1.072229 -2.116666,-1.219673 -0.242535,-0.147443 -1.353785,-0.720808 -2.469445,-1.274145 -2.534582,-1.257081 -5.465927,-3.047801 -5.46714,-3.339802 -0.0016,-0.390428 0.510729,-0.237661 1.77472,0.529167 1.997113,1.21159 2.267871,1.365862 4.458271,2.54021 1.148822,0.615923 2.180697,1.126313 2.293055,1.134201 0.219846,0.01543 0.970608,0.422983 3.484792,1.891701 0.881155,0.514745 1.733827,0.910558 1.894826,0.879582 0.164838,-0.03171 0.309739,-0.247944 0.331666,-0.494931 0.119151,-1.342074 0.119643,-9.883179 8.82e-4,-16.401806 -0.16377,-8.993914 -0.207467,-16.998959 -0.133941,-24.537221 0.05564,-5.70434 0.01087,-6.217478 -0.698463,-8.00653 -0.07693,-0.194028 -0.302203,-1.027466 -0.500609,-1.852084 -0.198406,-0.824618 -0.514052,-1.935868 -0.701437,-2.469444 -0.187385,-0.533577 -0.438157,-1.327327 -0.557273,-1.763889 -0.119115,-0.436563 -0.288212,-0.93158 -0.37577,-1.100038 -0.08756,-0.168457 -0.159198,-0.450239 -0.159198,-0.62618 0,-0.175942 -0.07653,-0.396422 -0.170063,-0.489957 -0.09353,-0.09353 -0.293409,-0.756434 -0.444167,-1.473109 -0.150758,-0.716676 -0.476742,-1.866492 -0.72441,-2.555146 -0.544179,-1.513123 -1.240725,-3.640806 -1.507054,-4.603488 -0.107356,-0.388055 -0.304744,-1.004818 -0.438639,-1.370583 -0.330831,-0.903743 -0.30877,-1.04448 0.15343,-0.978838 0.29207,0.04148 0.41253,0.193957 0.45616,0.577396 0.0326,0.286567 0.171511,0.68126 0.30868,0.877095 0.137167,0.195836 0.249397,0.560653 0.249397,0.810706 0,0.250053 0.07135,0.530047 0.15855,0.622211 0.136645,0.144418 0.55441,1.446904 1.072113,3.342569 0.07948,0.291042 0.361476,1.084792 0.626652,1.763889 0.265177,0.679097 0.520315,1.552222 0.566975,1.940278 0.04666,0.388056 0.148185,0.784931 0.225614,0.881945 0.07743,0.09701 0.272431,0.692326 0.43334,1.322916 0.160907,0.630591 0.412782,1.503716 0.559721,1.940278 0.146939,0.436563 0.412529,1.349375 0.590202,2.028472 0.177673,0.679098 0.405705,1.472848 0.506737,1.763889 1.037624,2.989037 0.970117,1.803436 1.003987,17.632494 0.01702,7.958657 0.09981,17.446849 0.183965,21.08487 0.161316,6.973902 0.16185,7.038977 0.08417,10.230556 -0.0724,2.97458 -0.525597,3.401019 -2.396053,2.25459 z m 84.263185,0.181781 c -0.11763,-0.11763 -0.21387,-0.548103 -0.21387,-0.956608 0,-0.706263 0.0391,-0.761695 0.79736,-1.128735 0.43855,-0.212298 0.90635,-0.344176 1.03956,-0.293058 0.26829,0.102953 0.48282,1.696489 0.26249,1.949826 -0.2679,0.308045 -0.6883,-0.05301 -0.6883,-0.59115 0,-0.357697 -0.0876,-0.534702 -0.26459,-0.534702 -0.14552,0 -0.27142,0.09922 -0.27977,0.220486 -0.008,0.121268 -0.0282,0.491303 -0.0441,0.822304 -0.0313,0.65138 -0.26914,0.851281 -0.60878,0.511637 z M 61.970684,87.240988 c -0.432278,-0.16423 -0.81591,-0.388451 -0.852516,-0.498269 -0.09473,-0.284185 0.476345,-0.4624 0.71547,-0.223275 0.109896,0.109896 0.340195,0.19981 0.511775,0.19981 0.44789,0 0.207554,-0.507158 -0.300801,-0.634747 -0.224693,-0.0564 -0.544243,-0.252492 -0.710108,-0.435773 -0.27837,-0.307594 -0.279197,-0.341824 -0.01074,-0.444842 0.159961,-0.06138 0.411481,-0.01148 0.558934,0.110894 0.147452,0.122375 0.482508,0.230473 0.744571,0.24022 0.414524,0.01542 0.491298,0.109016 0.590451,0.719874 0.198388,1.222196 -0.05542,1.418826 -1.247041,0.966108 z m 80.855956,-0.424903 c -0.35516,-0.542052 -0.21621,-1.007195 0.4745,-1.588389 0.84942,-0.71474 1.53252,-0.526777 1.41418,0.389128 -0.034,0.26317 0.041,0.396875 0.22257,0.396875 0.32332,0 0.53766,-0.702575 0.3728,-1.221993 -0.0765,-0.241199 -0.037,-0.370097 0.11636,-0.379003 0.36789,-0.02137 0.7061,-0.112289 1.53337,-0.412226 1.24794,-0.452452 1.38636,-0.400092 1.4752,0.558013 0.0485,0.523304 -0.005,0.928457 -0.1417,1.079204 -0.33274,0.366062 -0.60602,0.07754 -0.60602,-0.639822 0,-0.826354 -0.36854,-0.527495 -0.4114,0.33362 -0.0232,0.466564 -0.10526,0.594012 -0.38235,0.594012 -0.27531,0 -0.34549,-0.106523 -0.31957,-0.485069 0.0219,-0.319719 -0.0533,-0.48507 -0.22049,-0.48507 -0.25695,0 -0.33639,0.29355 -0.27445,1.014236 0.0326,0.378951 -0.18237,0.489608 -0.80284,0.413315 -0.11343,-0.01395 -0.56527,0.175084 -1.00408,0.420072 -0.98644,0.550721 -1.09318,0.551688 -1.44608,0.01311 z m 1.15709,-0.802386 c 0,-0.195988 -0.11759,-0.352778 -0.26458,-0.352778 -0.14552,0 -0.26458,0.0332 -0.26458,0.07377 0,0.04057 -0.0482,0.199322 -0.10707,0.352777 -0.0768,0.200017 -0.002,0.279011 0.26458,0.279011 0.25406,0 0.37165,-0.111621 0.37165,-0.352778 z m 5.04596,-1.160955 c -0.33548,-0.87425 0.28478,-1.837657 1.18312,-1.837657 0.39193,0 0.4737,0.07877 0.4737,0.456294 0,0.345015 -0.12905,0.505007 -0.52917,0.656032 -0.29104,0.109857 -0.52916,0.271634 -0.52916,0.359506 0,0.08787 0.23812,0.112141 0.52916,0.05393 0.38167,-0.07633 0.52917,-0.03857 0.52917,0.135469 0,0.496584 -1.47375,0.653514 -1.65682,0.176424 z M 62.220431,84.642949 c -0.287166,-0.1501 -0.618816,-0.399179 -0.736999,-0.55351 -0.306789,-0.400631 -0.279052,-1.241491 0.04506,-1.365864 0.372008,-0.142752 0.963568,0.432013 0.963568,0.936212 0,0.492476 0.143006,0.525553 0.45375,0.104953 0.356652,-0.482736 0.683557,-0.05764 0.412747,0.536727 -0.274063,0.601504 -0.506965,0.671384 -1.138125,0.341482 z M 61.962893,83.46647 c 0,-0.04278 -0.07937,-0.126841 -0.176389,-0.186799 -0.09701,-0.05996 -0.176389,-0.02496 -0.176389,0.07778 0,0.102739 0.07937,0.186799 0.176389,0.186799 0.09701,0 0.176389,-0.035 0.176389,-0.07778 z m 54.404217,0.904496 c -0.0541,-0.141 0.0269,-0.556073 0.17991,-0.922383 0.16939,-0.405416 0.23683,-0.886965 0.17235,-1.230682 -0.10555,-0.562622 -0.10286,-0.565009 0.74442,-0.660509 0.94697,-0.106737 1.8255,0.223093 1.8255,0.685357 0,0.152314 -0.13887,0.512025 -0.30861,0.799356 -0.30283,0.512653 -0.3007,0.528373 0.11357,0.84086 0.23613,0.178116 0.36753,0.40683 0.29819,0.519031 -0.2214,0.358232 -0.60704,0.21342 -1.10987,-0.416764 -0.61402,-0.769541 -0.8953,-0.782377 -0.96648,-0.0441 -0.0424,0.439754 -0.14789,0.586416 -0.45294,0.629733 -0.22749,0.0323 -0.43976,-0.05324 -0.49604,-0.199896 z m 2.04023,-1.882318 c 0,-0.239999 -0.50746,-0.566129 -0.69783,-0.448474 -0.25407,0.157026 -0.2313,0.576276 0.0364,0.669648 0.27043,0.09433 0.66146,-0.03642 0.66146,-0.221174 z m 2.23416,1.587427 c -0.63698,-0.757011 -0.60155,-1.317764 0.12945,-2.048765 1.06868,-1.068675 2.39889,-0.68041 2.39889,0.700195 0,0.877923 -0.6281,1.621467 -1.52048,1.799943 -0.45397,0.09079 -0.61072,0.0206 -1.00786,-0.451373 z m 1.30522,-0.185248 c 0.25965,-0.138963 0.34118,-0.372107 0.34118,-0.975676 0,-0.87656 -0.26131,-1.114161 -0.86816,-0.789385 -0.28554,0.152813 -0.36656,0.367018 -0.36656,0.969023 0,0.667201 0.10241,0.866129 0.49666,0.964706 0.0306,0.0077 0.20923,-0.06824 0.39688,-0.168668 z m -8.35725,0.341497 c -0.63677,-0.172457 -0.99862,-0.477294 -1.20222,-1.012798 -0.23515,-0.618504 -0.0567,-0.986813 0.73027,-1.50764 0.92237,-0.610392 1.70013,-0.613179 1.97628,-0.0071 0.26148,0.57389 -0.12645,0.915243 -0.57687,0.507612 -0.39184,-0.354605 -0.63037,-0.320375 -0.95028,0.136366 -0.3831,0.546952 -0.34313,1.14638 0.092,1.37924 0.53856,0.288224 0.86817,0.08196 0.86817,-0.543276 0,-0.465674 0.0587,-0.538593 0.39507,-0.490605 0.53637,0.07653 0.60182,0.616825 0.13492,1.11382 -0.46853,0.498726 -0.81876,0.600015 -1.46731,0.424365 z m 10.77752,-0.467584 c -0.31496,-0.3619 -0.54689,-2.282155 -0.29449,-2.438151 0.32152,-0.198708 0.68484,0.319724 0.68484,0.977203 0,0.743673 0.51031,1.353127 0.98159,1.172283 0.23751,-0.09114 0.27807,-0.323418 0.22705,-1.300212 -0.0558,-1.06897 -0.0285,-1.189248 0.26999,-1.189248 0.28531,0 0.3382,0.155847 0.37532,1.10605 0.0556,1.422018 -0.31404,1.980756 -1.31025,1.980756 -0.41379,0 -0.767,-0.116724 -0.93405,-0.308681 z m -87.129518,-0.0637 c -0.0977,-0.06013 0.0069,-0.25512 0.236592,-0.440972 0.408439,-0.330505 0.648749,-0.874321 1.024116,-2.317554 0.29567,-1.136811 0.616892,-0.943875 1.164081,0.699184 0.265379,0.796862 0.648929,1.587971 0.852332,1.758023 0.203405,0.170049 0.290451,0.317436 0.193437,0.327527 -0.761598,0.07921 -3.330791,0.05981 -3.470558,-0.02621 z m 1.747092,-0.792525 c -0.05861,-0.05861 -0.210749,-0.06488 -0.338079,-0.01392 -0.140712,0.05631 -0.09891,0.0981 0.106568,0.106568 0.185943,0.0077 0.290123,-0.03403 0.231511,-0.09264 z m 89.117156,0.503443 c -0.004,-0.07276 -0.0451,-0.529166 -0.0917,-1.014236 -0.18111,-1.88637 -0.1782,-1.928119 0.13866,-1.991667 0.16749,-0.03359 0.57136,0.142441 0.89748,0.391187 0.66749,0.509115 0.9592,0.418244 0.56902,-0.17725 -0.22589,-0.344747 -0.22625,-0.421684 -0.003,-0.607078 0.36912,-0.306339 0.81163,-0.07485 0.76012,0.397629 -0.024,0.219823 0.0207,0.771075 0.0992,1.225003 0.20929,1.209589 0.0387,1.314215 -0.96612,0.59236 l -0.86766,-0.623346 v 0.452273 c 0,0.248753 0.0804,0.602474 0.17863,0.786051 0.14097,0.263407 0.10623,0.372524 -0.16479,0.517571 -0.40734,0.218 -0.54054,0.230473 -0.55002,0.0515 z m 3.71887,-1.59325 c -0.10016,-0.360639 -0.18256,-0.829617 -0.1831,-1.042173 -5.3e-4,-0.212555 -0.0804,-0.435521 -0.17737,-0.495479 -0.38861,-0.240179 -0.15981,-0.761422 0.46422,-1.057542 1.12335,-0.533065 2.31112,-0.07254 2.59467,1.006018 0.11508,0.437738 -0.57732,1.732201 -1.01168,1.891383 -0.20434,0.07488 -0.62647,0.185052 -0.93808,0.244824 -0.5348,0.102585 -0.57677,0.07192 -0.74866,-0.547031 z m 1.66012,-0.542664 c 0.16469,-0.518918 -0.33641,-1.788739 -0.70588,-1.788739 -0.44499,0 -0.6105,0.44104 -0.40224,1.071852 0.10964,0.332114 0.22451,0.703062 0.25527,0.824329 0.0867,0.341747 0.73625,0.259911 0.85285,-0.107442 z M 61.701982,81.006323 c -0.231696,-0.231696 -0.475185,-0.708686 -0.541089,-1.059977 -0.08909,-0.474919 -0.227794,-0.665812 -0.540856,-0.744386 -0.231569,-0.05812 -0.421033,-0.178934 -0.421033,-0.268475 0,-0.365834 0.543976,-0.326559 1.38587,0.100062 0.490828,0.248721 1.067184,0.432723 1.28079,0.408894 0.30813,-0.03437 0.421777,0.08185 0.550031,0.562494 0.348509,1.306063 -0.760816,1.954285 -1.713713,1.001388 z m 1.241511,-0.301218 c 0.145627,-0.23563 -0.222677,-0.608617 -0.760114,-0.769778 -0.53346,-0.159971 -0.536812,0.315907 -0.0049,0.688509 0.464506,0.325353 0.604894,0.340267 0.764964,0.08127 z m 33.93768,-1.085504 c -0.432865,-0.218281 -0.811256,-0.528325 -0.840869,-0.688989 -0.06522,-0.353834 1.189151,-2.265525 1.486539,-2.265525 0.116224,0 0.622115,0.324716 1.124199,0.721591 0.795207,0.628574 0.898756,0.782052 0.803294,1.190625 -0.130455,0.558345 -1.032302,1.439173 -1.473516,1.439173 -0.17194,0 -0.666781,-0.178594 -1.099647,-0.396875 z m 1.573017,-1.088575 c 0.281764,-0.59063 0.103297,-1.041102 -0.445204,-1.123747 -0.24267,-0.03657 -0.458609,0.155585 -0.742507,0.660715 -0.472158,0.84009 -0.372553,1.106213 0.386396,1.032382 0.41264,-0.04014 0.6187,-0.186551 0.801315,-0.56935 z m -36.314908,0.07669 c -0.145521,-0.08431 -0.41009,-0.198744 -0.587933,-0.254302 -0.17784,-0.05556 -0.28836,-0.200192 -0.245598,-0.321408 0.07949,-0.225328 0.206075,-0.22881 1.054017,-0.02899 0.749587,0.176641 0.573782,-0.172759 -0.308681,-0.613482 -0.436562,-0.218029 -0.79375,-0.518403 -0.79375,-0.667498 0,-0.189632 0.09275,-0.232392 0.308681,-0.142318 0.169774,0.07082 0.546805,0.208961 0.837847,0.306979 0.766491,0.258138 1.064322,0.418844 1.014236,0.547268 -0.02425,0.06218 -0.0441,0.390879 -0.0441,0.730428 0,0.558406 -0.04632,0.61637 -0.48507,0.606987 -0.266788,-0.0057 -0.604131,-0.07935 -0.749652,-0.163662 z m 31.38465,-0.703746 c -1.041861,-0.550794 -1.112581,-0.738695 -0.559734,-1.487198 0.266263,-0.360495 0.656795,-0.868818 0.867848,-1.129609 l 0.383736,-0.474161 0.850129,0.449063 c 0.467572,0.246983 0.87618,0.584327 0.908018,0.749653 0.07758,0.40286 -0.253067,0.379439 -0.808222,-0.05725 -0.327923,-0.257944 -0.508031,-0.304118 -0.645183,-0.165404 -0.136423,0.137975 -0.102913,0.241722 0.118413,0.366602 0.497461,0.280684 0.355445,0.536501 -0.264583,0.476602 -0.810036,-0.07825 -0.888956,0.526497 -0.124917,0.95721 0.299556,0.16887 0.495132,0.387151 0.434615,0.48507 -0.156046,0.252486 -0.43839,0.210971 -1.16012,-0.170581 z m -3.094529,-2.19831 c -0.122159,-0.318345 0.02571,-0.573629 0.870464,-1.502773 0.656974,-0.722608 1.077784,-0.827222 1.273711,-0.316645 0.09646,0.251356 -1.525752,2.073288 -1.846007,2.073288 -0.110412,0 -0.244586,-0.114242 -0.298168,-0.25387 z m 38.384887,-0.110504 c 0,-0.103392 0.0822,-0.341517 0.18259,-0.529167 0.15747,-0.294224 0.12303,-0.341182 -0.25016,-0.341182 -0.61479,0 -0.99077,-0.174503 -0.99077,-0.459844 0,-0.163063 0.20696,-0.245711 0.61528,-0.245711 0.53293,0 0.60966,-0.05312 0.57327,-0.396875 -0.0388,-0.36627 0.0382,-0.401013 0.99793,-0.450542 0.57197,-0.02952 1.12295,0.02935 1.22441,0.130805 0.10146,0.101461 0.19573,0.562173 0.2095,1.023805 0.0354,1.186732 -0.24837,1.456696 -1.53106,1.456696 -0.61213,0 -1.03099,-0.07637 -1.03099,-0.187985 z m 1.66334,-0.497584 c 0.13021,-0.210679 -0.36742,-0.607796 -0.58958,-0.470495 -0.097,0.05997 -0.1317,0.225549 -0.077,0.367963 0.10961,0.285622 0.51494,0.347966 0.66663,0.102532 z m -0.0758,-1.342904 c 0,-0.145521 -0.11907,-0.264583 -0.26459,-0.264583 -0.14552,0 -0.26458,0.119062 -0.26458,0.264583 0,0.145521 0.11906,0.264584 0.26458,0.264584 0.14552,0 0.26459,-0.119063 0.26459,-0.264584 z m -69.548916,0.601486 c -0.73989,-0.60988 -1.183037,-1.34727 -1.183037,-1.96856 0,-0.504246 0.307033,-0.844269 0.645185,-0.714509 0.21097,0.08096 0.206442,0.161303 -0.02937,0.521194 -0.258812,0.394998 -0.253109,0.461543 0.07959,0.928776 0.336481,0.472546 1.473128,1.072586 2.03178,1.072586 0.417475,0 0.49486,-0.342897 0.184338,-0.816812 -0.161634,-0.246685 -0.259212,-0.483189 -0.216838,-0.525561 0.182144,-0.182144 0.640932,0.172907 0.837909,0.64845 0.178174,0.430152 0.16558,0.588599 -0.07611,0.957465 -0.429207,0.655054 -1.40755,0.610719 -2.273448,-0.103029 z M 122.2584,73.874562 c -0.41465,-0.169027 -1.0288,-0.995356 -1.0288,-1.384241 0,-0.179717 0.2057,-0.548587 0.4571,-0.819712 0.36738,-0.396212 0.58345,-0.482397 1.10096,-0.43917 0.4575,0.03822 0.66155,0.146999 0.70494,0.375825 0.0509,0.268166 -0.0374,0.312429 -0.5277,0.264583 -0.56523,-0.05516 -0.59096,-0.03095 -0.6436,0.60542 -0.0397,0.479996 0.0211,0.686816 0.22049,0.749653 0.95562,0.301201 0.92118,0.267382 0.55028,0.540346 -0.37641,0.277019 -0.4075,0.281021 -0.83367,0.107296 z M 88.926191,73.329568 c -0.389675,-0.315539 -0.446747,-0.318786 -0.899757,-0.05119 -0.360413,0.212902 -0.534641,0.234771 -0.683609,0.0858 -0.148967,-0.148967 0.01651,-0.45061 0.649272,-1.183536 0.838385,-0.971098 1.404625,-1.228344 1.597491,-0.725749 0.05442,0.141829 0.230722,0.299692 0.391775,0.350808 0.408434,0.129632 0.769342,0.762587 0.64972,1.139478 -0.0911,0.28702 -0.77763,0.721291 -1.14028,0.721291 -0.0817,0 -0.335778,-0.15161 -0.564612,-0.336908 z m 0.69793,-0.867534 c 0.04237,-0.287914 -0.0343,-0.383058 -0.308681,-0.383058 -0.236391,0 -0.365045,0.11397 -0.365045,0.323379 0,0.670565 0.576326,0.721616 0.673726,0.05968 z m 19.693399,0.173085 c -0.79665,-0.140553 -0.75886,0.697243 -0.90227,-19.998827 l -0.11089,-16.003098 0.77406,-0.321541 c 0.70027,-0.29089 1.21364,-0.330736 3.06712,-0.238061 0.58759,0.02938 0.57405,0.511092 -0.0185,0.659825 -0.25274,0.06343 -0.95,0.06953 -1.54948,0.01355 -0.59948,-0.05598 -1.16661,-0.04684 -1.26028,0.02032 -0.10571,0.07579 -0.13686,1.761298 -0.0821,4.443632 l 0.0882,4.321528 8.98519,0.04227 c 5.04403,0.02373 9.05501,0.112096 9.14438,0.201461 0.21905,0.219049 0.28158,1.258727 0.1047,1.740645 -0.169,0.460415 -0.59665,0.525035 -0.75438,0.113991 -0.0682,-0.177761 -0.21798,-0.240893 -0.40302,-0.169887 -0.16196,0.06215 -3.71332,0.110571 -7.89192,0.107604 -4.17859,-0.003 -7.69847,0.05944 -7.82194,0.138677 -0.17163,0.110139 -0.21316,0.930289 -0.17639,3.482571 l 0.0481,3.338502 4.58611,0.04882 c 4.55408,0.04847 4.58835,0.04608 4.90704,-0.343359 0.26693,-0.326176 0.34811,-0.349232 0.48237,-0.137008 0.23689,0.374428 0.20368,0.613565 -0.14184,1.021399 -0.29562,0.348922 -0.50916,0.366552 -5.04391,0.416416 -2.60438,0.02864 -4.76917,0.106973 -4.81065,0.174076 -0.11745,0.189983 -0.0847,14.82421 0.0334,14.942456 0.14433,0.144461 8.94463,0.230801 9.30811,0.09132 0.16092,-0.06175 0.29258,-0.262534 0.29258,-0.446183 0,-0.353173 0.45503,-0.468117 0.56361,-0.142372 0.10237,0.3071 -0.12014,2.246046 -0.27555,2.401132 -0.1348,0.13452 -10.41445,0.208462 -11.14177,0.08014 z M 124.729,72.492396 c -0.21767,-0.05978 -0.31106,-0.338487 -0.36349,-1.084779 -0.0833,-1.185565 0.10488,-1.526352 0.53365,-0.966506 0.27675,0.361358 0.43439,0.388887 2.105,0.367604 1.47263,-0.01876 1.86685,0.03219 2.13641,0.276147 0.55666,0.503772 1.4538,0.515431 1.96514,0.02554 0.36631,-0.350948 0.6567,-0.433618 1.67752,-0.477574 l 1.23453,-0.05316 -0.0554,-1.852083 c -0.0379,-1.26733 -0.14575,-2.028808 -0.34151,-2.411819 -0.23752,-0.464716 -0.2469,-0.606947 -0.0553,-0.837847 0.12695,-0.152963 0.41104,-0.278112 0.63132,-0.278112 0.46352,0 0.61571,-0.299706 0.61193,-1.205052 -0.003,-0.740176 -0.12468,-0.974766 -0.59551,-1.149005 -0.27599,-0.102132 -0.2971,-0.07944 -0.12217,0.131336 0.14177,0.170815 0.15677,0.361096 0.0455,0.577302 -0.0913,0.177376 -0.26573,0.536573 -0.3877,0.798216 -0.23085,0.49518 -0.61785,0.743232 -0.89365,0.572782 -0.0883,-0.05455 -0.16047,-0.448887 -0.16047,-0.87631 0,-0.598245 0.0817,-0.820872 0.35502,-0.967136 0.26167,-0.14004 0.31432,-0.269222 0.20023,-0.491276 -0.19442,-0.378379 -0.0709,-0.737584 0.37877,-1.101723 0.29718,-0.240641 0.33143,-0.408314 0.22642,-1.108552 -0.12303,-0.820411 -0.12757,-0.825027 -0.81226,-0.825027 -0.79991,0 -1.0562,-0.32345 -0.92737,-1.170369 0.0463,-0.304154 -0.006,-0.720873 -0.11552,-0.926041 -0.17367,-0.324503 -0.35812,-0.373035 -1.41775,-0.373035 -0.66996,0 -1.26716,0.07938 -1.32712,0.176389 -0.0627,0.101533 0.10126,0.176807 0.38646,0.177373 0.27252,5.3e-4 0.79314,0.08365 1.15694,0.18468 0.59455,0.165114 0.66146,0.242901 0.66146,0.768979 0,0.325027 -0.16256,0.791944 -0.36558,1.050042 -0.29526,0.375368 -0.51379,0.46476 -1.13612,0.46476 -0.93109,0 -1.06112,-0.161491 -0.67365,-0.836622 0.36324,-0.632902 0.23085,-1.024396 -0.47977,-1.418784 -0.51592,-0.286332 -0.53913,-0.345055 -0.44114,-1.116083 0.13066,-1.028098 -0.14032,-1.306274 -1.11992,-1.14963 -0.37757,0.06038 -1.16497,0.05976 -1.74977,-0.0014 -0.94631,-0.09891 -1.07551,-0.159842 -1.1744,-0.553869 -0.14083,-0.561098 0.14455,-0.884474 0.51167,-0.579793 0.20083,0.166671 1.31547,0.205641 4.57909,0.160094 2.37251,-0.03311 4.36025,-0.106899 4.41722,-0.163975 0.057,-0.05707 0.0937,-1.208012 0.0817,-2.557639 -0.0303,-3.40451 -0.0508,-3.838335 -0.19139,-4.054011 -0.15577,-0.238886 -2.11481,-0.164589 -2.60709,0.09887 -0.54812,0.293393 -0.70923,0.076 -0.70923,-0.956935 0,-1.296529 0.19814,-1.428812 1.81133,-1.209259 1.03722,0.141164 1.44021,0.121007 2.1574,-0.10792 l 0.88193,-0.281509 2e-5,-4.233334 1e-5,-4.233333 -3.96875,-0.04368 c -2.18281,-0.02402 -6.08551,-0.06371 -8.67265,-0.08819 -2.58715,-0.02448 -4.75807,-0.09877 -4.82426,-0.165076 -0.44535,-0.446089 0.47214,-0.496804 8.98781,-0.496804 7.11328,0 8.9138,0.04599 9.06787,0.231641 0.25845,0.311409 0.12536,36.111266 -0.13484,36.27208 -0.20402,0.12609 -10.53444,0.191414 -10.97866,0.06942 z m 5.99101,-13.797413 c -0.0611,-0.5273 -0.5446,-0.63584 -0.63941,-0.143552 -0.0956,0.49655 0.0992,0.833958 0.41225,0.713842 0.1803,-0.06919 0.2616,-0.273299 0.22716,-0.57029 z m 2.63262,0.04826 c -0.0586,-0.05861 -0.21075,-0.06488 -0.33808,-0.01392 -0.14071,0.05631 -0.0989,0.0981 0.10657,0.106568 0.18594,0.0077 0.29012,-0.03403 0.23151,-0.09264 z m 0.36938,-2.957214 c 0.0984,-0.496392 -0.29933,-0.313177 -0.60551,0.278906 l -0.29295,0.56651 0.42072,-0.278904 c 0.23139,-0.153399 0.44638,-0.408328 0.47774,-0.566512 z M 61.874698,71.626217 c -0.485069,-0.337961 -1.1796,-0.704412 -1.543403,-0.814334 -0.368377,-0.111305 -0.661458,-0.313193 -0.661458,-0.455645 0,-0.254434 0.04402,-0.251984 1.190625,0.06624 0.321264,0.08916 0.396875,0.03902 0.396875,-0.263204 0,-0.205343 0.109368,-0.37335 0.243043,-0.37335 0.423169,0 1.520846,0.525787 1.520846,0.728486 0,0.19358 -0.503094,0.144607 -1.10243,-0.107313 -0.216752,-0.09111 -0.308681,-0.04861 -0.308681,0.142697 0,0.149846 0.398914,0.489562 0.886478,0.754927 0.845774,0.460329 1.049686,0.819848 0.510016,0.899214 -0.137481,0.02022 -0.646841,-0.239751 -1.131911,-0.577714 z m 23.724308,-0.02459 c -0.145521,-0.0532 -0.443177,-0.259204 -0.661459,-0.457793 -0.617696,-0.561977 -0.514807,-1.237855 0.327554,-2.15171 0.603843,-0.655091 0.780013,-0.756167 1.058334,-0.607213 0.500112,0.26765 0.405059,0.645592 -0.274317,1.090707 -0.696353,0.456239 -0.907113,0.98723 -0.538257,1.356085 0.218209,0.218209 0.32341,0.219548 0.744398,0.0095 0.269651,-0.134563 0.702105,-0.435712 0.961011,-0.669223 0.433918,-0.391357 0.85218,-0.407331 0.85218,-0.03254 0,0.161853 -1.91798,1.597517 -2.101284,1.572872 -0.05697,-0.0077 -0.222639,-0.05745 -0.36816,-0.110645 z m 27.557614,-3.273926 c -0.99266,-0.996051 -1.80483,-1.941975 -1.80483,-2.102057 0,-0.345791 1.91081,-2.078081 2.2962,-2.081675 0.3697,-0.0034 3.87741,3.54747 3.87741,3.92517 0,0.168118 -0.0692,0.30567 -0.15386,0.30567 -0.0846,0 -0.54103,0.394836 -1.01424,0.877415 -0.47321,0.482577 -0.98086,0.879452 -1.12811,0.881944 -0.14725,0.0025 -1.07991,-0.810419 -2.07257,-1.806467 z m 2.90517,0.365283 c 0.31992,-0.310072 0.58166,-0.64178 0.58166,-0.737127 0,-0.228967 -1.19844,-1.322419 -1.31817,-1.202692 -0.0511,0.05112 -0.0929,0.268429 -0.0929,0.482916 0,0.214487 -0.11052,0.481704 -0.24561,0.593815 -0.19457,0.161475 -0.31988,0.101875 -0.603,-0.286791 l -0.3574,-0.490627 -0.12128,0.483221 c -0.0955,0.380419 -0.0141,0.612182 0.38252,1.089402 0.63456,0.763519 1.04049,0.77905 1.77422,0.06788 z m -3.1225,-2.148661 c 0,-0.469832 0.41596,-0.906128 0.69783,-0.731928 0.10126,0.06258 0.18411,0.223483 0.18411,0.357553 0,0.410086 0.32402,0.471524 0.52327,0.09922 0.15479,-0.289232 0.0984,-0.452102 -0.31766,-0.917767 l -0.50583,-0.566132 -0.77306,0.721097 c -0.76586,0.714392 -0.76995,0.724519 -0.43991,1.089215 0.43565,0.481387 0.63125,0.465505 0.63125,-0.05126 z M 61.542856,68.82755 c -0.274722,-0.360179 -0.461908,-0.833136 -0.461908,-1.167091 0,-0.524761 0.03174,-0.553452 0.48507,-0.438535 0.266788,0.06763 0.782725,0.164596 1.146528,0.215478 0.64453,0.09015 0.661458,0.111454 0.661458,0.832463 0,0.85826 -0.23501,1.163277 -0.896287,1.163277 -0.331482,0 -0.61112,-0.181146 -0.934861,-0.605592 z m 1.191738,-0.06429 c 0.122453,-0.19813 -0.08859,-0.477419 -0.54051,-0.715301 -0.565683,-0.297764 -0.752465,0.116606 -0.239716,0.531804 0.435278,0.352467 0.645275,0.401854 0.780226,0.183497 z m 66.161316,0.237825 c -0.27062,-0.206925 -0.44056,-4.068762 -0.19642,-4.463783 0.21266,-0.344098 2.87528,-0.298443 3.07177,0.05267 0.18082,0.323117 0.0766,4.164094 -0.11848,4.364544 -0.20996,0.215786 -2.48529,0.254221 -2.75687,0.04657 z m 2.21143,-0.61439 c 0,-0.09048 -0.15018,-0.212168 -0.33373,-0.270426 -0.18355,-0.05826 -0.38361,-0.281887 -0.44457,-0.496956 -0.10882,-0.383939 -0.11875,-0.381432 -0.54733,0.138134 -0.24008,0.291041 -0.4369,0.588698 -0.43738,0.661458 -5.3e-4,0.07276 0.396,0.132292 0.88107,0.132292 0.48507,0 0.88194,-0.07403 0.88194,-0.164502 z m -0.70555,-2.044725 c 0,-0.147922 0.19843,-0.344396 0.44097,-0.436607 0.49653,-0.18878 0.51448,-0.238613 0.25838,-0.717151 -0.13377,-0.249938 -0.37111,-0.341182 -0.88748,-0.341182 -0.77779,0 -1.08196,0.36573 -0.71677,0.861822 0.11527,0.156589 0.25622,0.423612 0.31323,0.593386 0.12735,0.379288 0.59167,0.410466 0.59167,0.03973 z m -48.226689,2.019304 c -1.013049,-1.203941 -0.180767,-2.815248 1.30107,-2.51888 0.30136,0.06027 0.783221,0.32938 1.070798,0.598019 0.555158,0.518595 0.704443,1.228839 0.258287,1.228839 -0.145521,0 -0.264584,-0.105226 -0.264584,-0.233837 0,-0.128608 -0.194043,-0.416129 -0.431207,-0.638933 -0.535589,-0.50316 -1.183116,-0.389543 -1.478831,0.25948 -0.294377,0.646088 -0.25824,0.909915 0.165272,1.206553 0.204544,0.143269 0.318923,0.346207 0.254172,0.450974 -0.189118,0.306001 -0.38874,0.225645 -0.874977,-0.352215 z M 59.623692,67.448767 c -0.1295,-0.340365 0.195194,-1.052611 0.442801,-0.971328 0.121388,0.03985 0.245578,0.324311 0.275978,0.632134 0.04511,0.456763 -0.0082,0.55968 -0.289808,0.55968 -0.189797,0 -0.382833,-0.09922 -0.428971,-0.220486 z m 2.069063,-1.201589 c -0.606004,-0.176271 -1.717319,-1.181107 -1.569962,-1.419538 0.194352,-0.314469 0.951114,-0.155335 1.221146,0.256787 0.149117,0.227584 0.485064,0.511265 0.746548,0.630406 0.398971,0.181782 0.508071,0.171972 0.678431,-0.06101 0.253437,-0.346599 0.36337,-0.349509 0.492485,-0.01305 0.27475,0.715991 -0.354971,0.959425 -1.568648,0.606397 z m 18.335963,-1.003272 c -0.677612,-1.02975 -0.188394,-2.513542 0.828735,-2.513542 0.689716,0 1.437956,0.440233 1.805358,1.062195 0.248592,0.420832 0.252887,0.51321 0.03237,0.696226 -0.209234,0.17365 -0.301008,0.09912 -0.518296,-0.420926 -0.205087,-0.490844 -0.364508,-0.631939 -0.714013,-0.631939 -0.571582,0 -1.155529,0.576262 -1.155529,1.140322 0,0.25424 0.146482,0.513161 0.352777,0.623567 0.445305,0.238319 0.456454,0.529166 0.02029,0.529166 -0.18287,0 -0.476128,-0.218281 -0.651685,-0.485069 z M 61.601777,63.779772 c -0.962856,-1.030741 -0.880521,-1.900737 0.15829,-1.672576 0.474973,0.104322 0.551254,0.209139 0.654822,0.89979 0.11775,0.785213 0.353463,1.009881 0.54255,0.517128 0.171963,-0.448128 0.443205,-0.29246 0.384184,0.220486 -0.04666,0.405487 -0.150936,0.494217 -0.635607,0.54083 -0.463654,0.04459 -0.68485,-0.0567 -1.104239,-0.505658 z m 0.361116,-0.68622 c 0,-0.346062 -0.298242,-0.652908 -0.468814,-0.482339 -0.138509,0.138512 0.114692,0.824707 0.304312,0.824707 0.09047,0 0.164502,-0.154065 0.164502,-0.342368 z M 77.90845,61.777864 c -0.666368,-0.666367 -0.766692,-1.274528 -0.32217,-1.952957 0.619978,-0.946203 2.339201,-0.627993 2.819651,0.521887 0.300332,0.718794 0.177474,1.082478 -0.562238,1.664336 -0.674047,0.530205 -1.239989,0.461989 -1.935243,-0.233266 z m 1.472847,-0.633067 c 0.604111,-0.368333 0.712112,-0.674474 0.361597,-1.024989 -0.571511,-0.57151 -2.006461,0.2106 -1.796115,0.978959 0.136669,0.49923 0.663492,0.516135 1.434518,0.04603 z M 61.745973,61.50162 c -0.621171,-0.488612 -0.925982,-1.282265 -0.67359,-1.753863 0.230604,-0.430887 0.493584,-0.457661 0.96832,-0.09859 0.188317,0.142435 0.517322,0.258974 0.731125,0.258974 0.327588,0 0.400918,0.117914 0.466201,0.749653 0.04261,0.412309 0.04245,0.848871 -3.52e-4,0.970139 -0.118904,0.336918 -0.997376,0.262531 -1.491713,-0.126314 z m 0.88975,-0.486617 c -0.07017,-0.364354 -0.906226,-0.834644 -0.999612,-0.56229 -0.08389,0.24466 0.495997,0.86654 0.808025,0.86654 0.141932,0 0.224827,-0.131643 0.191587,-0.30425 z m 56.630487,-1.751598 c -0.0928,-0.112072 -0.14544,-0.826447 -0.11694,-1.5875 l 0.0518,-1.383736 h 3.35139 3.35139 l 0.0535,1.141087 c 0.097,2.067611 0.34107,1.922466 -3.3335,1.982133 -2.25335,0.03659 -3.23843,-0.008 -3.35768,-0.151984 z m 1.95253,-0.665145 c 0.11483,-0.13835 0.18408,-0.594757 0.15389,-1.014236 -0.0548,-0.76124 -0.0563,-0.76279 -0.80452,-0.816928 l -0.74966,-0.05424 v 0.950884 c 0,0.522984 0.0529,1.003799 0.1176,1.068474 0.21239,0.212395 1.06954,0.122882 1.28269,-0.133954 z m 1.86291,-0.08201 c 0,-0.134948 -0.13672,-0.331602 -0.30383,-0.437009 -0.38126,-0.240492 -0.76511,0.08229 -0.60233,0.506494 0.13419,0.349693 0.90616,0.290497 0.90616,-0.06949 z m 2.2276,0.201262 c 0.0942,-0.54778 0.0732,-1.254434 -0.0471,-1.5875 -0.18226,-0.504635 -0.94505,-0.539914 -1.2042,-0.05569 -0.24656,0.460704 -0.23088,1.303859 0.0291,1.563818 0.23097,0.230963 1.18547,0.292953 1.22219,0.07937 z m -2.37503,-1.378871 c 0.14794,-0.385537 -0.18604,-0.663399 -0.62857,-0.522946 -0.40721,0.129246 -0.49799,0.542171 -0.15004,0.682567 0.41751,0.168473 0.67279,0.116138 0.77861,-0.159621 z m -60.566929,1.668616 c -0.107428,-0.107428 -0.460647,-0.249275 -0.784931,-0.315212 -0.440515,-0.08957 -0.604675,-0.224819 -0.649199,-0.534856 -0.05192,-0.361514 -0.0065,-0.398949 0.352778,-0.290618 1.065468,0.321294 1.087367,0.275832 0.2371,-0.492236 -0.722366,-0.652533 -0.826622,-0.816474 -0.579524,-0.911294 0.177214,-0.068 0.503647,0.02797 0.792632,0.233031 0.270231,0.191758 0.650079,0.378532 0.844107,0.415052 0.261237,0.04917 0.377806,0.249038 0.449227,0.770248 0.141422,1.032048 -0.190936,1.59714 -0.66219,1.125885 z m 13.987421,-0.307755 c -0.05109,-0.08266 0.06329,-0.456635 0.254173,-0.831045 0.190886,-0.37441 0.347064,-0.829019 0.347064,-1.010243 0,-0.28031 -0.08557,-0.310457 -0.573263,-0.201946 -0.315296,0.07015 -0.683784,0.135991 -0.818863,0.146306 -0.377943,0.02886 -0.443001,-0.408921 -0.07775,-0.523193 0.177842,-0.05564 0.461177,-0.174745 0.629636,-0.264676 0.168458,-0.08993 0.46217,-0.163513 0.652693,-0.163513 0.190523,0 0.422044,-0.135156 0.51449,-0.300348 0.143233,-0.255944 0.21058,-0.265081 0.45551,-0.0618 0.233108,0.193462 0.265363,0.433562 0.170675,1.270487 -0.117674,1.040105 0.07387,1.371805 0.427384,0.74011 0.215196,-0.384535 0.736155,-0.181929 0.736155,0.286299 0,0.271843 -0.117058,0.359757 -0.485069,0.364298 -0.266788,0.0033 -0.80257,0.159348 -1.190625,0.346793 -0.806239,0.38944 -0.913751,0.410328 -1.04221,0.202476 z m 45.697998,-3.318681 c -0.0647,-0.06468 -0.11759,-0.46155 -0.11759,-0.881944 0,-0.579711 -0.0675,-0.764352 -0.27928,-0.764352 -0.15361,0 -0.24653,-0.09922 -0.20649,-0.220486 0.0963,-0.291684 2.24966,-0.410563 2.24966,-0.124195 0,0.110726 -0.15875,0.242833 -0.35278,0.293573 -0.39375,0.102967 -0.38268,0.07994 -0.4484,0.933053 -0.0262,0.339548 -0.055,0.676892 -0.0642,0.749653 -0.0206,0.163854 -0.6205,0.175147 -0.78095,0.01469 z M 61.665469,54.801643 c -0.622675,-0.379672 -0.937299,-0.85386 -0.937299,-1.41266 0,-0.234118 -0.166227,-0.43194 -0.455309,-0.541848 -0.458163,-0.174192 -0.50423,-0.664388 -0.05181,-0.55127 0.133394,0.03335 0.504319,0.103888 0.82428,0.156747 l 0.581743,0.09611 -0.379559,-0.643305 c -0.442082,-0.749273 -0.347192,-1.219662 0.229519,-1.13777 0.251954,0.03578 0.491698,0.270203 0.6543,0.639782 0.207961,0.472677 0.331368,0.564556 0.650648,0.484422 0.216706,-0.05439 0.44634,-0.01422 0.510296,0.08926 0.165705,0.268118 -0.432874,0.870427 -0.871655,0.877087 -0.367649,0.0056 -0.367734,0.0069 -0.01676,0.267933 1.064431,0.791503 1.229286,1.206003 0.692956,1.742331 -0.36664,0.36664 -0.749801,0.348754 -1.431352,-0.06682 z m 0.906449,-0.524458 c 0.141107,-0.228317 -0.951557,-0.976234 -1.144436,-0.783355 -0.190735,0.190735 -0.02091,0.470024 0.447216,0.73548 0.43567,0.247054 0.568484,0.256173 0.69722,0.04788 z m 11.643879,-0.181326 c -0.515473,-0.208943 -0.74891,-0.550476 -0.78949,-1.155079 -0.07121,-1.061048 -0.01739,-1.1583 0.839712,-1.517262 0.460816,-0.192992 0.975676,-0.426655 1.144134,-0.519248 0.463785,-0.254919 1.01663,-0.202588 1.01663,0.09623 0,0.145521 0.0042,0.316668 0.0093,0.380325 0.0068,0.08526 -2.122966,0.905856 -2.434619,0.938038 -0.02425,0.0025 -0.0441,0.239887 -0.0441,0.527515 0,0.821412 0.487823,0.970408 1.714539,0.523667 1.34886,-0.491222 1.548656,-0.501091 1.548656,-0.07649 0,0.276267 -0.153023,0.37583 -0.705556,0.459066 -0.388055,0.05846 -0.929003,0.197365 -1.202108,0.308681 -0.567021,0.231115 -0.608889,0.232433 -1.097072,0.03455 z m -11.467834,-3.23076 c -0.05338,-0.139112 -0.07327,-0.363996 -0.04419,-0.499738 0.05572,-0.260124 -0.425747,-0.30327 -0.938624,-0.08411 -0.375636,0.160512 -0.895359,-0.363263 -0.825881,-0.832318 0.07249,-0.489345 0.438196,-0.579259 0.577019,-0.141866 0.09709,0.305922 0.171803,0.327431 0.545642,0.157099 0.332869,-0.151664 0.536871,-0.141839 0.881205,0.04244 0.368583,0.197257 0.438715,0.348606 0.395369,0.853211 -0.05459,0.635458 -0.42046,0.94851 -0.590541,0.505283 z m 65.404867,-2.722762 c -0.26405,-0.09778 -0.30064,-1.94652 -0.0464,-2.345307 0.13078,-0.205151 0.23913,-0.220523 0.48237,-0.06843 0.21921,0.137063 0.43347,0.141716 0.71132,0.01545 0.52224,-0.237342 0.70537,-0.0334 0.33625,0.374477 -0.37497,0.414346 -0.36952,0.486579 0.0849,1.12473 0.30718,0.431392 0.33265,0.558422 0.13632,0.679764 -0.15303,0.09457 -0.36092,0.04111 -0.56767,-0.14599 -0.30647,-0.277358 -0.34406,-0.272766 -0.62139,0.07588 -0.16234,0.2041 -0.39439,0.334347 -0.51566,0.28944 z M 62.403865,47.691828 C 62.209837,47.5757 61.574837,47.313585 60.992754,47.109351 59.984139,46.75546 59.93187,46.707976 59.880121,46.098602 c -0.0756,-0.890261 0.215268,-1.359905 0.842244,-1.359905 0.369593,0 0.618214,0.150637 0.898665,0.544496 0.341106,0.479039 0.459175,0.531089 0.982151,0.432978 0.326939,-0.06133 0.59191,-0.04839 0.588825,0.02877 -0.01154,0.288331 -0.484465,0.757645 -0.763489,0.757645 -0.478194,0 -0.326178,0.369477 0.239931,0.58316 0.315082,0.11893 0.529167,0.326817 0.529167,0.513845 0,0.361654 -0.28774,0.39509 -0.79375,0.09224 z m -1.047337,-1.383424 c 0.066,-0.106798 -0.04806,-0.362248 -0.253475,-0.567663 -0.357886,-0.357886 -0.386403,-0.360377 -0.682863,-0.05962 -0.295009,0.299282 -0.293476,0.325652 0.03301,0.567665 0.409055,0.303216 0.739304,0.325012 0.903325,0.05962 z m 0.300496,-1.729214 c -0.8545,-0.780463 -0.989441,-1.780771 -0.240226,-1.780771 0.406291,0 0.85021,0.500256 0.926887,1.044516 0.07756,0.550521 0.495497,0.690907 0.621573,0.20879 0.113323,-0.433348 0.375694,-0.486346 0.521871,-0.105417 0.153564,0.400183 -0.413471,1.145166 -0.871631,1.145166 -0.218678,0 -0.649991,-0.230528 -0.958474,-0.512284 z m 65.332516,-0.163063 c -0.36226,-0.400297 -0.37989,-0.912153 -0.0314,-0.912153 0.32424,0 0.86879,0.800785 0.71441,1.050576 -0.16432,0.265887 -0.35143,0.227967 -0.68301,-0.138423 z m 1.04083,-0.724902 c -0.18272,-0.201898 -0.26982,-0.473973 -0.20545,-0.641729 0.10021,-0.261133 0.15254,-0.264146 0.50647,-0.02915 0.41062,0.272644 0.53412,0.848731 0.20544,0.958293 -0.1041,0.0347 -0.33201,-0.09464 -0.50646,-0.287412 z m -4.22314,-0.811779 c -0.4012,-0.293366 -0.25929,-0.833479 0.17519,-0.666755 0.18491,0.07096 0.38611,-0.0083 0.53379,-0.210268 0.20903,-0.285856 0.28936,-0.296139 0.68005,-0.08705 0.24366,0.130405 0.44303,0.391695 0.44303,0.580644 0,0.345243 -0.16518,0.352191 -0.92605,0.03896 -0.21577,-0.08883 -0.30868,-0.04489 -0.30868,0.145967 0,0.398358 -0.22277,0.472389 -0.59733,0.198504 z M 61.830994,42.473471 c -0.902594,-0.280454 -0.932539,-0.311326 -1.202388,-1.239573 -0.354935,-1.220933 -0.219805,-1.36526 1.0105,-1.079277 1.367586,0.317893 1.38212,0.323313 1.38212,0.515389 0,0.362204 -0.642659,0.534006 -1.204401,0.321971 -0.300314,-0.113354 -0.608584,-0.141478 -0.685047,-0.06249 -0.178022,0.183888 0.484615,0.646359 1.42228,0.992644 0.713465,0.263484 0.996771,0.755368 0.467168,0.81111 -0.145521,0.01531 -0.681124,-0.10158 -1.190232,-0.25977 z m 64.291056,-0.613208 c -0.41677,-0.337812 -0.51308,-0.825171 -0.18773,-0.950019 0.27147,-0.104177 0.93969,0.4864 0.93969,0.830512 0,0.252696 -0.4913,0.330776 -0.75196,0.119507 z m -3.26256,-0.470562 c -0.31208,-0.499731 -0.27892,-0.561908 0.26625,-0.499179 0.34732,0.03996 0.50108,0.168524 0.54144,0.452688 0.0728,0.512341 -0.4963,0.545097 -0.80769,0.04649 z m 1.13144,-0.85413 c -0.39112,-0.432179 -0.36857,-0.735764 0.0546,-0.735764 0.37342,0 0.7962,0.602615 0.62132,0.885591 -0.15729,0.254497 -0.34839,0.212141 -0.67597,-0.149827 z m -4.06009,-0.290308 c -0.27766,-0.210305 -0.30324,-0.352968 -0.16501,-0.920432 0.13924,-0.571608 0.22742,-0.664154 0.59249,-0.621842 0.7934,0.09195 1.16574,0.920429 0.41366,0.920429 -0.19962,0 -0.21922,0.07692 -0.084,0.329587 0.30002,0.56059 -0.16559,0.740316 -0.75714,0.292258 z m 6.1782,-0.0345 c -0.065,-0.06502 -0.003,-0.294044 0.13781,-0.508951 0.33087,-0.504968 0.20218,-0.616245 -0.43466,-0.375864 -0.64344,0.242874 -0.76142,0.127907 -0.87131,-0.849058 -0.0109,-0.09701 -0.21191,0.05863 -0.44666,0.345884 -0.60926,0.745511 -0.74982,0.422416 -0.2658,-0.610981 0.55054,-1.175433 1.27529,-1.175173 1.43815,5.29e-4 0.0624,0.450183 0.14369,0.469031 1.07616,0.249377 0.29395,-0.06924 0.59259,-0.02611 0.75553,0.109118 0.2396,0.198852 0.23216,0.264647 -0.0672,0.594021 -0.18513,0.20372 -0.42869,0.548995 -0.54124,0.767276 -0.20073,0.389283 -0.54671,0.512762 -0.78081,0.278664 z M 61.55324,39.42575 c -0.176802,-0.102817 -0.515017,-0.138359 -0.751591,-0.07898 -0.294418,0.07389 -0.596484,-0.01503 -0.957362,-0.28184 -0.289976,-0.214388 -0.527228,-0.44541 -0.527228,-0.513383 0,-0.06797 0.28578,-0.177199 0.635067,-0.242726 0.459587,-0.08622 0.719307,-0.0429 0.939931,0.156759 0.359694,0.325519 0.917453,0.358724 1.204472,0.07171 0.287445,-0.287445 0.748308,0.123195 0.748308,0.66676 0,0.341209 -0.09041,0.418375 -0.485069,0.414011 -0.266788,-0.0029 -0.629726,-0.08949 -0.806528,-0.192304 z m 56.54542,-0.866789 c -0.4191,-0.167795 -0.52868,-0.597152 -0.20367,-0.798021 0.28091,-0.17361 1.06343,0.295882 1.00394,0.602339 -0.0651,0.335569 -0.30461,0.394125 -0.80027,0.195682 z m -1.88612,-0.511928 c -0.32066,-0.354325 -0.24512,-0.71667 0.1494,-0.71667 0.27393,0 0.81068,0.563933 0.81068,0.851736 0,0.327427 -0.62053,0.240129 -0.96008,-0.135066 z m -1.20068,-0.49548 c -0.44706,-0.102348 -0.41841,-0.926746 0.0322,-0.926746 0.36203,0 0.68131,0.65105 0.42628,0.869241 -0.0824,0.07049 -0.28872,0.09637 -0.45849,0.0575 z M 60.904559,37.293935 c -0.436562,-0.09627 -0.882436,-0.2475 -0.990833,-0.336063 -0.125072,-0.102191 -0.277974,-0.06356 -0.418473,0.105733 -0.30519,0.367732 -0.747544,0.34018 -0.673044,-0.04192 0.03419,-0.175344 0.221509,-0.311141 0.433661,-0.314376 0.20541,-0.0031 0.504354,-0.114318 0.664318,-0.247075 0.226818,-0.188244 0.376883,-0.196864 0.681704,-0.03916 0.214974,0.11122 0.707942,0.265557 1.095484,0.342969 0.450147,0.08992 0.725558,0.249452 0.762588,0.44173 0.06656,0.34561 -0.295012,0.366104 -1.555405,0.08816 z m 3.919725,-1.506975 c -0.624353,-1.682355 -1.969809,-5.877732 -2.050584,-6.394098 -0.116563,-0.74514 -0.630405,-2.773197 -0.826786,-3.263194 -0.272897,-0.680916 -0.901058,-3.008179 -1.064548,-3.944016 -0.09084,-0.519973 -0.281756,-1.170875 -0.424263,-1.446449 -0.357447,-0.691226 -0.324945,-0.905481 0.127349,-0.839512 0.277862,0.04053 0.426869,0.229837 0.530291,0.673726 0.211696,0.908596 0.684255,2.620827 0.973628,3.527778 0.13929,0.436563 0.532474,1.825626 0.87374,3.086806 0.341267,1.261181 0.740266,2.689931 0.886665,3.175 0.146399,0.48507 0.414782,1.477257 0.596406,2.204862 0.181624,0.727604 0.404363,1.481666 0.494974,1.675694 0.09061,0.194028 0.209142,0.491684 0.263401,0.661458 0.161282,0.504644 0.559298,0.360836 1.708651,-0.617361 0.59844,-0.509323 1.545086,-1.283229 2.103655,-1.719791 0.558569,-0.436563 1.362901,-1.121779 1.787404,-1.522703 0.424501,-0.400924 1.406821,-1.302056 2.182932,-2.002517 0.776111,-0.70046 1.728611,-1.569341 2.116667,-1.930847 1.259011,-1.172873 3.512273,-3.091711 4.145139,-3.529928 0.339549,-0.235115 1.067389,-0.816118 1.617425,-1.291119 0.685288,-0.591803 1.124347,-0.845312 1.39492,-0.805415 0.329092,0.04852 0.162521,0.233242 -1.000061,1.109018 -0.767207,0.577938 -2.268048,1.89387 -3.335201,2.924294 -1.067152,1.030424 -2.160672,2.039089 -2.430042,2.241478 -0.269371,0.202389 -1.023434,0.843274 -1.675695,1.424188 -0.652261,0.580914 -1.82093,1.611227 -2.597041,2.289586 -0.776111,0.678357 -1.739367,1.539354 -2.140571,1.913324 -1.613355,1.503848 -3.398233,2.884807 -3.728583,2.884807 -0.220424,0 -0.41645,-0.179452 -0.529872,-0.485069 z m 50.540346,0.363479 c -0.24926,-0.06514 -0.30868,-0.277742 -0.30868,-1.104468 0,-0.650707 0.0879,-1.096745 0.24118,-1.223964 0.34356,-0.285131 0.71184,0.202551 0.57243,0.758021 -0.16246,0.647289 0.0198,0.946806 0.51815,0.851538 0.29409,-0.05622 0.43213,-0.0028 0.43213,0.167261 0,0.559319 -0.5818,0.779858 -1.45521,0.551612 z M 60.017766,35.795054 c -0.239868,-0.165322 -0.534829,-0.423291 -0.655468,-0.573264 -0.316306,-0.393211 -0.19887,-1.139186 0.190983,-1.213174 0.400516,-0.07601 1.174889,0.622266 1.174889,1.059437 0,0.440057 0.539489,0.408856 0.656333,-0.03796 0.105401,-0.403054 0.373308,-0.381722 0.646568,0.05148 0.135955,0.215535 0.09902,0.379086 -0.147029,0.65096 -0.404324,0.446774 -1.266836,0.475666 -1.866276,0.06252 z m 0.0048,-0.934136 c 0,-0.09701 -0.08406,-0.176389 -0.1868,-0.176389 -0.102739,0 -0.137742,0.07937 -0.07778,0.176389 0.05996,0.09701 0.144018,0.176389 0.1868,0.176389 0.04278,0 0.07778,-0.07937 0.07778,-0.176389 z m 53.212184,0.287033 c -0.15083,-0.230188 -0.23381,-0.573077 -0.18441,-0.761976 0.11908,-0.455388 -0.40846,-0.933048 -0.56886,-0.515061 -0.14875,0.387641 -0.54869,0.358204 -0.77076,-0.05673 -0.31587,-0.590214 -0.22531,-0.754564 0.34657,-0.628957 0.33293,0.07312 0.52917,0.04562 0.52917,-0.07418 0,-0.262419 0.62243,-0.240115 0.83944,0.03008 0.0974,0.121268 0.22052,0.498299 0.2736,0.837848 0.0531,0.339548 0.15111,0.835642 0.21785,1.10243 0.15658,0.625932 -0.2877,0.669245 -0.6826,0.06655 z M 60.639976,33.626196 c -0.194028,-0.08338 -0.678081,-0.157173 -1.075674,-0.163991 -0.680502,-0.01168 -0.739825,-0.05549 -1.011543,-0.747222 -0.213432,-0.543345 -0.237973,-0.795882 -0.09418,-0.969143 0.147512,-0.177741 0.102822,-0.309091 -0.185092,-0.543995 -0.421656,-0.344022 -0.579062,-1.285819 -0.235246,-1.407543 0.139634,-0.04943 0.220486,0.08904 0.220486,0.377611 0,0.546842 0.187337,0.578065 0.617361,0.102894 0.506208,-0.559353 1.261874,-0.460258 1.681346,0.220486 0.406351,0.65945 0.390664,1.160221 -0.04489,1.43323 -0.224683,0.140831 -0.362524,0.130944 -0.529167,-0.03796 -0.183189,-0.185673 -0.15935,-0.277707 0.127437,-0.492011 0.348591,-0.260486 0.348714,-0.266626 0.01039,-0.517292 -0.453138,-0.335727 -0.497147,-0.327235 -0.982718,0.189631 -0.321336,0.342047 -0.368651,0.491124 -0.207137,0.652639 0.115133,0.115132 0.209332,0.349413 0.209332,0.520625 0,0.396985 0.403122,0.609542 1.455208,0.767297 0.659047,0.09882 0.837847,0.19664 0.837847,0.45838 0,0.355484 -0.226525,0.400107 -0.79375,0.156362 z m 52.828474,-0.963934 c 0,-0.142107 0.15875,-0.343337 0.35278,-0.447177 0.45113,-0.24144 0.45451,-0.529167 0.006,-0.529167 -0.19062,0 -0.43149,-0.158679 -0.53529,-0.352619 -0.1365,-0.255054 -0.34032,-0.340462 -0.73666,-0.308681 -0.67338,0.054 -0.86708,-0.33256 -0.27873,-0.556251 0.23347,-0.08876 0.55925,-0.367064 0.72396,-0.618446 0.56096,-0.856129 1.21321,-0.381177 1.04043,0.757615 l -0.0906,0.597312 0.61649,-0.115653 c 0.43663,-0.08191 0.67844,-0.041 0.82885,0.140236 0.17306,0.208522 0.0834,0.388729 -0.4841,0.973548 -0.69384,0.714952 -1.44331,0.953446 -1.44331,0.459283 z m -3.58863,-1.298914 c -0.54886,-0.60648 -0.26701,-1.276423 0.38923,-0.925209 0.39985,0.213989 0.58108,0.618072 0.44097,0.983196 -0.137,0.357019 -0.47606,0.333338 -0.8302,-0.05799 z m -1.31498,-1.300208 c -0.34002,-0.340021 -0.26406,-1.023055 0.11377,-1.023055 0.39339,0 0.90929,0.533286 0.90929,0.93993 0,0.348696 -0.70057,0.405618 -1.02306,0.08312 z"
       id="path56" />
  </g>
</svg>
