<?xml version="1.0" encoding="utf-8"?>
<svg xmlns="http://www.w3.org/2000/svg" xmlns:svg="http://www.w3.org/2000/svg" version="1.1" viewBox="0 0 1400 340">
	<title>The titlepage for the Standard Ebooks edition of Monsieur Lecoq, by Emile Gaboriau</title>
	<g aria-label="MONSIEUR LECOQ">
		<path d="m 289.37572,130 h 17.59065 L 300.04239,52.807016 H 281.32894 L 264.20613,97.345029 247.08333,52.807016 H 228.36988 L 221.4459,130 h 17.59064 l 3.64913,-45.754387 h 0.46783 l 15.81287,45.286547 h 10.47953 l 15.81287,-45.286547 h 0.46783 z"/>
		<path d="m 315.55116,91.356724 c 0,22.549706 16.09357,40.046786 38.92398,40.046786 22.17544,0 38.83041,-17.49708 38.83041,-40.046786 0,-22.549708 -17.40351,-39.953217 -38.83041,-39.953217 -21.23977,0 -38.92398,17.403509 -38.92398,39.953217 z m 18.99416,0 c 0,-11.508772 6.36257,-23.017544 19.92982,-23.017544 13.66082,0 19.83626,11.508772 19.83626,23.017544 0,11.508776 -5.80117,23.017546 -19.83626,23.017546 -14.40936,0 -19.92982,-11.50877 -19.92982,-23.017546 z"/>
		<path d="m 423.6579,82.093566 h 0.18713 L 454.53509,130 h 17.59064 V 52.807016 h -17.59064 v 47.906434 h -0.18714 L 423.6579,52.807016 H 406.06725 V 130 h 17.59065 z"/>
		<path d="m 514.98686,51.403507 c -12.44445,0 -25.1696,9.169591 -25.1696,23.578948 0,8.046784 5.42691,15.251462 14.69006,19.836258 9.16959,4.584795 17.40351,7.111107 17.40351,12.725147 0,7.20468 -7.29824,7.57895 -11.1345,7.57895 -8.60819,0 -18.90059,-8.70176 -18.90059,-8.70176 l -8.79532,14.78363 c 0,0 10.94737,10.19883 29.00585,10.19883 15.06433,0 29.09942,-6.45614 29.09942,-24.88889 0,-10.105264 -9.4503,-17.40351 -18.05848,-21.052632 -8.79532,-3.742691 -16.09357,-6.83041 -16.09357,-11.134504 0,-4.210526 3.18129,-6.923976 9.16959,-6.923976 7.95322,0 15.62573,5.333333 15.62573,5.333333 l 7.11111,-14.035088 c 0,0 -9.91813,-7.298246 -23.95321,-7.298246 z"/>
		<path d="M 571.99853,52.807016 H 554.40789 V 130 h 17.59064 z"/>
		<path d="M 632.4459,52.807016 H 588.28216 V 130 H 632.4459 V 114.5614 H 605.8728 V 99.029239 h 25.45029 V 83.590642 H 605.8728 V 68.245613 h 26.5731 z"/>
		<path d="m 706.88013,52.807016 h -17.59064 v 44.63158 c 0,12.912284 -3.92983,16.654974 -12.53801,16.654974 -8.60819,0 -12.53802,-3.74269 -12.53802,-16.654974 v -44.63158 h -17.59064 v 49.777774 c 0,19.08772 10.47953,28.81872 30.12866,28.81872 19.64912,0 30.12865,-9.731 30.12865,-28.81872 z"/>
		<path d="M 722.18569,52.807016 V 130 h 17.59064 V 99.497075 L 763.35528,130 h 22.36258 l -26.5731,-31.906433 c 9.45029,-2.994152 15.81286,-10.760234 15.81286,-22.362574 0,-15.157895 -10.8538,-22.923977 -25.16959,-22.923977 z m 17.59064,34.245615 V 66.842104 h 2.05848 c 6.64328,0 14.5965,0.467836 14.5965,10.105263 0,9.637428 -7.95322,10.105264 -14.5965,10.105264 z"/>
		<path d="M 842.42981,52.807016 H 824.83916 V 130 h 44.16375 v -15.4386 h -26.5731 z"/>
		<path d="M 926.81724,52.807016 H 882.65349 V 130 h 44.16375 v -15.4386 h -26.5731 V 99.029239 h 25.45029 V 83.590642 H 900.24414 V 68.245613 h 26.5731 z"/>
		<path d="m 983.00589,114.09357 c -17.68421,0 -25.4503,-12.35088 -25.4503,-22.736846 0,-10.292397 7.76609,-22.643275 25.4503,-22.643275 8.98245,0 15.15789,4.77193 15.15789,4.77193 l 7.48542,-14.97076 c 0,0 -8.60823,-7.111112 -25.35676,-7.111112 -21.89474,0 -41.82457,17.964913 -41.82457,40.140352 0,22.081871 20.0234,39.859651 41.82457,39.859651 16.74853,0 25.35676,-7.11111 25.35676,-7.11111 l -7.48542,-14.97076 c 0,0 -6.17544,4.77193 -15.15789,4.77193 z"/>
		<path d="m 1014.0088,91.356724 c 0,22.549706 16.0935,40.046786 38.9239,40.046786 22.1755,0 38.8305,-17.49708 38.8305,-40.046786 0,-22.549708 -17.4036,-39.953217 -38.8305,-39.953217 -21.2397,0 -38.9239,17.403509 -38.9239,39.953217 z m 18.9941,0 c 0,-11.508772 6.3626,-23.017544 19.9298,-23.017544 13.6609,0 19.8363,11.508772 19.8363,23.017544 0,11.508776 -5.8012,23.017546 -19.8363,23.017546 -14.4093,0 -19.9298,-11.50877 -19.9298,-23.017546 z"/>
		<path d="m 1123.3319,146.18713 c 0,0 4.117,-4.30409 11.4152,-4.30409 11.8831,0 16.655,7.29825 28.1638,7.29825 12.2573,0 17.2163,-10.47954 17.2163,-10.47954 l -5.5204,-11.88304 c 0,0 -3.6492,5.05264 -11.6024,5.05264 -4.5848,0 -10.1988,-1.77778 -11.9766,-1.77778 v -0.37427 c 16,-4.8655 26.8538,-19.92983 26.8538,-38.362576 0,-22.549708 -16.9357,-39.953217 -38.3626,-39.953217 -21.2397,0 -38.4561,17.403509 -38.4561,39.953217 0,19.836256 12.0702,35.742696 30.4094,39.298246 v 0.37427 c -5.6141,0 -12.3509,8.79532 -12.3509,8.79532 z m -3.2748,-54.830406 c 0,-11.508772 5.8947,-22.269006 19.4619,-22.269006 13.6609,0 19.3685,10.760234 19.3685,22.269006 0,11.508776 -5.3334,22.269006 -19.3685,22.269006 -14.4093,0 -19.4619,-10.76023 -19.4619,-22.269006 z"/>
	</g>
	<g aria-label="EMILE GABORIAU">
		<path d="M 390.48301,232.10526 H 357.3602 V 290 h 33.12281 v -11.57895 h -19.92983 v -11.64912 h 19.08772 v -11.57895 h -19.08772 v -11.50877 h 19.92983 z"/>
		<path d="m 450.92709,290 h 13.19298 l -5.19298,-57.89474 H 444.892 l -12.84211,33.40351 -12.8421,-33.40351 H 405.1727 L 399.97972,290 h 13.19298 l 2.73684,-34.31579 h 0.35088 l 11.85965,33.96491 h 7.85965 l 11.85965,-33.96491 h 0.35087 z"/>
		<path d="M 487.59814,232.10526 H 474.40515 V 290 h 13.19299 z"/>
		<path d="M 514.25384,232.10526 H 501.06085 V 290 h 33.12281 v -11.57895 h -19.92982 z"/>
		<path d="M 578.79441,232.10526 H 545.6716 V 290 h 33.12281 v -11.57895 h -19.92983 v -11.64912 h 19.08772 v -11.57895 h -19.08772 v -11.50877 h 19.92983 z"/>
		<path d="m 667.91832,257.57895 h -26.73684 v 10.17544 h 13.33333 c 0,7.08772 -6.24561,11.15789 -12.5614,11.15789 -8.14035,0 -14.73684,-8 -14.73684,-17.82456 0,-10.03509 6.59649,-18.10526 14.73684,-18.10526 5.12281,0 9.54386,2.03508 12.91228,7.43859 l 8.63158,-9.47368 c -5.05263,-6.10526 -12.14035,-9.89474 -22.31579,-9.89474 -16.2807,0 -28.21053,13.40351 -28.21053,30.03509 0,16.5614 12.63158,29.96491 28.21053,29.96491 11.36842,0 23.57895,-6.24561 26.73684,-20.91228 z"/>
		<path d="M 708.08497,232.10526 H 695.87444 L 672.50602,290 h 14.17544 l 4.2807,-11.57895 h 22.03509 L 717.27795,290 h 14.17544 z m 0.42105,34.73685 H 695.45339 L 701.90953,250 h 0.14035 z"/>
		<path d="M 738.6431,232.10526 V 290 h 21.96491 c 12,0 18.94737,-6.59649 18.94737,-16.14035 0,-9.33333 -5.12281,-13.33333 -12.35088,-14.59649 4.91228,-2.52632 7.22807,-7.08772 7.22807,-12.42105 0,-11.01755 -7.85965,-14.73685 -17.82456,-14.73685 z m 13.19298,22.66667 V 242.2807 h 1.05263 c 5.75439,0 8.77193,1.75439 8.77193,5.89474 0,4.8421 -3.08772,6.59649 -8.77193,6.59649 z m 0,25.05263 v -13.68421 h 4.14035 c 6.24562,0 9.68421,1.89474 9.68421,7.22807 0,4.5614 -3.43859,6.45614 -9.68421,6.45614 z"/>
		<path d="m 787.78452,261.01754 c 0,16.91228 12.07018,30.03509 29.19298,30.03509 16.63158,0 29.12281,-13.12281 29.12281,-30.03509 0,-16.91228 -13.05263,-29.96491 -29.12281,-29.96491 -15.92982,0 -29.19298,13.05263 -29.19298,29.96491 z m 14.24562,0 c 0,-8.63157 4.77193,-17.26315 14.94736,-17.26315 10.24562,0 14.8772,8.63158 14.8772,17.26315 0,8.63158 -4.35088,17.26316 -14.8772,17.26316 -10.80701,0 -14.94736,-8.63158 -14.94736,-17.26316 z"/>
		<path d="M 856.9216,232.10526 V 290 h 13.19298 V 267.12281 L 887.79879,290 h 16.77193 L 884.6409,266.07018 c 7.08772,-2.24562 11.85965,-8.07018 11.85965,-16.77193 0,-11.36842 -8.14035,-17.19299 -18.87719,-17.19299 z m 13.19298,25.68421 v -15.15789 h 1.54386 c 4.98246,0 10.94737,0.35088 10.94737,7.57895 0,7.22807 -5.96491,7.57894 -10.94737,7.57894 z"/>
		<path d="M 925.4161,232.10526 H 912.22312 V 290 h 13.19298 z"/>
		<path d="M 968.28232,232.10526 H 956.0718 L 932.70338,290 h 14.17544 l 4.2807,-11.57895 h 22.03509 L 977.47531,290 h 14.17544 z m 0.42106,34.73685 H 955.65075 L 962.10689,250 h 0.14035 z"/>
		<path d="m 1043.3317,232.10526 h -13.193 v 33.47369 c 0,9.68421 -2.9474,12.49123 -9.4035,12.49123 -6.4562,0 -9.4035,-2.80702 -9.4035,-12.49123 v -33.47369 h -13.19303 v 37.33334 c 0,14.31579 7.85963,21.61403 22.59653,21.61403 14.7368,0 22.5965,-7.29824 22.5965,-21.61403 z"/>
	</g>
</svg>
